<?xml version="1.0" encoding="iso-8859-1"?>
<!-- Generator: Adobe Illustrator 22.1.0, SVG Export Plug-In . SVG Version: 6.00 Build 0)  -->
<svg xmlns="http://www.w3.org/2000/svg" xmlns:xlink="http://www.w3.org/1999/xlink" version="1.1" id="Layer_1_1_" x="0px" y="0px" viewBox="0 0 64 64" style="enable-background:new 0 0 64 64;" xml:space="preserve" width="512" height="512">
<g>
	<g>
		<path style="fill:#E6E9ED;" d="M62,23v27h-4V32v-8c0-0.55-0.45-1-1-1H34v9v18h-4V32v-9H19l-4,9v5v2v7l0.01,0.09    c-2.21,0.36-4.02,1.94-4.7,4.02L10,50H2v-3l5.45-2.72C7.79,44.11,8,43.76,8,43.38V40c0-0.55-0.45-1-1-1H2v-1.4    c0-1.58,0.93-3.01,2.38-3.66l5.16-2.29c0.94-0.42,1.68-1.18,2.07-2.12l3.36-8.07c0.63-1.49,2.08-2.46,3.7-2.46H24h8h26    C60.21,19,62,20.79,62,23z"/>
		<path style="fill:#CCD1D9;" d="M58,32v18h-4l-0.31,0.11C52.91,47.73,50.65,46,48,46s-4.91,1.73-5.69,4.11L42,50h-8V32h18h2H58z"/>
		<path style="fill:#CCD1D9;" d="M30,32v18h-8l-0.31,0.11C20.91,47.73,18.65,46,16,46c-0.34,0-0.67,0.03-0.99,0.09L15,46v-7v-2v-5    H30z"/>
		<path style="fill:#69D6F4;" d="M58,24v8h-4h-2H34v-9h23C57.55,23,58,23.45,58,24z"/>
		<polygon style="fill:#69D6F4;" points="30,23 30,32 15,32 19,23   "/>
		<polygon style="fill:#FF826E;" points="31,15 32,19 24,19 25,15   "/>
		<path style="fill:#FF826E;" d="M8,40v3.38c0,0.38-0.21,0.73-0.55,0.9L2,47v-8h5C7.55,39,8,39.45,8,40z"/>
		<path style="fill:#FCD770;" d="M62,50v4c0,1.1-0.9,2-2,2h-7.54c0.96-1.06,1.54-2.46,1.54-4c0-0.66-0.11-1.3-0.31-1.89L54,50h4H62z    "/>
		<path style="fill:#FCD770;" d="M42,52c0,1.54,0.58,2.94,1.54,4H20.46c0.96-1.06,1.54-2.46,1.54-4c0-0.66-0.11-1.3-0.31-1.89L22,50    h8h4h8l0.31,0.11C42.11,50.7,42,51.34,42,52z"/>
		<path style="fill:#FCD770;" d="M10,52c0,1.54,0.58,2.94,1.54,4H4c-1.1,0-2-0.9-2-2v-4h8l0.31,0.11C10.11,50.7,10,51.34,10,52z"/>
		<path style="fill:#838F9B;" d="M52.46,56c-1.09,1.23-2.69,2-4.46,2s-3.37-0.77-4.46-2C42.58,54.94,42,53.54,42,52    c0-0.66,0.11-1.3,0.31-1.89C43.09,47.73,45.35,46,48,46s4.91,1.73,5.69,4.11C53.89,50.7,54,51.34,54,52    C54,53.54,53.42,54.94,52.46,56z"/>
		<path style="fill:#838F9B;" d="M20.46,56c-1.09,1.23-2.69,2-4.46,2s-3.37-0.77-4.46-2C10.58,54.94,10,53.54,10,52    c0-0.66,0.11-1.3,0.31-1.89c0.68-2.08,2.49-3.66,4.7-4.02C15.33,46.03,15.66,46,16,46c2.65,0,4.91,1.73,5.69,4.11    C21.89,50.7,22,51.34,22,52C22,53.54,21.42,54.94,20.46,56z"/>
		<circle style="fill:#E6E9ED;" cx="48" cy="52" r="2"/>
		<circle style="fill:#E6E9ED;" cx="16" cy="52" r="2"/>
	</g>
	<g>
		<path d="M16,49c-1.654,0-3,1.346-3,3s1.346,3,3,3s3-1.346,3-3S17.654,49,16,49z M16,53c-0.552,0-1-0.448-1-1s0.448-1,1-1    s1,0.448,1,1S16.552,53,16,53z"/>
		<path d="M48,49c-1.654,0-3,1.346-3,3s1.346,3,3,3s3-1.346,3-3S49.654,49,48,49z M48,53c-0.552,0-1-0.448-1-1s0.448-1,1-1    s1,0.448,1,1S48.552,53,48,53z"/>
		<path d="M58,18H32.78l-0.999-4h-7.562l-0.999,4h-4.553c-2.025,0-3.837,1.208-4.615,3.077l-3.362,8.068    c-0.297,0.711-0.848,1.274-1.551,1.587l-5.17,2.298C2.165,33.832,1,35.625,1,37.6V54c0,1.654,1.346,3,3,3h7.111    c1.263,1.235,2.988,2,4.889,2s3.626-0.765,4.889-2h22.221c1.263,1.235,2.988,2,4.889,2s3.626-0.765,4.889-2H60    c1.654,0,3-1.346,3-3V23C63,20.243,60.757,18,58,18z M25.781,16h4.438l0.501,2h-5.439L25.781,16z M4.781,34.858l5.17-2.298    c1.172-0.521,2.09-1.46,2.584-2.646l3.362-8.068C16.365,20.725,17.452,20,18.667,20H58c1.654,0,3,1.346,3,3v26h-2V24    c0-1.103-0.897-2-2-2H33v27h-2V22H18.351L14,31.788V37h2v-4h13v16h-6.685c-1.126-2.361-3.53-4-6.315-4v-6h-2v6.295    c-1.907,0.57-3.47,1.934-4.315,3.705H3v-1.382l4.894-2.447C8.576,44.831,9,44.146,9,43.382V40c0-1.103-0.897-2-2-2H3v-0.4    C3,36.415,3.699,35.339,4.781,34.858z M48,45c-2.785,0-5.188,1.639-6.315,4H35V33h17v-2H35v-7h22v7h-3v2h3v16h-2.685    C53.188,46.639,50.785,45,48,45z M22.92,51h18.16C41.033,51.328,41,51.66,41,52c0,1.074,0.251,2.089,0.685,3h-19.37    C22.749,54.089,23,53.074,23,52C23,51.66,22.967,51.328,22.92,51z M29,31H16.539l3.111-7H29V31z M3,45.382V40h4v3.382L3,45.382z     M3,54v-3h6.08C9.033,51.328,9,51.66,9,52c0,1.074,0.251,2.089,0.685,3H4C3.448,55,3,54.552,3,54z M16,57c-2.757,0-5-2.243-5-5    s2.243-5,5-5s5,2.243,5,5S18.757,57,16,57z M48,57c-2.757,0-5-2.243-5-5s2.243-5,5-5s5,2.243,5,5S50.757,57,48,57z M60,55h-5.685    C54.749,54.089,55,53.074,55,52c0-0.34-0.033-0.672-0.08-1H61v3C61,54.552,60.552,55,60,55z"/>
		<rect x="37" y="35" width="4" height="2"/>
		<rect x="23" y="35" width="4" height="2"/>
		<rect x="27" y="6" width="2" height="6"/>
		<rect x="19.929" y="7.929" transform="matrix(0.7072 -0.707 0.707 0.7072 -1.599 17.9973)" width="2" height="6"/>
		<rect x="32.07" y="9.929" transform="matrix(0.7071 -0.7071 0.7071 0.7071 2.5439 27.9999)" width="6.001" height="2"/>
		<polygon points="55,39 53,39 53,37 51,37 51,39 49,39 49,41 51,41 51,43 53,43 53,41 55,41   "/>
	</g>
</g>
</svg>
