<?xml version="1.0" encoding="iso-8859-1"?>
<!-- Generator: Adobe Illustrator 22.1.0, SVG Export Plug-In . SVG Version: 6.00 Build 0)  -->
<svg xmlns="http://www.w3.org/2000/svg" xmlns:xlink="http://www.w3.org/1999/xlink" version="1.1" id="Layer_1_1_" x="0px" y="0px" viewBox="0 0 64 64" style="enable-background:new 0 0 64 64;" xml:space="preserve" width="512" height="512">
<g>
	<g>
		<polygon style="fill:#AAB2BD;" points="24,40 40,40 42,40 50,40 50,48 46,48 46,44 42,44 42,48 38,48 38,44 34,44 34,48 30,48     30,44 26,44 26,48 22,48 22,44 18,44 18,48 14,48 14,40 22,40   "/>
		<path style="fill:#E6E9ED;" d="M56,48v14H38V52h-6h-6v10H8V48h6h4h4h4h4h4h4h4h4h4H56z"/>
		<rect x="42" y="44" style="fill:#69D6F4;" width="4" height="4"/>
		<rect x="34" y="44" style="fill:#69D6F4;" width="4" height="4"/>
		<rect x="26" y="44" style="fill:#69D6F4;" width="4" height="4"/>
		<rect x="18" y="44" style="fill:#69D6F4;" width="4" height="4"/>
		<rect x="32" y="52" style="fill:#AAB2BD;" width="6" height="10"/>
		<rect x="26" y="52" style="fill:#AAB2BD;" width="6" height="10"/>
		<rect x="46" y="52" style="fill:#69D6F4;" width="6" height="6"/>
		<rect x="12" y="52" style="fill:#69D6F4;" width="6" height="6"/>
		<circle style="fill:#FCD770;" cx="47" cy="17" r="2"/>
		<circle style="fill:#FCD770;" cx="17" cy="17" r="2"/>
		<path style="fill:#CCD1D9;" d="M41,12.69v0.01c-1.02,0.35-1.99,0.84-2.88,1.48c-0.11,0.07-0.22,0.14-0.32,0.22L37,15l-0.39,0.05    C36.86,15.65,37,16.31,37,17s-0.14,1.35-0.39,1.95L37,19l0.8,0.6l1.26,0.81c0.62,0.37,1.27,0.67,1.94,0.89v0.01    c1.28,0.46,2.63,0.69,4,0.69v-5v-5C43.63,12,42.28,12.23,41,12.69z"/>
		<path style="fill:#CCD1D9;" d="M27.39,15.05L27,15l-0.8-0.6c-0.1-0.08-0.21-0.15-0.32-0.22c-0.89-0.64-1.86-1.13-2.88-1.48    c-1.28-0.47-2.63-0.7-4-0.7v5v5c1.37,0,2.72-0.23,4-0.7c0.67-0.22,1.32-0.52,1.94-0.89l1.26-0.81L27,19l0.39-0.05    C27.14,18.35,27,17.69,27,17S27.14,15.65,27.39,15.05z"/>
		<path style="fill:#AAB2BD;" d="M36.61,15.05C36.86,15.65,37,16.31,37,17s-0.14,1.35-0.39,1.95c-0.64,1.5-1.99,2.62-3.62,2.95    C32.67,21.97,32.34,22,32,22s-0.67-0.03-0.99-0.1c-1.63-0.33-2.98-1.45-3.62-2.95C27.14,18.35,27,17.69,27,17s0.14-1.35,0.39-1.95    C28.15,13.26,29.93,12,32,12S35.85,13.26,36.61,15.05z"/>
	</g>
	<g>
		<rect x="31" y="16" width="2" height="2"/>
		<path d="M12.051,21.949l1.414-1.414C12.521,19.591,12,18.336,12,17s0.521-2.591,1.465-3.535l-1.414-1.414    C10.729,13.372,10,15.13,10,17S10.729,20.628,12.051,21.949z"/>
		<path d="M10.636,23.364C8.937,21.664,8,19.404,8,17s0.937-4.664,2.636-6.364L9.222,9.222C7.145,11.299,6,14.062,6,17    s1.145,5.701,3.222,7.778L10.636,23.364z"/>
		<path d="M51.949,21.949C53.271,20.628,54,18.87,54,17s-0.729-3.628-2.051-4.949l-1.414,1.414C51.479,14.409,52,15.664,52,17    s-0.521,2.591-1.465,3.535L51.949,21.949z"/>
		<path d="M53.364,23.364l1.414,1.414C56.855,22.701,58,19.938,58,17s-1.145-5.701-3.222-7.778l-1.414,1.414    C55.063,12.336,56,14.596,56,17S55.063,21.664,53.364,23.364z"/>
		<path d="M57,47h-6v-8h-8.138l-2.533-16.884C41.816,22.689,43.402,23,45,23h1v-3.184C46.314,19.928,46.648,20,47,20    c1.654,0,3-1.346,3-3s-1.346-3-3-3c-0.352,0-0.686,0.072-1,0.184V11h-1c-2.143,0-4.27,0.548-6.154,1.557L37.896,4H33V1h-2v3    h-4.896l-0.951,8.557C23.27,11.548,21.143,11,19,11h-1v3.184C17.686,14.072,17.352,14,17,14c-1.654,0-3,1.346-3,3s1.346,3,3,3    c0.352,0,0.686-0.072,1-0.184V23h1c1.598,0,3.185-0.311,4.671-0.884L21.138,39H13v8H7v14H5v2h54v-2h-2V47z M25.6,18.8    c-0.501,0.376-1.043,0.691-1.6,0.975v-5.549c0.557,0.284,1.099,0.599,1.601,0.975l0.565,0.424C26.061,16.067,26,16.526,26,17    c0,0.474,0.061,0.933,0.166,1.376L25.6,18.8z M27.049,13.617L27.451,10h9.098l0.402,3.617C35.869,12.038,34.054,11,32,11    S28.131,12.038,27.049,13.617z M38.399,18.8l-0.565-0.424C37.939,17.933,38,17.474,38,17c0-0.474-0.061-0.933-0.166-1.376    L38.4,15.2c0.501-0.376,1.043-0.691,1.6-0.975v5.549C39.443,19.491,38.901,19.176,38.399,18.8z M32,13c2.206,0,4,1.794,4,4    s-1.794,4-4,4s-4-1.794-4-4S29.794,13,32,13z M32,23c0.214,0,0.424-0.012,0.632-0.034L36.88,26h-9.76l4.248-3.034    C31.576,22.988,31.786,23,32,23z M39.315,28.845L39.938,33h-5.737L39.315,28.845z M32,32.211L26.817,28h10.366L32,32.211z     M29.798,33h-5.737l0.623-4.155L29.798,33z M32.26,35l4.923,4H26.817l4.923-4H32.26z M40.356,39l-4.923-4h4.806l0.6,4H40.356z     M38.717,24.855l-3.726-2.661c0.82-0.474,1.518-1.134,2.034-1.925l0.174,0.131c0.305,0.229,0.622,0.44,0.945,0.641L38.717,24.855z     M47,16c0.552,0,1,0.448,1,1s-0.448,1-1,1s-1-0.448-1-1S46.448,16,47,16z M44,20.953c-0.679-0.063-1.345-0.212-2-0.398v-7.11    c0.655-0.187,1.321-0.335,2-0.398V20.953z M36.104,6l0.222,2h-8.654l0.222-2H36.104z M17,18c-0.552,0-1-0.448-1-1s0.448-1,1-1    s1,0.448,1,1S17.552,18,17,18z M20,13.047c0.679,0.063,1.345,0.212,2,0.398v7.11c-0.655,0.187-1.321,0.335-2,0.398V13.047z     M26.8,20.399l0.175-0.131c0.516,0.791,1.214,1.451,2.034,1.925l-3.726,2.661l0.572-3.815C26.179,20.84,26.495,20.628,26.8,20.399    z M23.762,35h4.806l-4.923,4h-0.483L23.762,35z M15,41h34v6h-2v-4h-6v4h-2v-4h-6v4h-2v-4h-6v4h-2v-4h-6v4h-2V41z M45,47h-2v-2h2    V47z M37,47h-2v-2h2V47z M29,47h-2v-2h2V47z M21,47h-2v-2h2V47z M9,49h46v12H39V51H25v10H9V49z M33,53h4v8h-4V53z M31,61h-4v-8h4    V61z"/>
		<path d="M53,51h-8v8h8V51z M51,57h-4v-4h4V57z"/>
		<path d="M11,51v8h8v-8H11z M17,57h-4v-4h4V57z"/>
		<rect x="61" y="61" width="2" height="2"/>
		<rect x="1" y="61" width="2" height="2"/>
	</g>
</g>
</svg>
