<?xml version="1.0" encoding="iso-8859-1"?>
<!-- Generator: Adobe Illustrator 22.1.0, SVG Export Plug-In . SVG Version: 6.00 Build 0)  -->
<svg xmlns="http://www.w3.org/2000/svg" xmlns:xlink="http://www.w3.org/1999/xlink" version="1.1" id="Layer_1_1_" x="0px" y="0px" viewBox="0 0 64 64" style="enable-background:new 0 0 64 64;" xml:space="preserve" width="512" height="512">
<g>
	<g>
		<path style="fill:#69D6F4;" d="M57.83,56c-2.59,0-2.59-2-5.18-2c-1.32,0-1.96,0.52-2.62,1.03C49.39,55.52,48.75,56,47.48,56    c-2.58,0-2.58-2-5.16-2c-2.59,0-2.59,2-5.17,2c-2.58,0-2.58-2-5.17-2c-2.58,0-2.58,2-5.16,2c-2.59,0-2.59-2-5.17-2s-2.58,2-5.16,2    c-1.25,0-1.89-0.47-2.52-0.96C13.3,54.53,12.66,54,11.32,54c-1.29,0-1.93,0.5-2.58,1l-2.58,1C3.58,56,3.58,54,1,54v9h62v-9    C60.41,54,60.41,56,57.83,56z"/>
		<path style="fill:#838F9B;" d="M50,55l0.03,0.03C49.39,55.52,48.75,56,47.48,56c-2.58,0-2.58-2-5.16-2c-2.59,0-2.59,2-5.17,2    c-2.58,0-2.58-2-5.17-2c-2.58,0-2.58,2-5.16,2c-2.59,0-2.59-2-5.17-2s-2.58,2-5.16,2c-1.25,0-1.89-0.47-2.52-0.96L14,55v-4    c0-1.1,0.9-2,2-2h2h8h20h2c1.1,0,2,0.9,2,2V55z"/>
		<path style="fill:#FCD770;" d="M46,49H26h-8c0,0,2.63-7.9,12.01-8.9c0.63-0.06,1.3-0.1,1.99-0.1c0.69,0,1.36,0.04,1.99,0.1    C43.37,41.1,46,49,46,49z"/>
		<path style="fill:#CF9E76;" d="M34,40l-0.01,0.1C33.36,40.04,32.69,40,32,40c-0.69,0-1.36,0.04-1.99,0.1L30,40V4c0-1.1,0.9-2,2-2    c0.55,0,1.05,0.22,1.41,0.59C33.78,2.95,34,3.45,34,4v13v7V40z"/>
		<polygon style="fill:#FF826E;" points="57,4 51,14 57,24 34,24 34,17 34,4   "/>
	</g>
	<g>
		<path d="M57.827,61c-0.952,0-1.382-0.332-1.976-0.791c-0.402-0.312-0.859-0.665-1.489-0.909l-0.725,1.864    c0.36,0.14,0.652,0.366,0.99,0.627C55.325,62.33,56.192,63,57.827,63s2.501-0.67,3.197-1.209C61.619,61.332,62.048,61,63,61v-2    c-1.635,0-2.502,0.67-3.198,1.209C59.207,60.668,58.778,61,57.827,61z"/>
		<path d="M49.457,60.209C48.863,60.668,48.435,61,47.484,61c-0.949,0-1.378-0.332-1.971-0.791C44.817,59.67,43.952,59,42.318,59    s-2.5,0.67-3.196,1.209C38.529,60.668,38.101,61,37.15,61c-0.949,0-1.378-0.332-1.971-0.791C34.483,59.67,33.618,59,31.984,59    s-2.5,0.67-3.196,1.209C28.195,60.668,27.767,61,26.817,61s-1.378-0.332-1.971-0.791C24.15,59.67,23.285,59,21.651,59    s-2.5,0.67-3.195,1.209C17.863,60.668,17.436,61,16.486,61c-0.948,0-1.375-0.332-1.968-0.79C13.823,59.671,12.958,59,11.325,59    c-1.634,0-2.5,0.67-3.195,1.209C7.537,60.668,7.109,61,6.16,61c-0.948,0-1.376-0.332-1.968-0.791C3.497,59.671,2.632,59,1,59v2    c0.948,0,1.376,0.332,1.968,0.791C3.663,62.329,4.528,63,6.16,63c1.633,0,2.499-0.67,3.194-1.209    C9.947,61.332,10.376,61,11.325,61c0.948,0,1.376,0.332,1.969,0.791C13.989,62.33,14.854,63,16.486,63    c1.633,0,2.499-0.67,3.194-1.209C20.273,61.332,20.702,61,21.651,61s1.378,0.332,1.971,0.791C24.318,62.33,25.184,63,26.817,63    c1.633,0,2.499-0.67,3.195-1.209C30.605,61.332,31.034,61,31.984,61c0.949,0,1.378,0.332,1.971,0.791    C34.651,62.33,35.517,63,37.15,63s2.5-0.67,3.196-1.209C40.939,61.332,41.368,61,42.318,61c0.949,0,1.378,0.332,1.971,0.791    C44.985,62.33,45.851,63,47.484,63s2.5-0.67,3.196-1.209c0.476-0.368,0.851-0.658,1.474-0.755l-0.309-1.977    C50.715,59.236,50.017,59.775,49.457,60.209z"/>
		<path d="M59.802,54.209C59.207,54.668,58.778,55,57.827,55c-0.952,0-1.381-0.332-1.976-0.791C55.155,53.67,54.288,53,52.653,53    c-0.667,0-1.201,0.115-1.653,0.283V51c0-1.654-1.346-3-3-3h-1.33c-0.396-0.891-1.254-2.531-2.818-4.187    c-1.705-1.806-4.541-3.894-8.852-4.579V25h23.767l-6.601-11l6.601-11H34.816C34.402,1.839,33.302,1,32,1c-1.654,0-3,1.346-3,3    v35.234c-4.311,0.686-7.147,2.774-8.852,4.579c-1.564,1.656-2.422,3.295-2.818,4.187H16c-1.654,0-3,1.346-3,3v2.293    C12.544,53.119,12.003,53,11.325,53c-1.634,0-2.5,0.67-3.195,1.209l1.225,1.581C9.947,55.332,10.375,55,11.325,55    c0.948,0,1.376,0.332,1.969,0.791C13.989,56.33,14.854,57,16.486,57c1.633,0,2.499-0.67,3.194-1.209    C20.273,55.332,20.702,55,21.651,55s1.378,0.332,1.971,0.791C24.318,56.33,25.184,57,26.817,57c1.633,0,2.499-0.67,3.195-1.209    C30.605,55.332,31.034,55,31.984,55c0.949,0,1.378,0.332,1.971,0.791C34.651,56.33,35.517,57,37.15,57s2.5-0.67,3.196-1.209    C40.939,55.332,41.368,55,42.318,55c0.949,0,1.378,0.332,1.971,0.791C44.985,56.33,45.851,57,47.484,57s2.5-0.67,3.196-1.209    C51.273,55.332,51.702,55,52.653,55c0.952,0,1.381,0.332,1.976,0.791C55.325,56.33,56.192,57,57.827,57s2.501-0.67,3.197-1.209    C61.619,55.332,62.048,55,63,55v-2C61.365,53,60.498,53.67,59.802,54.209z M49.834,14l5.399,9H35V5h20.233L49.834,14z M31,4    c0-0.551,0.448-1,1-1s1,0.449,1,1v21v14.027C32.673,39.011,32.341,39,32,39s-0.673,0.011-1,0.027V4z M45.514,54.209    C44.817,53.67,43.952,53,42.318,53s-2.5,0.67-3.196,1.209C38.529,54.668,38.101,55,37.15,55c-0.949,0-1.378-0.332-1.971-0.791    C34.483,53.67,33.618,53,31.984,53s-2.5,0.67-3.196,1.209C28.195,54.668,27.767,55,26.817,55s-1.378-0.332-1.971-0.791    C24.15,53.67,23.285,53,21.651,53s-2.5,0.67-3.195,1.209C17.863,54.668,17.436,55,16.486,55c-0.679,0-1.089-0.174-1.486-0.44V51    c0-0.551,0.448-1,1-1h8v-2h-4.45c1.259-2.349,4.723-7,12.45-7c7.729,0,11.192,4.652,12.451,7H26v2h22c0.552,0,1,0.449,1,1v3.545    C48.595,54.82,48.18,55,47.484,55C46.535,55,46.106,54.668,45.514,54.209z"/>
		<path d="M6.16,57v-2c-0.948,0-1.376-0.332-1.968-0.791C3.497,53.671,2.632,53,1,53v2c0.948,0,1.376,0.332,1.968,0.791    C3.663,56.329,4.528,57,6.16,57z"/>
	</g>
</g>
</svg>
