<?xml version="1.0" encoding="iso-8859-1"?>
<!-- Generator: Adobe Illustrator 22.1.0, SVG Export Plug-In . SVG Version: 6.00 Build 0)  -->
<svg xmlns="http://www.w3.org/2000/svg" xmlns:xlink="http://www.w3.org/1999/xlink" version="1.1" id="Layer_1_1_" x="0px" y="0px" viewBox="0 0 64 64" style="enable-background:new 0 0 64 64;" xml:space="preserve" width="512" height="512">
<g>
	<g>
		<path style="fill:#FCD770;" d="M44,8v4c0,0.55-0.45,1-1,1h-2h-4H27h-4h-2c-0.55,0-1-0.45-1-1V8c0-0.55,0.45-1,1-1h22    C43.55,7,44,7.45,44,8z"/>
		<rect x="37" y="13" style="fill:#E6E9ED;" width="4" height="6"/>
		<rect x="23" y="13" style="fill:#E6E9ED;" width="4" height="6"/>
		<path style="fill:#FCD770;" d="M56,27v2h-4v-2c0-2.21-1.79-4-4-4H19h-3c-2.21,0-4,1.79-4,4v2H8v-2c0-4.42,3.58-8,8-8h7h4h10h4h7    C52.42,19,56,22.58,56,27z"/>
		<path style="fill:#E6E9ED;" d="M62,33v4H52v-4v-4h4h2C60.21,29,62,30.79,62,33z"/>
		<path style="fill:#E6E9ED;" d="M62,41v12c0,2.21-1.79,4-4,4h-6V41H62z"/>
		<path style="fill:#E6E9ED;" d="M12,41v16H6c-2.21,0-4-1.79-4-4V41H12z"/>
		<path style="fill:#E6E9ED;" d="M12,33v4H2v-4c0-2.21,1.79-4,4-4h2h4V33z"/>
		<rect x="52" y="37" style="fill:#FCD770;" width="10" height="4"/>
		<rect x="2" y="37" style="fill:#FCD770;" width="10" height="4"/>
		<path style="fill:#CCD1D9;" d="M52,29v4h-6H12v-4v-2c0-2.21,1.79-4,4-4h3h29c2.21,0,4,1.79,4,4V29z"/>
		<path style="fill:#FF826E;" d="M52,41v16H12V41v-4v-4h34h6v4V41z"/>
		<polygon style="fill:#E6E9ED;" points="40,42 40,48 35,48 35,53 29,53 29,48 24,48 24,42 29,42 29,37 35,37 35,42   "/>
	</g>
	<g>
		<path d="M58,28h-1v-1c0-4.962-4.037-9-9-9h-6v-4h1c1.103,0,2-0.897,2-2V8c0-1.103-0.897-2-2-2H21c-1.103,0-2,0.897-2,2v4    c0,1.103,0.897,2,2,2h1v4h-6c-4.963,0-9,4.038-9,9v1H6c-2.757,0-5,2.243-5,5v20c0,2.757,2.243,5,5,5h52c2.757,0,5-2.243,5-5V33    C63,30.243,60.757,28,58,28z M61,33v3h-8v-6h5C59.654,30,61,31.346,61,33z M53,38h8v2h-8V38z M40,18h-2v-4h2V18z M36,14v4h-8v-4    H36z M21,8h22l0.001,4H21V8z M24,14h2v4h-2V14z M9,27c0-3.86,3.141-7,7-7h32c3.859,0,7,3.14,7,7v1h-2v-1c0-2.757-2.243-5-5-5H21v2    h27c1.654,0,3,1.346,3,3v5h-5v2h5v22H13V34h31v-2H13v-5c0-1.654,1.346-3,3-3h3v-2h-3c-2.757,0-5,2.243-5,5v1H9V27z M11,40H3v-2h8    V40z M6,30h5v6H3v-3C3,31.346,4.346,30,6,30z M3,53V42h8v14H6C4.346,56,3,54.654,3,53z M58,56h-5V42h8v11    C61,54.654,59.654,56,58,56z"/>
		<path d="M36,36h-8v5h-5v8h5v5h8v-5h5v-8h-5V36z M39,43v4h-5v5h-4v-5h-5v-4h5v-5h4v5H39z"/>
	</g>
</g>
</svg>
