<?xml version="1.0" encoding="iso-8859-1"?>
<!-- Generator: Adobe Illustrator 22.1.0, SVG Export Plug-In . SVG Version: 6.00 Build 0)  -->
<svg xmlns="http://www.w3.org/2000/svg" xmlns:xlink="http://www.w3.org/1999/xlink" version="1.1" id="Layer_1_1_" x="0px" y="0px" viewBox="0 0 64 64" style="enable-background:new 0 0 64 64;" xml:space="preserve" width="512" height="512">
<g>
	<g>
		<path style="fill:#FCD770;" d="M62,37v2c0,1.1-0.9,2-2,2h-5h-5c-1.1,0-2-0.9-2-2v-2h3h2H62z"/>
		<path style="fill:#FCD770;" d="M51,16v2c0,1.1-0.9,2-2,2h-5h-5c-1.1,0-2-0.9-2-2v-2h3h2H51z"/>
		<path style="fill:#CCD1D9;" d="M62,27v10h-9h-2h-3V27c0-1.1,0.9-2,2-2h3v7c0,0.55,0.45,1,1,1h2c0.55,0,1-0.45,1-1v-7h3    C61.1,25,62,25.9,62,27z"/>
		<path style="fill:#CCD1D9;" d="M51,6v10h-9h-2h-3V6c0-1.1,0.9-2,2-2h3v7c0,0.55,0.45,1,1,1h2c0.55,0,1-0.45,1-1V7V4h3    C50.1,4,51,4.9,51,6z"/>
		<path style="fill:#838F9B;" d="M57,25v7c0,0.55-0.45,1-1,1h-2c-0.55,0-1-0.45-1-1v-7v-1c0-0.55,0.45-1,1-1h2c0.55,0,1,0.45,1,1V25    z"/>
		<path style="fill:#838F9B;" d="M46,7v4c0,0.55-0.45,1-1,1h-2c-0.55,0-1-0.45-1-1V4V3c0-0.55,0.45-1,1-1h2c0.55,0,1,0.45,1,1v1V7z"/>
		<path style="fill:#838F9B;" d="M32.32,13.61L34,22h-4l-1-6H11l-1,6H6l1.68-8.39C7.87,12.67,8.69,12,9.64,12h20.72    C31.31,12,32.13,12.67,32.32,13.61z"/>
		<path style="fill:#E6E9ED;" d="M35,22H5c-1.66,0-3,1.34-3,3v34c0,1.66,1.34,3,3,3h30c1.66,0,3-1.34,3-3V25    C38,23.34,36.66,22,35,22z"/>
		<rect x="25" y="53" style="fill:#FFEAA7;" width="4" height="4"/>
		<rect x="21" y="53" style="fill:#FFEAA7;" width="4" height="4"/>
		<rect x="29" y="53" style="fill:#FFEAA7;" width="4" height="4"/>
		<polygon style="fill:#69D6F4;" points="6,26 6,32 6,40 34,40 34,33 34,26   "/>
		<path style="fill:#FF826E;" d="M17,50.83c0,0.75-0.3,1.47-0.83,2L12,57l-4.17-4.17C7.3,52.3,7,51.58,7,50.83    c0-0.78,0.32-1.49,0.83-2c0.51-0.51,1.22-0.83,2-0.83c0.75,0,1.47,0.3,2,0.83L12,49l0.17-0.17c0.53-0.53,1.25-0.83,2-0.83    c0.78,0,1.49,0.32,2,0.83C16.68,49.34,17,50.05,17,50.83z"/>
	</g>
	<g>
		<path d="M14.171,47c-0.787,0-1.537,0.235-2.171,0.674C11.366,47.236,10.615,47,9.829,47C7.717,47,6,48.718,6,50.828    c0,1.023,0.398,1.984,1.122,2.707L12,58.414l4.878-4.879C17.602,52.812,18,51.852,18,50.828C18,48.718,16.283,47,14.171,47z     M15.464,52.121L12,55.586l-3.465-3.465C8.195,51.78,8,51.31,8,50.828C8,49.82,8.82,49,9.829,49c0.488,0,0.948,0.19,1.292,0.534    L12,50.416l0.878-0.881C13.224,49.19,13.683,49,14.171,49C15.18,49,16,49.82,16,50.828C16,51.31,15.805,51.78,15.464,52.121z"/>
		<path d="M5,41h30V25H5V41z M33,27v5h-5v2h5v5H7v-6h2.382L12,38.236l3.124-6.248L16.465,34H26v-2h-8.465l-2.659-3.988L12,33.764    L10.618,31H7v-4H33z"/>
		<path d="M20,58h14v-6H20V58z M26,56v-2h2v2H26z M32,56h-2v-2h2V56z M22,54h2v2h-2V54z"/>
		<rect x="5" y="43" width="14" height="2"/>
		<rect x="21" y="43" width="14" height="2"/>
		<rect x="21" y="47" width="14" height="2"/>
		<path d="M39,21h4v2h2v-2h4c1.654,0,3-1.346,3-3V6c0-1.654-1.346-3-3-3h-2c0-1.103-0.897-2-2-2h-2c-1.103,0-2,0.897-2,2h-2    c-1.654,0-3,1.346-3,3v12C36,19.654,37.346,21,39,21z M43,3h2l0.001,8H43V3z M39,5h2v6c0,1.103,0.897,2,2,2h2c1.103,0,2-0.897,2-2    V5h2c0.551,0,1,0.448,1,1v9h-8v2h8v1c0,0.552-0.449,1-1,1H39c-0.551,0-1-0.448-1-1v-1h2v-2h-2V6C38,5.448,38.449,5,39,5z"/>
		<path d="M60,24h-2c0-1.103-0.897-2-2-2h-2c-1.103,0-2,0.897-2,2h-2c-1.654,0-3,1.346-3,3v12c0,1.654,1.346,3,3,3h4v2h2v-2h4    c1.654,0,3-1.346,3-3V27C63,25.346,61.654,24,60,24z M54,24h2l0.001,8H54V24z M60,40H50c-0.551,0-1-0.448-1-1v-1h2v-2h-2v-9    c0-0.552,0.449-1,1-1h2v6c0,1.103,0.897,2,2,2h2c1.103,0,2-0.897,2-2v-6h2c0.551,0,1,0.448,1,1v9h-8v2h8v1    C61,39.552,60.551,40,60,40z"/>
		<rect x="43" y="29" width="2" height="2"/>
		<rect x="43" y="25" width="2" height="2"/>
		<path d="M54,52c0,1.103-0.897,2-2,2H39v-2h2c2.206,0,4-1.794,4-4V33h-2v15c0,1.103-0.897,2-2,2h-2V25c0-2.206-1.794-4-4-4h-0.18    l-1.518-7.589C33.023,12.014,31.786,11,30.36,11H9.64c-1.425,0-2.663,1.014-2.942,2.411L5.18,21H5c-2.206,0-4,1.794-4,4v34    c0,2.206,1.794,4,4,4h30c2.206,0,4-1.794,4-4v-3h13c2.206,0,4-1.794,4-4v-2h-2V52z M8.659,13.804C8.752,13.338,9.165,13,9.64,13    H30.36c0.475,0,0.888,0.338,0.981,0.804L32.78,21h-1.933l-1-6H10.153l-1,6H7.22L8.659,13.804z M28.82,21H11.18l0.667-4h16.306    L28.82,21z M37,59c0,1.103-0.897,2-2,2H5c-1.103,0-2-0.897-2-2V25c0-1.103,0.897-2,2-2h30c1.103,0,2,0.897,2,2V59z"/>
		<rect x="54" y="46" width="2" height="2"/>
	</g>
</g>
</svg>
