<?xml version="1.0" encoding="iso-8859-1"?>
<!-- Generator: Adobe Illustrator 22.1.0, SVG Export Plug-In . SVG Version: 6.00 Build 0)  -->
<svg xmlns="http://www.w3.org/2000/svg" xmlns:xlink="http://www.w3.org/1999/xlink" version="1.1" id="Layer_1_1_" x="0px" y="0px" viewBox="0 0 64 64" style="enable-background:new 0 0 64 64;" xml:space="preserve" width="512" height="512">
<g>
	<g>
		<path style="fill:#E6E9ED;" d="M49,23c0,1.1,0.9,2,2,2h-4c-0.55,0-1.05,0.22-1.41,0.59C45.22,25.95,45,26.45,45,27    c0,1.1,0.9,2,2,2h7v4h-6h-6c-1.1,0-2-0.9-2-2v-3v-8c0-0.63,0.3-1.22,0.8-1.6l2.4-1.8c0.25-0.19,0.45-0.43,0.59-0.71L44,16l3,2l2-2    V23z"/>
		<path style="fill:#E6E9ED;" d="M24,31c0,1.1-0.9,2-2,2h-6h-6v-4h7c1.1,0,2-0.9,2-2c0-0.55-0.22-1.05-0.59-1.41    C18.05,25.22,17.55,25,17,25h-4c1.1,0,2-0.9,2-2v-7l2,2l3-2l0.21-0.11c0.14,0.28,0.34,0.52,0.59,0.71l2.4,1.8    c0.5,0.38,0.8,0.97,0.8,1.6v8V31z"/>
		<polygon style="fill:#B27946;" points="48,33 42,33 42,62 48,62 54,62 54,33   "/>
		<polygon style="fill:#B27946;" points="16,33 10,33 10,62 16,62 22,62 22,33   "/>
		<polygon style="fill:#B27946;" points="32,33 26,33 26,62 32,62 38,62 38,33   "/>
		<path style="fill:#B4DD7F;" d="M20,14l8,2h1l3,2l3-2h1l8-2v1c0,0.32-0.08,0.62-0.21,0.89c-0.14,0.28-0.34,0.52-0.59,0.71l-2.4,1.8    C40.3,18.78,40,19.37,40,20v8v3c0,1.1-0.9,2-2,2h-6h-6c-1.1,0-2-0.9-2-2v-3v-8c0-0.63-0.3-1.22-0.8-1.6l-2.4-1.8    c-0.25-0.19-0.45-0.43-0.59-0.71C20.08,15.62,20,15.32,20,15V14z"/>
		<path style="fill:#F0D0B4;" d="M57,19.6V28c0,0.55-0.45,1-1,1h-2h-7c-1.1,0-2-0.9-2-2c0-0.55,0.22-1.05,0.59-1.41    C45.95,25.22,46.45,25,47,25h4h2v-2v-2v-4.57l1.42,0.2C55.9,16.84,57,18.11,57,19.6z"/>
		<path style="fill:#F0D0B4;" d="M53,21v2c0,0.55-0.22,1.05-0.59,1.41C52.05,24.78,51.55,25,51,25c-1.1,0-2-0.9-2-2v-7v-3    c0.38-0.29,0.71-0.62,1-1c1.66,0,3,1.34,3,3v1.43V21z"/>
		<path style="fill:#F0D0B4;" d="M18.41,25.59C18.78,25.95,19,26.45,19,27c0,1.1-0.9,2-2,2h-7H8c-0.55,0-1-0.45-1-1v-8.4    c0-1.49,1.1-2.76,2.58-2.97l1.42-0.2V21v2v2h2h4C17.55,25,18.05,25.22,18.41,25.59z"/>
		<path style="fill:#F0D0B4;" d="M15,16v7c0,1.1-0.9,2-2,2c-0.55,0-1.05-0.22-1.41-0.59C11.22,24.05,11,23.55,11,23v-2v-4.57V15    c0-1.66,1.34-3,3-3c0.29,0.38,0.62,0.71,1,1V16z"/>
		<path style="fill:#F0D0B4;" d="M49,13v3l-2,2l-3-2l-0.21-0.11C43.92,15.62,44,15.32,44,15v-1v-0.41c0.61,0.26,1.29,0.41,2,0.41    C47.13,14,48.17,13.63,49,13z"/>
		<path style="fill:#F0D0B4;" d="M44,13.59c-1.76-0.78-3-2.54-3-4.59V7c0-2.76,2.24-5,5-5c1.38,0,2.63,0.56,3.54,1.46    C50.44,4.37,51,5.62,51,7v2c0,1.13-0.37,2.17-1,3c-0.29,0.38-0.62,0.71-1,1c-0.83,0.63-1.87,1-3,1C45.29,14,44.61,13.85,44,13.59z    "/>
		<path style="fill:#F0D0B4;" d="M32,14c1.13,0,2.17-0.37,3-1v3l-3,2l-3-2v-3C29.83,13.63,30.87,14,32,14z"/>
		<path style="fill:#F0D0B4;" d="M37,7v2c0,1.63-0.79,3.09-2,4c-0.83,0.63-1.87,1-3,1c-1.13,0-2.17-0.37-3-1c-1.21-0.91-2-2.37-2-4    V7c0-2.76,2.24-5,5-5c1.38,0,2.63,0.56,3.54,1.46C36.44,4.37,37,5.62,37,7z"/>
		<path style="fill:#F0D0B4;" d="M20,15c0,0.32,0.08,0.62,0.21,0.89L20,16l-3,2l-2-2v-3c0.83,0.63,1.87,1,3,1    c0.71,0,1.39-0.15,2-0.41V14V15z"/>
		<path style="fill:#F0D0B4;" d="M20,13.59C19.39,13.85,18.71,14,18,14c-1.13,0-2.17-0.37-3-1c-0.38-0.29-0.71-0.62-1-1    c-0.63-0.83-1-1.87-1-3V7c0-1.38,0.56-2.63,1.46-3.54C15.37,2.56,16.62,2,18,2c2.76,0,5,2.24,5,5v2C23,11.05,21.76,12.81,20,13.59    z"/>
	</g>
	<path d="M54.565,15.642L54,15.561V15c0-1.661-1.018-3.087-2.463-3.691C51.834,10.598,52,9.818,52,9V7c0-3.309-2.691-6-6-6   s-6,2.691-6,6v2c0,1.775,0.779,3.368,2.008,4.467L36,14.969v-1.51c1.224-1.099,2-2.688,2-4.46V7c0-3.309-2.691-6-6-6s-6,2.691-6,6   v2c0,1.771,0.776,3.36,2,4.46v1.51l-6.008-1.502C23.221,12.368,24,10.775,24,9V7c0-3.309-2.691-6-6-6s-6,2.691-6,6v2   c0,0.818,0.166,1.598,0.463,2.309C11.018,11.913,10,13.339,10,15v0.561l-0.565,0.081C7.477,15.922,6,17.625,6,19.602V28   c0,1.103,0.897,2,2,2h1v33h14V33.816c0.374-0.133,0.711-0.335,1-0.596c0.289,0.26,0.626,0.463,1,0.596V63h14V33.816   c0.374-0.133,0.711-0.335,1-0.596c0.289,0.26,0.626,0.463,1,0.596V63h14V30h1c1.103,0,2-0.897,2-2v-8.398   C58,17.625,56.523,15.922,54.565,15.642z M52,15v6v2c0,0.551-0.448,1-1,1s-1-0.449-1-1v-9.54c0.146-0.131,0.285-0.269,0.418-0.414   C51.32,13.239,52,14.041,52,15z M45,15v-0.09c0.326,0.055,0.659,0.09,1,0.09c0.702,0,1.373-0.128,2-0.35v0.936l-1.127,1.127   l-1.924-1.283C44.97,15.288,45,15.146,45,15z M42,7c0-2.206,1.794-4,4-4s4,1.794,4,4v2c0,2.206-1.794,4-4,4s-4-1.794-4-4V7z M28,7   c0-2.206,1.794-4,4-4s4,1.794,4,4v2c0,2.206-1.794,4-4,4s-4-1.794-4-4V7z M32,15c0.702,0,1.373-0.128,2-0.35v0.815l-2,1.333   l-2-1.333V14.65C30.627,14.872,31.298,15,32,15z M16,14.65c0.627,0.223,1.298,0.35,2,0.35c0.341,0,0.674-0.035,1-0.09V15   c0,0.146,0.03,0.288,0.051,0.431l-1.924,1.283L16,15.586V14.65z M14,7c0-2.206,1.794-4,4-4s4,1.794,4,4v2c0,2.206-1.794,4-4,4   s-4-1.794-4-4V7z M12,15c0-0.959,0.68-1.761,1.582-1.954c0.133,0.145,0.272,0.283,0.418,0.414V23c0,0.551-0.448,1-1,1s-1-0.449-1-1   v-2V15z M8,19.602c0-0.989,0.738-1.84,1.718-1.98L10,17.581V21v2v3h7c0.552,0,1,0.449,1,1s-0.448,1-1,1H8V19.602z M17,61V36h-2v25   h-4V34h10v27H17z M22,32h-1H11v-2h6c1.654,0,3-1.346,3-3s-1.346-3-3-3h-1.184C15.928,23.686,16,23.352,16,23v-4.586l0.873,0.873   l3.122-2.082c0.07,0.064,0.129,0.138,0.205,0.195l2.399,1.799C22.851,19.388,23,19.687,23,20v8v3C23,31.551,22.552,32,22,32z    M33,61V36h-2v25h-4V34h10v27H33z M38,32H26c-0.552,0-1-0.449-1-1v-3v-8c0-0.938-0.448-1.835-1.2-2.4L21.4,15.801   c-0.167-0.126-0.267-0.307-0.33-0.502l6.687,1.672l0.913,0.012L32,19.202L35.303,17h0.82l6.806-1.702   c-0.063,0.195-0.162,0.376-0.329,0.501l-2.401,1.801C39.448,18.165,39,19.062,39,20v8v3C39,31.551,38.552,32,38,32z M49,61V36h-2   v25h-4V34h10v27H49z M53,32H43h-1c-0.552,0-1-0.449-1-1v-3v-8c0-0.313,0.149-0.612,0.399-0.8l2.401-1.801   c0.076-0.057,0.134-0.131,0.204-0.194l3.122,2.082L48,18.414V23c0,0.352,0.072,0.686,0.184,1H47c-1.654,0-3,1.346-3,3s1.346,3,3,3   h6V32z M56,28h-9c-0.552,0-1-0.449-1-1s0.448-1,1-1h7v-3v-2v-3.419l0.282,0.04c0.979,0.14,1.718,0.992,1.718,1.98V28z"/>
</g>
</svg>
