<?xml version="1.0" encoding="iso-8859-1"?>
<!-- Generator: Adobe Illustrator 22.1.0, SVG Export Plug-In . SVG Version: 6.00 Build 0)  -->
<svg xmlns="http://www.w3.org/2000/svg" xmlns:xlink="http://www.w3.org/1999/xlink" version="1.1" id="Layer_1_1_" x="0px" y="0px" viewBox="0 0 64 64" style="enable-background:new 0 0 64 64;" xml:space="preserve" width="512" height="512">
<g>
	<g>
		<path style="fill:#FFEAA7;" d="M18,52h5h2h3v3h6h6v-3h5h3v7H16v-9c0,0.55,0.22,1.05,0.59,1.41C16.95,51.78,17.45,52,18,52z"/>
		<path style="fill:#FFEAA7;" d="M44,23v-5.02c0-1.2-0.72-2.29-1.82-2.76L37,13v-2.35c0.62-0.71,1-1.64,1-2.65V6    c0-0.33-0.04-0.66-0.12-0.97L38,5h10v26v2v19h-3h-5v-4c2.21,0,4-1.79,4-4s-1.79-4-4-4v-9v-4h3c0.55,0,1-0.45,1-1V23z"/>
		<path style="fill:#FFEAA7;" d="M30,6v2c0,1.01,0.38,1.94,1,2.65V13l-3,1.29l-2.61,1.11c-0.87,0.38-1.52,1.15-1.74,2.07l-3.6,15.33    C20.02,32.93,20,33.07,20,33.2v0.06c0,0.96,0.78,1.74,1.74,1.74c0.75,0,1.42-0.48,1.66-1.19L28,20v11v9h-6c-1.1,0-2,0.9-2,2    c0,0.55,0.22,1.05,0.59,1.41C20.95,43.78,21.45,44,22,44s1.05,0.22,1.41,0.59C23.78,44.95,24,45.45,24,46s-0.22,1.05-0.59,1.41    C23.05,47.78,22.55,48,22,48h-4c-1.1,0-2,0.9-2,2V18v-2V5h14l0.12,0.03C30.04,5.34,30,5.67,30,6z"/>
		<path style="fill:#AAB2BD;" d="M52,4v56c0,1.1-0.9,2-2,2c-0.55,0-1.05-0.22-1.41-0.59C48.22,61.05,48,60.55,48,60v-1v-7V33v-2V5V4    c0-1.1,0.9-2,2-2c0.55,0,1.05,0.22,1.41,0.59C51.78,2.95,52,3.45,52,4z"/>
		<path style="fill:#AAB2BD;" d="M16,59v1c0,1.1-0.9,2-2,2c-0.55,0-1.05-0.22-1.41-0.59C12.22,61.05,12,60.55,12,60V4    c0-1.1,0.9-2,2-2c0.55,0,1.05,0.22,1.41,0.59C15.78,2.95,16,3.45,16,4v1v11v2v32V59z"/>
		<path style="fill:#FF826E;" d="M40,40c2.21,0,4,1.79,4,4s-1.79,4-4,4V40z"/>
		<path style="fill:#FF826E;" d="M28,40v12h-3h-2h-5c-0.55,0-1.05-0.22-1.41-0.59C16.22,51.05,16,50.55,16,50c0-1.1,0.9-2,2-2h4    c0.55,0,1.05-0.22,1.41-0.59C23.78,47.05,24,46.55,24,46s-0.22-1.05-0.59-1.41C23.05,44.22,22.55,44,22,44s-1.05-0.22-1.41-0.59    C20.22,43.05,20,42.55,20,42c0-1.1,0.9-2,2-2H28z"/>
		<polygon style="fill:#838F9B;" points="34,55 28,55 28,52 28,40 28,31 40,31 40,40 40,48 40,52 40,55   "/>
		<path style="fill:#B4DD7F;" d="M37,13l5.18,2.22c1.1,0.47,1.82,1.56,1.82,2.76V23h-4h-3c-0.55,0-1.05,0.22-1.41,0.59    C35.22,23.95,35,24.45,35,25c0,1.1,0.9,2,2,2h3v4H28V20v-5.71L31,13l3,3L37,13z"/>
		<path style="fill:#F0D0B4;" d="M44,23v3c0,0.55-0.45,1-1,1h-3h-3c-1.1,0-2-0.9-2-2c0-0.55,0.22-1.05,0.59-1.41    C35.95,23.22,36.45,23,37,23h3H44z"/>
		<path style="fill:#F0D0B4;" d="M28,14.29V20l-4.6,13.81C23.16,34.52,22.49,35,21.74,35C20.78,35,20,34.22,20,33.26V33.2    c0-0.13,0.02-0.27,0.05-0.4l3.6-15.33c0.22-0.92,0.87-1.69,1.74-2.07L28,14.29z"/>
		<path style="fill:#F0D0B4;" d="M37,10.65V13l-3,3l-3-3v-2.35c0.74,0.83,1.81,1.35,3,1.35S36.26,11.48,37,10.65z"/>
		<path style="fill:#F0D0B4;" d="M38,6v2c0,1.01-0.38,1.94-1,2.65C36.26,11.48,35.19,12,34,12s-2.26-0.52-3-1.35    C30.38,9.94,30,9.01,30,8V6c0-0.33,0.04-0.66,0.12-0.97C30.55,3.29,32.13,2,34,2c1.1,0,2.1,0.45,2.83,1.17    c0.5,0.51,0.87,1.15,1.05,1.86C37.96,5.34,38,5.67,38,6z"/>
	</g>
	<path d="M50,1c-1.654,0-3,1.346-3,3h-8.424C37.802,2.237,36.045,1,34,1s-3.802,1.237-4.576,3H17c0-1.654-1.346-3-3-3s-3,1.346-3,3   v56c0,1.654,1.346,3,3,3s3-1.346,3-3h30c0,1.654,1.346,3,3,3s3-1.346,3-3V4C53,2.346,51.654,1,50,1z M33,35v19h-4V32h10v22h-4V35   H33z M41,41.184c1.161,0.414,2,1.514,2,2.816s-0.839,2.402-2,2.816V41.184z M37,26c-0.551,0-1-0.449-1-1s0.449-1,1-1h4v-7h-2v5h-2   c-1.654,0-3,1.346-3,3s1.346,3,3,3h2v2H29V17h-2v2.837l-4.551,13.654C22.347,33.796,22.064,34,21.743,34   C21.333,34,21,33.667,21,33.202c0-0.057,0.007-0.114,0.02-0.17l3.607-15.33c0.145-0.615,0.578-1.131,1.159-1.38l4.986-2.137   L34,17.414l3.228-3.228l4.559,1.954C42.524,16.456,43,17.177,43,17.978V26H37z M36,12.586l-2,2l-2-2v-0.01   C32.614,12.846,33.288,13,34,13s1.386-0.154,2-0.424V12.586z M31,6c0-1.654,1.346-3,3-3s3,1.346,3,3v2c0,1.654-1.346,3-3,3   s-3-1.346-3-3V6z M15,60c0,0.552-0.449,1-1,1s-1-0.448-1-1V4c0-0.551,0.449-1,1-1s1,0.449,1,1v12h2V6h12v2   c0,1.13,0.391,2.162,1.026,3H30v1.341l-5.002,2.144c-1.162,0.498-2.029,1.53-2.318,2.76l-3.607,15.329   C19.024,32.78,19,32.991,19,33.257C19,34.77,20.23,36,21.743,36c1.183,0,2.229-0.754,2.603-1.876L27,26.163V39h-5   c-1.654,0-3,1.346-3,3s1.346,3,3,3c0.551,0,1,0.448,1,1s-0.449,1-1,1h-4c-0.352,0-0.686,0.072-1,0.184V18h-2V60z M51,60   c0,0.552-0.449,1-1,1s-1-0.448-1-1V33h-2v18h-2v2h2v5H17v-5.184C17.314,52.928,17.648,53,18,53h5v-2h-5c-0.551,0-1-0.448-1-1   s0.449-1,1-1h4c1.654,0,3-1.346,3-3s-1.346-3-3-3c-0.551,0-1-0.448-1-1s0.449-1,1-1h5v10h-2v2h2v3h14v-3h2v-2h-2v-2.101   c2.279-0.465,4-2.484,4-4.899s-1.721-4.434-4-4.899V28h2c1.103,0,2-0.897,2-2v-8.022c0-1.602-0.952-3.045-2.424-3.676L38,12.341V11   h-0.026C38.609,10.162,39,9.13,39,8V6h8v25h2V4c0-0.551,0.449-1,1-1s1,0.449,1,1V60z"/>
</g>
</svg>
