<?xml version="1.0" encoding="iso-8859-1"?>
<!-- Generator: Adobe Illustrator 22.1.0, SVG Export Plug-In . SVG Version: 6.00 Build 0)  -->
<svg xmlns="http://www.w3.org/2000/svg" xmlns:xlink="http://www.w3.org/1999/xlink" version="1.1" id="Layer_1_1_" x="0px" y="0px" viewBox="0 0 64 64" style="enable-background:new 0 0 64 64;" xml:space="preserve" width="512" height="512">
<g>
	<g>
		<path style="fill:#FCD770;" d="M16.82,22.78l-0.75-0.94c-1-1.26-2.17-2.35-3.47-3.26c-1.31-0.9-2.74-1.62-4.26-2.13    C7.54,16.18,7,15.43,7,14.59c0-0.38,0.11-0.76,0.33-1.08l6.48-9.73C14.55,2.67,15.8,2,17.14,2h29.72c1.34,0,2.59,0.67,3.33,1.78    l6.48,9.73c0.22,0.32,0.33,0.7,0.33,1.08c0,0.84-0.54,1.59-1.34,1.86c-3.04,1.01-5.73,2.88-7.73,5.39l-0.75,0.94    c0.24,1.53,0.74,3,1.46,4.35c1.05,1.97,2.59,3.69,4.51,4.97l1.96,1.31C55.67,33.78,56,34.4,56,35.07V36H41h-2h-4.96v-0.6    c0.59-0.48,0.96-1.21,0.96-2.03c0-0.25-0.03-0.49-0.1-0.72L33,26l8.69-9.56C42.53,15.51,43,14.3,43,13.05    c0-1.39-0.56-2.66-1.48-3.57C40.61,8.56,39.34,8,37.95,8h-11.9C23.26,8,21,10.26,21,13.05c0,1.25,0.47,2.46,1.31,3.39L31,26    l-1.9,6.65c-0.07,0.23-0.1,0.47-0.1,0.72c0,0.73,0.3,1.38,0.77,1.86c0.12,0.12,0.25,0.22,0.39,0.32L30,36h-5h-2H8v-0.93    c0-0.67,0.33-1.29,0.89-1.66l1.96-1.31c1.92-1.28,3.46-3,4.51-4.97C16.08,25.78,16.58,24.31,16.82,22.78z"/>
		<path style="fill:#FF826E;" d="M56,56.83V60c0,1.1-0.9,2-2,2H36c-1.1,0-2-0.9-2-2v-6h5h2h13l1.41,1.41    C55.79,55.79,56,56.3,56,56.83z"/>
		<path style="fill:#FCD770;" d="M56,47.83v3.93c0,0.76-0.43,1.45-1.11,1.79L54,54H41h-2h-5v-9h14h2h4l1.41,1.41    C55.79,46.79,56,47.3,56,47.83z"/>
		<path style="fill:#FF826E;" d="M56,36v6.17c0,0.53-0.21,1.04-0.59,1.42L54,45h-4h-2H34v-9h0.04H39h2H56z"/>
		<path style="fill:#FF826E;" d="M34.9,32.65c0.07,0.23,0.1,0.47,0.1,0.72c0,0.82-0.37,1.55-0.96,2.03c-0.45,0.37-1.03,0.6-1.67,0.6    h-0.74c-0.55,0-1.05-0.17-1.47-0.45c-0.14-0.1-0.27-0.2-0.39-0.32C29.3,34.75,29,34.1,29,33.37c0-0.25,0.03-0.49,0.1-0.72L31,26h2    L34.9,32.65z"/>
		<path style="fill:#FF826E;" d="M30,54v6c0,1.1-0.9,2-2,2H10c-1.1,0-2-0.9-2-2v-3.17c0-0.53,0.21-1.04,0.59-1.42L10,54h13h2H30z"/>
		<path style="fill:#FCD770;" d="M30,45v9h-5h-2H10l-0.89-0.45C8.43,53.21,8,52.52,8,51.76v-3.93c0-0.53,0.21-1.04,0.59-1.42L10,45    h4h2H30z"/>
		<path style="fill:#FF826E;" d="M30,36v9H16h-2h-4l-1.41-1.41C8.21,43.21,8,42.7,8,42.17V36h15h2H30z"/>
	</g>
	<path d="M55.979,17.395C57.188,16.992,58,15.865,58,14.592c0-0.585-0.172-1.151-0.496-1.639L51.02,3.227   C50.09,1.832,48.535,1,46.859,1H17.141c-1.676,0-3.23,0.832-4.16,2.227l-6.484,9.728C6.172,13.44,6,14.007,6,14.592   c0,1.273,0.812,2.4,2.02,2.802c2.868,0.956,5.382,2.709,7.271,5.07l0.455,0.569c-0.642,3.335-2.566,6.312-5.452,8.237l-1.957,1.305   C7.499,33.132,7,34.065,7,35.07v7.102c0,0.801,0.312,1.555,0.879,2.121L8.586,45l-0.707,0.707C7.312,46.273,7,47.027,7,47.828   v3.936c0,1.016,0.501,1.94,1.329,2.493l-0.45,0.45C7.312,55.273,7,56.027,7,56.828V60c0,1.654,1.346,3,3,3h18c1.654,0,3-1.346,3-3   V36.936C31.206,36.973,31.415,37,31.632,37h0.736c0.216,0,0.426-0.027,0.632-0.064V60c0,1.654,1.346,3,3,3h18c1.654,0,3-1.346,3-3   v-3.172c0-0.801-0.312-1.555-0.879-2.121l-0.45-0.45C56.499,53.704,57,52.779,57,51.764v-3.936c0-0.801-0.312-1.555-0.879-2.121   L55.414,45l0.707-0.707C56.688,43.727,57,42.973,57,42.172V35.07c0-1.005-0.499-1.938-1.336-2.496l-1.957-1.305   c-2.886-1.925-4.81-4.902-5.452-8.237l0.455-0.569C50.599,20.103,53.112,18.35,55.979,17.395z M32.557,25h-1.114l-8.39-9.229   C22.374,15.024,22,14.058,22,13.048C22,10.815,23.815,9,26.048,9h11.904C40.185,9,42,10.815,42,13.048   c0,1.01-0.374,1.977-1.053,2.724L32.557,25z M31.632,35C30.732,35,30,34.268,30,33.368c0-0.151,0.021-0.302,0.063-0.448l1.69-5.92   h0.492l1.691,5.921C33.979,33.066,34,33.217,34,33.368C34,34.268,33.268,35,32.368,35H31.632z M52.598,32.934l1.957,1.305   c0.259,0.172,0.415,0.454,0.437,0.762H41v2h14v5.172c0,0.263-0.106,0.521-0.293,0.707L53.586,44H50v2h3.586l1.121,1.121   C54.894,47.308,55,47.565,55,47.828v3.936c0,0.382-0.212,0.725-0.553,0.895L53.763,53H41v2h12.586l1.121,1.121   C54.894,56.308,55,56.565,55,56.828V60c0,0.552-0.448,1-1,1H36c-0.552,0-1-0.448-1-1v-5h4v-2h-4v-7h13v-2H35v-7h4v-2h-3.405   C35.845,34.507,36,33.958,36,33.368c0-0.337-0.047-0.673-0.14-0.997l-1.746-6.11l8.313-9.144C43.441,16.001,44,14.556,44,13.048   C44,9.713,41.287,7,37.952,7H26.048C22.713,7,20,9.713,20,13.048c0,1.508,0.559,2.953,1.572,4.069l8.313,9.144l-1.745,6.109   C28.047,32.695,28,33.031,28,33.368c0,0.59,0.155,1.139,0.405,1.632H25v2h4v7H16v2h13v7h-4v2h4v5c0,0.552-0.448,1-1,1H10   c-0.552,0-1-0.448-1-1v-3.172c0-0.263,0.106-0.521,0.293-0.707L10.414,55H23v-2H10.237l-0.684-0.342   C9.212,52.488,9,52.146,9,51.764v-3.936c0-0.263,0.106-0.521,0.293-0.707L10.414,46H14v-2h-3.586l-1.121-1.121   C9.106,42.692,9,42.435,9,42.172V37h14v-2H9.009c0.022-0.307,0.177-0.589,0.437-0.762l1.957-1.305C15.533,30.18,18,25.57,18,20.605   c0-3.185-1.053-6.342-2.963-8.89L14.801,11.4L13.199,12.6l0.237,0.315c1.574,2.099,2.465,4.676,2.547,7.296   c-2.009-2.157-4.519-3.777-7.332-4.715C8.262,15.367,8,15.003,8,14.592c0-0.188,0.056-0.372,0.16-0.529l6.484-9.727   C15.202,3.499,16.136,3,17.141,3h29.719c1.005,0,1.938,0.499,2.496,1.336l6.484,9.726c0.104,0.158,0.16,0.342,0.16,0.53   c0,0.411-0.262,0.775-0.652,0.905c-2.812,0.937-5.323,2.556-7.331,4.714c0.083-2.62,0.973-5.197,2.548-7.296l0.236-0.315   L49.199,11.4l-0.235,0.315C47.053,14.264,46,17.421,46,20.605C46,25.57,48.467,30.18,52.598,32.934z"/>
</g>
</svg>
