<?xml version="1.0" encoding="iso-8859-1"?>
<!-- Generator: Adobe Illustrator 22.1.0, SVG Export Plug-In . SVG Version: 6.00 Build 0)  -->
<svg xmlns="http://www.w3.org/2000/svg" xmlns:xlink="http://www.w3.org/1999/xlink" version="1.1" id="Layer_1_1_" x="0px" y="0px" viewBox="0 0 64 64" style="enable-background:new 0 0 64 64;" xml:space="preserve" width="512" height="512">
<g>
	<g>
		<path style="fill:#69D6F4;" d="M57.83,50c-0.03,0-0.07,0-0.1,0c-2.49-0.05-2.52-2-5.08-2c-2.58,0-2.58,2-5.17,2    c-2.58,0-2.58-2-5.16-2c-2.59,0-2.59,2-5.17,2c-1.66,0-2.25-0.82-3.15-1.42C33.5,48.26,32.91,48,31.98,48    c-2.11,0-2.5,1.34-3.98,1.83c-0.33,0.1-0.71,0.17-1.18,0.17c-2.59,0-2.59-2-5.17-2s-2.58,2-5.16,2s-2.58-2-5.17-2    c-2.58,0-2.58,2-5.16,2H6.15C3.58,49.99,3.58,48,1,48v6v9h62v-9v-6C60.41,48,60.41,50,57.83,50z"/>
		<path style="fill:#969FAA;" d="M60.93,44l-3.2,6c-2.49-0.05-2.52-2-5.08-2c-2.58,0-2.58,2-5.17,2c-2.58,0-2.58-2-5.16-2    c-2.59,0-2.59,2-5.17,2c-1.66,0-2.25-0.82-3.15-1.42V44H60.93z"/>
		<path style="fill:#969FAA;" d="M28,44v5.83c-0.33,0.1-0.71,0.17-1.18,0.17c-2.59,0-2.59-2-5.17-2s-2.58,2-5.16,2s-2.58-2-5.17-2    c-2.58,0-2.58,2-5.16,2H6.15L2,44H28z"/>
		<polygon style="fill:#CCD1D9;" points="62,42 60.93,44 34,44 34,42 38.33,40 58,40 58.08,39.86   "/>
		<path style="fill:#CCD1D9;" d="M28,40.4V44H2v-2.38c0-0.55,0.04-1.09,0.12-1.62H21h2h5h0.02C28.01,40.13,28,40.27,28,40.4z"/>
		<path style="fill:#FF826E;" d="M9,31l0.02-0.06C9.14,30.98,9.27,31,9.41,31H20l3,3l5,5l0.23,0.08c-0.11,0.29-0.18,0.6-0.21,0.92    H28h-5h-2H2.12C2.67,36.04,5.25,32.6,9,31z"/>
		<path style="fill:#FF826E;" d="M18,29l2,2H9.41c-0.14,0-0.27-0.02-0.39-0.06C8.43,30.78,8,30.23,8,29.59c0-0.38,0.15-0.74,0.41-1    l3.18-3.18c0.26-0.26,0.62-0.41,1-0.41h0.82c0.38,0,0.74,0.15,1,0.41L15,26L18,29z"/>
		<path style="fill:#969FAA;" d="M26,21c1.1,0,2,0.9,2,2c0,0.55-0.22,1.05-0.59,1.41C27.05,24.78,26.55,25,26,25h-4l-4,4l-3-3l5-5    H26z"/>
		<path style="fill:#AAB2BD;" d="M58.08,39.86L58,40H38.33l5.35-2.47c0.86-0.39,1.57-0.98,2.12-1.69L46,36h5L58.08,39.86z"/>
		<path style="fill:#AAB2BD;" d="M47,32h5l10,5v5l-3.92-2.14L51,36h-5l-0.2-0.16c0.11-0.13,0.21-0.27,0.3-0.42    c0.58-0.9,0.9-1.96,0.9-3.07c0-0.12,0-0.24-0.02-0.35H47z"/>
		<path style="fill:#AAB2BD;" d="M28.88,37.9c-0.28,0.36-0.5,0.75-0.65,1.18L28,39l-5-5c1.28-1.28,3.02-2,4.83-2h5.77L28.88,37.9z"/>
		<path style="fill:#838F9B;" d="M33.6,32l2.4-3h10l0.4,0.79c0.34,0.69,0.54,1.44,0.58,2.21C47,32.11,47,32.23,47,32.35    c0,1.11-0.32,2.17-0.9,3.07c-0.09,0.15-0.19,0.29-0.3,0.42c-0.55,0.71-1.26,1.3-2.12,1.69L38.33,40L34,42v2v4.58    C33.5,48.26,32.91,48,31.98,48c-2.11,0-2.5,1.34-3.98,1.83V44v-3.6c0-0.13,0.01-0.27,0.02-0.4c0.03-0.32,0.1-0.63,0.21-0.92    c0.15-0.43,0.37-0.82,0.65-1.18L33.6,32z"/>
		<path style="fill:#B4DD7F;" d="M46,16.34V29H36v-4h4l5.6-7.47C45.86,17.19,46,16.77,46,16.34z"/>
		<path style="fill:#B4DD7F;" d="M41,14c0.85,0,1.64-0.21,2.34-0.58l0.27,0.63c-0.71,0.26-0.99,0.49-1.2,0.78L38,21h-1    c0-2.61,0.6-5.18,1.77-7.53C39.44,13.81,40.2,14,41,14z"/>
		<path style="fill:#F0D0B4;" d="M30,21h7h1l4.41-6.17c0.21-0.29,0.49-0.52,1.2-0.78c0.13-0.04,0.27-0.05,0.41-0.05    c1.09,0,1.98,0.89,1.98,1.98V16v0.34c0,0.43-0.14,0.85-0.4,1.19L40,25h-4h-6c-1.1,0-2-0.9-2-2S28.9,21,30,21z"/>
		<path style="fill:#F0D0B4;" d="M38.77,13.47C37.13,12.65,36,10.96,36,9V7c0-2.76,2.24-5,5-5c1.38,0,2.63,0.56,3.54,1.46    C45.44,4.37,46,5.62,46,7v2c0,1.91-1.08,3.58-2.66,4.42C42.64,13.79,41.85,14,41,14C40.2,14,39.44,13.81,38.77,13.47z"/>
	</g>
	<g>
		<path d="M57.827,61c-0.952,0-1.381-0.332-1.975-0.791C55.155,59.67,54.289,59,52.654,59c-1.634,0-2.5,0.67-3.197,1.209    C48.863,60.668,48.435,61,47.484,61c-0.949,0-1.377-0.332-1.97-0.791C44.818,59.671,43.952,59,42.319,59    c-1.634,0-2.5,0.671-3.196,1.209C38.53,60.668,38.101,61,37.151,61c-0.95,0-1.378-0.332-1.971-0.791    C34.483,59.671,33.618,59,31.984,59c-1.633,0-2.5,0.671-3.195,1.209C28.196,60.668,27.767,61,26.817,61s-1.378-0.332-1.971-0.791    C24.151,59.671,23.285,59,21.651,59c-1.633,0-2.499,0.671-3.194,1.209C17.864,60.668,17.436,61,16.487,61    c-0.948,0-1.376-0.332-1.969-0.79C13.823,59.671,12.958,59,11.325,59s-2.499,0.671-3.194,1.209C7.538,60.668,7.109,61,6.16,61    c-0.948,0-1.375-0.331-1.967-0.79C3.498,59.671,2.632,59,1,59v2c0.948,0,1.375,0.331,1.967,0.79C3.663,62.329,4.528,63,6.16,63    c1.633,0,2.499-0.671,3.195-1.209C9.948,61.332,10.375,61,11.325,61c0.948,0,1.376,0.332,1.969,0.79    c0.695,0.539,1.561,1.21,3.193,1.21s2.499-0.671,3.194-1.209C20.274,61.332,20.702,61,21.651,61c0.95,0,1.378,0.332,1.971,0.791    C24.318,62.329,25.184,63,26.817,63c1.634,0,2.5-0.671,3.196-1.209C30.606,61.332,31.034,61,31.984,61s1.378,0.332,1.971,0.791    C34.651,62.329,35.517,63,37.151,63s2.5-0.671,3.196-1.209C40.94,61.332,41.369,61,42.319,61c0.949,0,1.377,0.332,1.97,0.791    C44.985,62.329,45.851,63,47.484,63c1.634,0,2.5-0.67,3.197-1.209C51.274,61.332,51.703,61,52.654,61    c0.952,0,1.381,0.332,1.975,0.791C55.325,62.33,56.192,63,57.827,63c1.635,0,2.502-0.67,3.199-1.209    C61.619,61.332,62.048,61,63,61v-2c-1.635,0-2.501,0.67-3.198,1.209C59.208,60.668,58.779,61,57.827,61z"/>
		<path d="M57.827,55c-0.952,0-1.381-0.332-1.975-0.791C55.155,53.67,54.289,53,52.654,53c-1.634,0-2.5,0.67-3.197,1.209    C48.863,54.668,48.435,55,47.484,55c-0.949,0-1.377-0.332-1.97-0.791C44.818,53.671,43.952,53,42.319,53    c-1.634,0-2.5,0.671-3.196,1.209C38.53,54.668,38.101,55,37.151,55c-0.95,0-1.378-0.332-1.971-0.791    C34.483,53.671,33.618,53,31.984,53c-1.633,0-2.5,0.671-3.195,1.209C28.196,54.668,27.767,55,26.817,55s-1.378-0.332-1.971-0.791    C24.151,53.671,23.285,53,21.651,53c-1.633,0-2.499,0.671-3.194,1.209C17.864,54.668,17.436,55,16.487,55    c-0.948,0-1.376-0.332-1.969-0.79C13.823,53.671,12.958,53,11.325,53s-2.499,0.671-3.194,1.209C7.538,54.668,7.109,55,6.16,55    c-0.948,0-1.375-0.331-1.967-0.79C3.498,53.671,2.632,53,1,53v2c0.948,0,1.375,0.331,1.967,0.79C3.663,56.329,4.528,57,6.16,57    c1.633,0,2.499-0.671,3.195-1.209C9.948,55.332,10.375,55,11.325,55c0.948,0,1.376,0.332,1.969,0.79    c0.695,0.539,1.561,1.21,3.193,1.21s2.499-0.671,3.194-1.209C20.274,55.332,20.702,55,21.651,55c0.95,0,1.378,0.332,1.971,0.791    C24.318,56.329,25.184,57,26.817,57c1.634,0,2.5-0.671,3.196-1.209C30.606,55.332,31.034,55,31.984,55s1.378,0.332,1.971,0.791    C34.651,56.329,35.517,57,37.151,57s2.5-0.671,3.196-1.209C40.94,55.332,41.369,55,42.319,55c0.949,0,1.377,0.332,1.97,0.791    C44.985,56.329,45.851,57,47.484,57c1.634,0,2.5-0.67,3.197-1.209C51.274,55.332,51.703,55,52.654,55    c0.952,0,1.381,0.332,1.975,0.791C55.325,56.33,56.192,57,57.827,57c1.635,0,2.502-0.67,3.199-1.209    C61.619,55.332,62.048,55,63,55v-2c-1.635,0-2.501,0.67-3.198,1.209C59.208,54.668,58.779,55,57.827,55z"/>
		<path d="M47.854,31c-0.118-0.572-0.301-1.13-0.562-1.652L47,28.764V16.34V16v-0.02c0-1.215-0.733-2.259-1.778-2.722    C46.319,12.17,47,10.664,47,9V7c0-3.309-2.691-6-6-6s-6,2.691-6,6v2c0,1.996,0.983,3.762,2.487,4.854    c-0.841,1.942-1.338,4.034-1.458,6.146H30c-0.771,0-1.468,0.301-2,0.78c-0.532-0.48-1.229-0.78-2-0.78h-6.414l-4.598,4.598    C14.552,24.222,13.992,24,13.414,24h-0.828c-0.635,0-1.257,0.258-1.707,0.707l-3.171,3.171C7.258,28.327,7,28.949,7,29.586    c0,0.42,0.117,0.808,0.306,1.153C3.436,32.957,1,37.079,1,41.616v2.696l2.247,3.246C2.69,47.246,1.986,47,1,47v2    c0.948,0,1.375,0.331,1.967,0.79C3.663,50.329,4.528,51,6.16,51c1.633,0,2.499-0.671,3.195-1.209    C9.948,49.332,10.375,49,11.325,49c0.948,0,1.376,0.332,1.969,0.79c0.695,0.539,1.561,1.21,3.193,1.21s2.499-0.671,3.194-1.209    C20.274,49.332,20.702,49,21.651,49c0.95,0,1.378,0.332,1.971,0.791C24.318,50.329,25.184,51,26.817,51    c1.634,0,2.5-0.671,3.196-1.209C30.606,49.332,31.034,49,31.984,49s1.378,0.332,1.971,0.791C34.651,50.329,35.517,51,37.151,51    s2.5-0.671,3.196-1.209C40.94,49.332,41.369,49,42.319,49c0.949,0,1.377,0.332,1.97,0.791C44.985,50.329,45.851,51,47.484,51    c1.634,0,2.5-0.67,3.197-1.209C51.274,49.332,51.703,49,52.654,49c0.952,0,1.381,0.332,1.975,0.791    C55.325,50.33,56.192,51,57.827,51c1.635,0,2.502-0.67,3.199-1.209C61.619,49.332,62.048,49,63,49v-2    c-1.609,0-2.473,0.648-3.164,1.183L63,42.25v-5.868L52.236,31H47.854z M38.553,41H58v-0.043l2.651,1.446L60.333,43H35v-0.36    L38.553,41z M42.886,39l1.217-0.562c0.764-0.353,1.43-0.851,1.996-1.438h4.647l3.667,2H42.886z M37,28v-2h3.5l4.5-6v8H37z     M28.096,37.279c-0.061,0.076-0.105,0.162-0.161,0.241l-3.456-3.456C25.453,33.376,26.611,33,27.829,33h3.691L28.096,37.279z     M33.119,31h-5.291c-1.753,0-3.414,0.579-4.778,1.636L19.414,29l3-3H26c0.771,0,1.468-0.301,2-0.78c0.532,0.48,1.229,0.78,2,0.78    h5v2.649L33.119,31z M37,7c0-2.206,1.794-4,4-4s4,1.794,4,4v2c0,2.206-1.794,4-4,4s-4-1.794-4-4V7z M41,15    c0.02,0,0.039-0.003,0.059-0.003l-2.944,4.122c0.18-1.504,0.597-2.973,1.19-4.366C39.843,14.911,40.411,15,41,15z M30,22h8.515    l4.707-6.59C43.405,15.153,43.703,15,44.02,15C44.56,15,45,15.439,45,15.98V16v0.34c0,0.211-0.07,0.42-0.196,0.589L39.5,24H37h-2    h-5c-0.551,0-1-0.448-1-1S29.449,22,30,22z M20.414,22H26c0.551,0,1,0.448,1,1s-0.449,1-1,1h-4.414L18,27.586L16.414,26L20.414,22    z M9.121,29.293l3.171-3.171C12.37,26.044,12.477,26,12.586,26h0.828c0.109,0,0.216,0.044,0.293,0.121L17.586,30H9.414    C9.186,30,9,29.814,9,29.586C9,29.477,9.044,29.37,9.121,29.293z M9.256,31.984C9.31,31.988,9.36,32,9.414,32h10.172l7,7H23v2h4v2    H3v-1.384C3,41.409,3.011,41.205,3.023,41H21v-2H3.335C4.122,35.921,6.27,33.315,9.256,31.984z M24.847,48.209    C24.151,47.671,23.285,47,21.651,47c-1.633,0-2.499,0.671-3.194,1.209C17.864,48.668,17.436,49,16.487,49    c-0.948,0-1.376-0.332-1.969-0.79C13.823,47.671,12.958,47,11.325,47s-2.499,0.671-3.194,1.209    c-0.478,0.37-0.862,0.647-1.484,0.745L3.909,45H27v3.983C26.936,48.986,26.887,49,26.817,49    C25.868,49,25.439,48.668,24.847,48.209z M29,48.047v-7.644c0-0.679,0.233-1.345,0.657-1.874L36.48,30h8.901l0.121,0.242    C45.828,30.893,46,31.62,46,32.348c0,1.83-1.074,3.508-2.735,4.274L33,41.36v5.741C32.696,47.039,32.363,47,31.984,47    C30.51,47,29.663,47.545,29,48.047z M52.654,47c-1.634,0-2.5,0.67-3.197,1.209C48.863,48.668,48.435,49,47.484,49    c-0.949,0-1.377-0.332-1.97-0.791C44.818,47.671,43.952,47,42.319,47c-1.634,0-2.5,0.671-3.196,1.209    C38.53,48.668,38.101,49,37.151,49c-0.95,0-1.378-0.332-1.971-0.791c-0.058-0.045-0.119-0.091-0.18-0.137V45h24.267l-2.096,3.931    c-0.531-0.119-0.882-0.385-1.318-0.722C55.155,47.67,54.289,47,52.654,47z M61,40.315L51.255,35h-3.814    c0.272-0.63,0.443-1.303,0.511-2h3.812L61,37.618V40.315z"/>
		<rect x="49" y="12" width="6" height="2"/>
		<rect x="57" y="12" width="2" height="2"/>
		<rect x="51" y="16" width="8" height="2"/>
		<rect x="61" y="16" width="2" height="2"/>
		<rect x="7" y="5" width="12" height="2"/>
		<rect x="21" y="5" width="2" height="2"/>
		<rect x="1" y="1" width="12" height="2"/>
		<rect x="15" y="1" width="2" height="2"/>
		<rect x="9" y="9" width="14" height="2"/>
		<rect x="25" y="9" width="2" height="2"/>
	</g>
</g>
</svg>
