<?xml version="1.0" encoding="iso-8859-1"?>
<!-- Generator: Adobe Illustrator 22.1.0, SVG Export Plug-In . SVG Version: 6.00 Build 0)  -->
<svg xmlns="http://www.w3.org/2000/svg" xmlns:xlink="http://www.w3.org/1999/xlink" version="1.1" id="Layer_1_1_" x="0px" y="0px" viewBox="0 0 64 64" style="enable-background:new 0 0 64 64;" xml:space="preserve" width="512" height="512">
<g>
	<g>
		<path style="fill:#AAB2BD;" d="M50,26.44V37l-0.42-1.26C48.55,32.65,46.6,29.95,44,28v-0.74c0-0.84-0.1-1.67-0.31-2.48L42,18    c1.89-2.52,3.23-5.43,3.89-8.51c1.24,1.86,2.1,3.98,2.51,6.3l1.35,7.79C49.92,24.53,50,25.48,50,26.44z"/>
		<path style="fill:#AAB2BD;" d="M20,28c-2.6,1.95-4.55,4.65-5.58,7.74L14,37V26.44c0-0.96,0.08-1.91,0.25-2.86l1.35-7.79    c0.41-2.32,1.27-4.44,2.51-6.3c0.66,3.08,2,5.99,3.89,8.51l-1.69,6.78C20.1,25.59,20,26.42,20,27.26V28z"/>
		<path style="fill:#FF826E;" d="M50,37v7c0,9.94-8.06,18-18,18s-18-8.06-18-18v-7l0.42-1.26C15.45,32.65,17.4,29.95,20,28v10v2    c0,4.37,2.34,8.2,5.83,10.28c0.97,0.6,2.04,1.05,3.17,1.34V53c0,0.55,0.45,1,1,1h4c0.55,0,1-0.45,1-1v-1.38    c1.13-0.29,2.2-0.74,3.17-1.34C41.66,48.2,44,44.37,44,40v-2V28c2.6,1.95,4.55,4.65,5.58,7.74L50,37z"/>
		<path style="fill:#838F9B;" d="M42.71,5.91c1.23,1.03,2.3,2.23,3.18,3.58c-0.66,3.08-2,5.99-3.89,8.51l-0.06-0.24    c-0.36-1.42-1-2.71-1.87-3.81C38.19,11.52,35.24,10,32,10c-2.35,0-4.55,0.8-6.3,2.17c-0.66,0.52-1.26,1.11-1.77,1.78    c-0.87,1.1-1.51,2.39-1.87,3.81L22,18c-1.89-2.52-3.23-5.43-3.89-8.51c2.25-3.43,5.72-5.93,9.74-6.96v0.01L29,6h6l1.21-3.46    C38.63,3.17,40.84,4.34,42.71,5.91z"/>
		<path style="fill:#FCD770;" d="M36.21,2.54L35,6h-6l-1.15-3.46V2.53C29.18,2.18,30.57,2,32,2C33.45,2,34.86,2.19,36.21,2.54z"/>
		<path style="fill:#AAB2BD;" d="M40.07,13.95L40,14l-0.62,1.24C38.55,16.9,36.86,17.97,35,18c-0.03,0-0.06,0-0.09,0h-5.82    c-0.03,0-0.06,0-0.09,0c-1.86-0.03-3.55-1.1-4.38-2.76L24,14l-0.07-0.05c0.51-0.67,1.11-1.26,1.77-1.78C27.45,10.8,29.65,10,32,10    C35.24,10,38.19,11.52,40.07,13.95z"/>
		<path style="fill:#E6E9ED;" d="M40.07,13.95c0.87,1.1,1.51,2.39,1.87,3.81L42,18l1.69,6.78C43.9,25.59,44,26.42,44,27.26V28v10    c0-0.83-0.34-1.58-0.88-2.12C42.58,35.34,41.83,35,41,35c-1.66,0-3,1.34-3,3c0-0.83-0.34-1.58-0.88-2.12    C36.58,35.34,35.83,35,35,35v-8v-2v-7c1.86-0.03,3.55-1.1,4.38-2.76L40,14L40.07,13.95z"/>
		<path style="fill:#E6E9ED;" d="M22.06,17.76c0.36-1.42,1-2.71,1.87-3.81L24,14l0.62,1.24C25.45,16.9,27.14,17.97,29,18v7v2v8    c-1.66,0-3,1.34-3,3c0-0.83-0.34-1.58-0.88-2.12C24.58,35.34,23.83,35,23,35c-1.66,0-3,1.34-3,3V28v-0.74    c0-0.84,0.1-1.67,0.31-2.48L22,18L22.06,17.76z"/>
		<path style="fill:#969FAA;" d="M31.12,35.88C30.58,35.34,29.83,35,29,35V18c0.03,0,0.06,0,0.09,0h5.82c0.03,0,0.06,0,0.09,0v17    c-1.66,0-3,1.34-3,3C32,37.17,31.66,36.42,31.12,35.88z"/>
		<path style="fill:#FFEAA7;" d="M43.12,35.88C42.58,35.34,41.83,35,41,35c-1.66,0-3,1.34-3,3c0-0.83-0.34-1.58-0.88-2.12    C36.58,35.34,35.83,35,35,35c-1.66,0-3,1.34-3,3c0-0.83-0.34-1.58-0.88-2.12C30.58,35.34,29.83,35,29,35c-1.66,0-3,1.34-3,3    c0-0.83-0.34-1.58-0.88-2.12C24.58,35.34,23.83,35,23,35c-1.66,0-3,1.34-3,3v2c0,4.37,2.34,8.2,5.83,10.28    c0.97,0.6,2.04,1.05,3.17,1.34V51c0-0.55,0.45-1,1-1h2h2c0.55,0,1,0.45,1,1v0.62c1.13-0.29,2.2-0.74,3.17-1.34    C41.66,48.2,44,44.37,44,40v-2C44,37.17,43.66,36.42,43.12,35.88z"/>
		<path style="fill:#FCD770;" d="M35,51.62V53c0,0.55-0.45,1-1,1h-4c-0.55,0-1-0.45-1-1v-1.38V51c0-0.55,0.45-1,1-1h2h2    c0.55,0,1,0.45,1,1V51.62z"/>
		<path style="fill:#CF9E76;" d="M59,4v36h-4V4c0-0.55,0.22-1.05,0.59-1.41C55.95,2.22,56.45,2,57,2C58.1,2,59,2.9,59,4z"/>
		<path style="fill:#CF9E76;" d="M9,4v36H5V4c0-0.55,0.22-1.05,0.59-1.41C5.95,2.22,6.45,2,7,2C8.1,2,9,2.9,9,4z"/>
		<rect x="55" y="40" style="fill:#FCD770;" width="4" height="4"/>
		<rect x="5" y="40" style="fill:#FCD770;" width="4" height="4"/>
		<path style="fill:#FCD770;" d="M57,62h-3c-1.1,0-2-0.9-2-2v-7.64c0-0.24,0.04-0.48,0.13-0.7L55,44h4l2.87,7.66    c0.09,0.22,0.13,0.46,0.13,0.7V60c0,1.1-0.9,2-2,2H57z"/>
		<path style="fill:#FCD770;" d="M7,62H4c-1.1,0-2-0.9-2-2v-7.64c0-0.24,0.04-0.48,0.13-0.7L5,44h4l2.87,7.66    c0.09,0.22,0.13,0.46,0.13,0.7V60c0,1.1-0.9,2-2,2H7z"/>
	</g>
	<g>
		<path d="M51,26.437c0-1.012-0.088-2.03-0.261-3.023l-1.355-7.792c-0.401-2.308-1.248-4.435-2.424-6.321    c0-0.002,0.001-0.004,0.002-0.007l0.02-0.097l-0.1-0.02C43.726,4.211,38.205,1,32,1c-6.254,0-11.813,3.26-14.954,8.292    l-0.007,0.002c0,0.002,0.001,0.004,0.002,0.007c-1.176,1.886-2.023,4.013-2.424,6.321l-1.355,7.792    C13.088,24.407,13,25.424,13,26.437V44c0,10.477,8.523,19,19,19s19-8.523,19-19V26.437z M47.413,15.964l1.355,7.792    C48.922,24.637,49,25.539,49,26.437v5.661c-1.039-1.746-2.39-3.288-4-4.573v-0.263c0-0.919-0.113-1.837-0.336-2.728l-1.583-6.332    c1.336-1.864,2.393-3.933,3.125-6.11C46.762,13.302,47.175,14.598,47.413,15.964z M35.865,50.295C35.579,49.54,34.854,49,34,49h-1    v-5h-2v5h-1c-0.854,0-1.579,0.54-1.865,1.295c-0.391-0.146-0.768-0.315-1.135-0.501V38c0-1.103,0.897-2,2-2s2,0.897,2,2v4h2v-4    c0-1.103,0.897-2,2-2s2,0.897,2,2v11.794C36.634,49.981,36.256,50.149,35.865,50.295z M34,51l0.001,2H30v-2H34z M21.275,25.019    l1.754-7.015c0.188-0.75,0.465-1.457,0.816-2.115c0.878,1.597,2.397,2.679,4.155,3V25h2v-6h4v6h2v-6.11    c1.758-0.321,3.277-1.404,4.155-3c0.351,0.658,0.628,1.365,0.816,2.115l1.754,7.015C42.907,25.751,43,26.505,43,27.261v7.295    C42.409,34.212,41.732,34,41,34c-1.201,0-2.266,0.542-3,1.382c-0.521-0.597-1.21-1.035-2-1.24V27h-2v7.142    c-0.79,0.205-1.479,0.643-2,1.24c-0.521-0.597-1.21-1.035-2-1.24V27h-2v7.142c-0.79,0.205-1.479,0.643-2,1.24    C25.266,34.542,24.201,34,23,34c-0.732,0-1.409,0.212-2,0.556v-7.295C21,26.505,21.093,25.751,21.275,25.019z M34.91,17h-5.82    c-1.524,0-2.896-0.847-3.577-2.211l-0.372-0.744C26.85,12.155,29.312,11,32,11s5.15,1.155,6.859,3.045l-0.372,0.744    C37.806,16.153,36.435,17,34.91,17z M21,38c0-1.103,0.897-2,2-2s2,0.897,2,2v10.483c-2.47-2.04-4-5.115-4-8.483V38z M39,38    c0-1.103,0.897-2,2-2s2,0.897,2,2v2c0,3.368-1.53,6.442-4,8.483V38z M34.859,3.263L34.279,5h-4.559l-0.579-1.737    C30.07,3.092,31.025,3,32,3C32.975,3,33.93,3.092,34.859,3.263z M27.201,3.763L28.279,7h7.441l1.079-3.236    c3.262,1.048,6.08,3.127,8.024,5.909c-0.514,2.138-1.367,4.2-2.514,6.079C40.548,11.7,36.538,9,32,9s-8.548,2.7-10.309,6.751    c-1.147-1.879-2.001-3.941-2.514-6.08C21.121,6.89,23.938,4.811,27.201,3.763z M15.231,23.756l1.355-7.792    c0.238-1.367,0.651-2.663,1.207-3.873c0.732,2.177,1.79,4.247,3.125,6.111l-1.583,6.332C19.113,25.424,19,26.342,19,27.261v0.263    c-1.61,1.284-2.961,2.827-4,4.573v-5.661C15,25.539,15.078,24.637,15.231,23.756z M32,61c-9.374,0-17-7.626-17-17v-6.839    l0.367-1.102c0.744-2.233,1.987-4.227,3.633-5.868V40c0,5.672,3.665,10.642,9,12.363V53c0,1.103,0.897,2,2,2h4    c1.103,0,2-0.897,2-2v-0.637c5.335-1.721,9-6.691,9-12.363v-9.808c1.645,1.641,2.888,3.635,3.633,5.868L49,37.161V44    C49,53.374,41.374,61,32,61z"/>
		<path d="M10,43.818V4c0-1.654-1.346-3-3-3S4,2.346,4,4v39.818L1.19,51.31C1.064,51.647,1,52.002,1,52.363V60c0,1.654,1.346,3,3,3    h6c1.654,0,3-1.346,3-3v-7.637c0-0.361-0.064-0.715-0.19-1.054L10,43.818z M8,43H6v-2h2V43z M7,3c0.552,0,1,0.449,1,1v35H6V4    C6,3.449,6.448,3,7,3z M11,60c0,0.551-0.448,1-1,1H8V51H6v10H4c-0.552,0-1-0.449-1-1v-7.637c0-0.121,0.021-0.24,0.063-0.352    L5.693,45h2.613l2.63,7.01C10.979,52.123,11,52.242,11,52.363V60z"/>
		<path d="M62.81,51.309L60,43.818V4c0-1.654-1.346-3-3-3s-3,1.346-3,3v39.818l-2.81,7.492C51.064,51.647,51,52.002,51,52.363V60    c0,1.654,1.346,3,3,3h6c1.654,0,3-1.346,3-3v-7.637C63,52.002,62.936,51.647,62.81,51.309z M58,43h-2v-2h2V43z M57,3    c0.552,0,1,0.449,1,1v35h-2V4C56,3.449,56.448,3,57,3z M61,60c0,0.551-0.448,1-1,1h-2V51h-2v10h-2c-0.552,0-1-0.449-1-1v-7.637    c0-0.121,0.021-0.24,0.063-0.352L55.693,45h2.613l2.63,7.01C60.979,52.123,61,52.242,61,52.363V60z"/>
	</g>
</g>
</svg>
