<?xml version="1.0" encoding="iso-8859-1"?>
<!-- Generator: Adobe Illustrator 22.1.0, SVG Export Plug-In . SVG Version: 6.00 Build 0)  -->
<svg xmlns="http://www.w3.org/2000/svg" xmlns:xlink="http://www.w3.org/1999/xlink" version="1.1" id="Layer_1_1_" x="0px" y="0px" viewBox="0 0 64 64" style="enable-background:new 0 0 64 64;" xml:space="preserve" width="512" height="512">
<g>
	<g>
		<path style="fill:#CF9E76;" d="M39,38.99C38.84,39,38.69,39,38.53,39h-0.39c-2.33,0-4.54-0.94-6.14-2.58    c-0.2-0.21-0.4-0.42-0.58-0.65c-0.55-0.69-1.2-1.28-1.93-1.77c-0.45,0.61-1.17,1-1.99,1H25v27h7h7V39h0.05c0,0,0-0.01,0-0.02    L39,38.99z"/>
		<path style="fill:#F0D0B4;" d="M44,38.19v0.31c0,1.38-1.12,2.5-2.5,2.5c-1.21,0-2.22-0.86-2.45-2c0,0,0-0.01,0-0.02    C39.02,38.83,39,38.67,39,38.5v-3c0-1.38,1.12-2.5,2.5-2.5c0.69,0,1.32,0.28,1.77,0.73S44,34.81,44,35.5V38.19z"/>
		<path style="fill:#B4DD7F;" d="M40.87,17.3l-0.41-0.09L39,20.5v0.01l-1.73,3.89c-0.18,0.4-0.43,0.76-0.73,1.06    c-0.36,0.36-0.78,0.63-1.25,0.81l-2,1.02l1.46,1.46c1.16,1.16,2.65,1.91,4.25,2.15c0.39,0.07,0.78,0.1,1.18,0.1    c1.2,0,2.38-0.28,3.44-0.81L44,30v-8.79C44,19.33,42.7,17.71,40.87,17.3z"/>
		<path style="fill:#B4DD7F;" d="M36.8,16.4L34,22l-3.76,1.88C28.77,24.62,27.14,25,25.5,25c-0.69,0-1.32,0.28-1.77,0.73    c-0.11,0.11-0.21,0.24-0.3,0.37l-0.55-0.22c0.69-0.7,1.12-1.66,1.12-2.71c0-1.35-0.71-2.59-1.86-3.29L20.67,19    c0.55-0.84,1.42-1.46,2.46-1.7L29,16l3,3l3-3L36.8,16.4z"/>
		<path style="fill:#F0D0B4;" d="M20.17,27c1.05,0,2.01-0.43,2.71-1.12l0.55,0.22C23.02,27.16,23,27.33,23,27.5    c0,0.69,0.28,1.32,0.73,1.77c0.08,0.08,0.17,0.16,0.27,0.23V30h1.5h2c0.69,0,1.32,0.28,1.77,0.73C29.72,31.18,30,31.81,30,32.5    c0,0.56-0.19,1.09-0.51,1.5c-0.45,0.61-1.17,1-1.99,1H25h-4c-1.1,0-2-0.9-2-2v-6l0.04-0.14c0.33,0.09,0.68,0.14,1.02,0.14H20.17z"/>
		<path style="fill:#F0D0B4;" d="M39,38.5c0,0.17,0.02,0.33,0.05,0.48L39,38.99C38.84,39,38.69,39,38.53,39h-0.39    c-2.33,0-4.54-0.94-6.14-2.58c-0.2-0.21-0.4-0.42-0.58-0.65c-0.55-0.69-1.2-1.28-1.93-1.77c0.32-0.41,0.51-0.94,0.51-1.5    c0-0.69-0.28-1.32-0.73-1.77C28.82,30.28,28.19,30,27.5,30h-2c1.64,0,3.26-0.39,4.73-1.14l3.06-1.57l1.46,1.46    c1.16,1.16,2.65,1.91,4.25,2.15c0.39,0.07,0.78,0.1,1.18,0.1c1.2,0,2.38-0.28,3.44-0.81L44,30l1.52-0.76    c0.31-0.16,0.66-0.24,1.02-0.24c0.89,0,1.7,0.52,2.07,1.33l5.21,11.28c0.12,0.25,0.32,0.46,0.57,0.58l2.93,1.47    c0.42,0.21,0.68,0.64,0.68,1.1c0,0.69-0.55,1.24-1.24,1.24h-4.92c-0.51,0-0.96-0.31-1.15-0.78L47,37c-0.97,0.48-1.97,0.88-3,1.19    V35.5c0-0.69-0.28-1.32-0.73-1.77S42.19,33,41.5,33c-1.38,0-2.5,1.12-2.5,2.5V38.5z"/>
		<path style="fill:#F0D0B4;" d="M40.46,17.21L39,20.5v0.01l-1.73,3.89c-0.18,0.4-0.43,0.76-0.73,1.06    c-0.36,0.36-0.78,0.63-1.25,0.81l-2,1.02l-3.06,1.57C28.76,29.61,27.14,30,25.5,30c-0.56,0-1.09-0.19-1.5-0.5    c-0.1-0.07-0.19-0.15-0.27-0.23C23.28,28.82,23,28.19,23,27.5c0-0.17,0.02-0.34,0.43-1.4c0.09-0.13,0.19-0.26,0.3-0.37    C24.18,25.28,24.81,25,25.5,25c1.64,0,3.27-0.38,4.74-1.12L34,22l2.8-5.6l0.74-1.49c0.28-0.56,0.85-0.91,1.48-0.91h0.33    c0.91,0,1.65,0.74,1.65,1.65c0,0.23-0.05,0.46-0.14,0.67L40.46,17.21z"/>
		<path style="fill:#F0D0B4;" d="M20.67,19l1.47,0.88c1.15,0.7,1.86,1.94,1.86,3.29c0,1.05-0.43,2.01-1.12,2.71    c-0.7,0.69-1.66,1.12-2.71,1.12h-0.11c-0.34,0-0.69-0.05-1.02-0.14c-0.33-0.09-0.65-0.23-0.95-0.41l-2.23-1.33    c-1.15-0.7-1.86-1.94-1.86-3.29c0-1.05,0.43-2.01,1.12-2.71c0.7-0.69,1.66-1.12,2.71-1.12h0.11c0.69,0,1.37,0.19,1.97,0.55    L20.67,19z"/>
		<path style="fill:#F0D0B4;" d="M35,13v3l-3,3l-3-3v-3c0.83,0.63,1.87,1,3,1C33.13,14,34.17,13.63,35,13z"/>
		<path style="fill:#F0D0B4;" d="M37,7v2c0,1.63-0.79,3.09-2,4c-0.83,0.63-1.87,1-3,1c-1.13,0-2.17-0.37-3-1c-1.21-0.91-2-2.37-2-4    V7c0-2.76,2.24-5,5-5c1.38,0,2.63,0.56,3.54,1.46C36.44,4.37,37,5.62,37,7z"/>
	</g>
	<path d="M57.764,42.764l-2.929-1.464c-0.048-0.024-0.086-0.063-0.108-0.112l-5.207-11.28C48.985,28.749,47.815,28,46.539,28   c-0.507,0-1.015,0.12-1.468,0.347L45,28.382v-7.174c0-2.098-1.274-3.91-3.174-4.649C41.933,16.267,42,15.964,42,15.65   c0-1.461-1.189-2.65-2.65-2.65H39.02c-1.01,0-1.918,0.561-2.37,1.465l-0.395,0.79L36,15.198V13.46c1.224-1.099,2-2.688,2-4.46V7   c0-3.309-2.691-6-6-6s-6,2.691-6,6v2c0,1.771,0.776,3.36,2,4.46v1.738l-5.085,1.13c-0.951,0.212-1.805,0.688-2.476,1.37   l-0.015-0.009C19.674,17.238,18.815,17,17.939,17h-0.108C15.167,17,13,19.167,13,21.831c0,1.687,0.898,3.274,2.346,4.143   l2.23,1.338c0.137,0.082,0.281,0.149,0.424,0.217V33c0,1.654,1.346,3,3,3h3v27h16V41.649C40.456,41.867,40.961,42,41.5,42   c1.784,0,3.244-1.347,3.457-3.074c0.522-0.178,1.04-0.37,1.547-0.591l3.257,7.26C50.103,46.449,50.917,47,51.837,47h4.927   C57.997,47,59,45.997,59,44.764C59,43.912,58.526,43.146,57.764,42.764z M43,21.208v8.161C42.121,29.777,41.154,30,40.185,30   c-0.062,0-0.123-0.007-0.185-0.009v-9.279l1.028-2.314C42.205,18.825,43,19.926,43,21.208z M38,29.629   c-0.946-0.326-1.816-0.859-2.545-1.588l-0.487-0.487l0.727-0.372c0.584-0.228,1.105-0.569,1.55-1.014   c0.306-0.306,0.549-0.661,0.754-1.039V29.629z M39.02,15h0.331c0.358,0,0.65,0.292,0.65,0.65c0,0.092-0.019,0.18-0.056,0.264   l-3.593,8.083c-0.125,0.284-0.301,0.538-0.52,0.757c-0.256,0.256-0.557,0.45-0.896,0.577l-5.167,2.639   C28.454,28.644,26.978,29,25.5,29c-0.827,0-1.5-0.673-1.5-1.5s0.673-1.5,1.5-1.5c1.79,0,3.583-0.423,5.184-1.224l4.062-2.031   l3.693-7.385C38.549,15.138,38.772,15,39.02,15z M28,7c0-2.206,1.794-4,4-4s4,1.794,4,4v2c0,2.206-1.794,4-4,4s-4-1.794-4-4V7z    M32,15c0.702,0,1.373-0.128,2-0.35v0.936l-2,2l-2-2V14.65C30.627,14.872,31.298,15,32,15z M23.349,18.28l5.332-1.185L32,20.414   l3.319-3.319l0.014,0.003l-2.078,4.157l-3.466,1.732C28.464,23.65,26.981,24,25.5,24c-0.202,0-0.397,0.027-0.59,0.06   C24.964,23.77,25,23.474,25,23.169c0-1.687-0.898-3.274-2.346-4.143l-0.409-0.245C22.573,18.544,22.945,18.37,23.349,18.28z    M16.375,24.259C15.527,23.75,15,22.82,15,21.831C15,20.27,16.27,19,17.831,19h0.108c0.513,0,1.017,0.14,1.456,0.403l2.23,1.338   C22.473,21.25,23,22.18,23,23.169C23,24.73,21.73,26,20.169,26h-0.108c-0.513,0-1.017-0.14-1.457-0.403L16.375,24.259z M21,34   c-0.551,0-1-0.449-1-1v-5.004c0.02,0,0.041,0.004,0.061,0.004h0.108c0.653,0,1.275-0.133,1.844-0.37   c0.034,0.897,0.399,1.71,0.987,2.311V31h4.5c0,0,0,0,0,0c0.4,0,0.777,0.156,1.06,0.439C28.844,31.723,29,32.099,29,32.5   c0,0.827-0.673,1.5-1.5,1.5H26h-2H21z M26,36h1.5c0.77,0,1.476-0.258,2.055-0.68c0.391,0.326,0.762,0.676,1.082,1.076   c0.114,0.143,0.242,0.271,0.364,0.406V61h-5V36z M33,61V38.514c1.478,0.938,3.199,1.454,5,1.479V61H33z M43,38.5   c0,0.827-0.673,1.5-1.5,1.5S40,39.327,40,38.5v-3c0-0.827,0.673-1.5,1.5-1.5s1.5,0.673,1.5,1.5V38.5z M56.764,45h-4.927   c-0.097,0-0.184-0.059-0.235-0.186l-4.116-9.175l-0.933,0.466c-0.504,0.252-1.025,0.475-1.553,0.68V35.5c0-1.93-1.57-3.5-3.5-3.5   S38,33.57,38,35.5v2.492c-2.271-0.04-4.379-1.068-5.802-2.846c-0.422-0.527-0.914-0.987-1.434-1.412   C30.91,33.349,31,32.936,31,32.5c0-0.924-0.358-1.791-1.004-2.449c0.229-0.099,0.463-0.187,0.685-0.301l2.417-1.238l0.943,0.943   C35.682,31.096,37.864,32,40.185,32c1.341,0,2.685-0.317,3.886-0.917l1.895-0.948c0.62-0.312,1.445-0.022,1.739,0.61l5.206,11.28   c0.212,0.459,0.578,0.837,1.03,1.063l2.929,1.464c0.08,0.04,0.131,0.123,0.131,0.211C57,44.894,56.894,45,56.764,45z"/>
</g>
</svg>
