<?xml version="1.0" encoding="iso-8859-1"?>
<!-- Generator: Adobe Illustrator 22.1.0, SVG Export Plug-In . SVG Version: 6.00 Build 0)  -->
<svg xmlns="http://www.w3.org/2000/svg" xmlns:xlink="http://www.w3.org/1999/xlink" version="1.1" id="Layer_1_1_" x="0px" y="0px" viewBox="0 0 64 64" style="enable-background:new 0 0 64 64;" xml:space="preserve" width="512" height="512">
<g>
	<g>
		<polygon style="fill:#FCD770;" points="42,12 40,12 24,12 22,12 32,3   "/>
		<polygon style="fill:#AAB2BD;" points="40,12 40,22 38,22 35,22 35,16 29,16 29,22 26,22 24,22 24,12   "/>
		<path style="fill:#FF826E;" d="M45,27v4c0,0.55-0.45,1-1,1h-2h-5H27h-5h-2c-0.55,0-1-0.45-1-1v-4c0-0.55,0.45-1,1-1h2h4h4h4h4h4h2    C44.55,26,45,26.45,45,27z"/>
		<polygon style="fill:#E6E9ED;" points="37,32 35,38 29,38 27,32   "/>
		<polygon style="fill:#CCD1D9;" points="42,32 40,38 35,38 37,32   "/>
		<polygon style="fill:#CCD1D9;" points="27,32 29,38 24,38 22,32   "/>
		<path style="fill:#E6E9ED;" d="M40,38v24h-5V52h-6v10h-5V38h5h6H40z"/>
		<polygon style="fill:#E6E9ED;" points="40,22 38,22 35,22 34,22 30,22 29,22 26,22 24,22 22,22 22,26 26,26 30,26 34,26 38,26     42,26 42,22   "/>
		<polygon style="fill:#E6E9ED;" points="35,16 35,22 34,22 30,22 29,22 29,16   "/>
		<rect x="29" y="52" style="fill:#969FAA;" width="6" height="10"/>
		<rect x="30" y="42" style="fill:#69D6F4;" width="4" height="6"/>
	</g>
	<g>
		<path d="M41,38.162L42.72,33H44c1.103,0,2-0.897,2-2v-4c0-1.103-0.897-2-2-2h-1v-4h-2v-8h3.606L32,1.654L19.394,13H23v8h-2v4h-1    c-1.103,0-2,0.897-2,2v4c0,1.103,0.897,2,2,2h1.28L23,38.162V61H5v2h18h18h18v-2H41V38.162z M39.279,37h-2.892l1.333-4h2.892    L39.279,37z M29.72,37l-1.333-4h7.226l-1.333,4H29.72z M39,25v-2h2v2H39z M29,23v2h-2v-2H29z M34,21h-4v-4h4V21z M31,23h2v2h-2V23    z M35,23h2v2h-2V23z M32,4.346L39.395,11H24.605L32,4.346z M25,13h14v8h-3v-6h-8v6h-3V13z M23,23h2v2h-2V23z M20,27h24l0.002,4H20    V27z M26.28,33l1.333,4h-2.892l-1.334-4H26.28z M34,61h-4v-8h4V61z M36,61V51h-8v10h-3V39h14v22H36z"/>
		<path d="M29,49h6v-8h-6V49z M31,43h2v4h-2V43z"/>
		<rect x="2.833" y="0.995" transform="matrix(0.3328 -0.943 0.943 0.3328 -1.2143 6.2838)" width="2.001" height="6.01"/>
		<rect x="12.5" y="2.64" transform="matrix(0.3328 -0.943 0.943 0.3328 2.0175 17.6749)" width="2.001" height="9.544"/>
		<rect x="0.819" y="20.941" transform="matrix(0.943 -0.3329 0.3329 0.943 -7.0756 2.5828)" width="6.363" height="2.001"/>
		<rect x="8.728" y="17.588" transform="matrix(0.943 -0.3329 0.3329 0.943 -5.4177 5.5538)" width="9.544" height="2.001"/>
		<rect x="1" y="12" width="17" height="2"/>
		<rect x="57.162" y="3" transform="matrix(0.943 -0.3329 0.3329 0.943 2.0997 20.2558)" width="6.01" height="2.001"/>
		<rect x="45.728" y="6.411" transform="matrix(0.943 -0.3329 0.3329 0.943 0.4128 17.2327)" width="9.544" height="2.001"/>
		<rect x="59" y="18.76" transform="matrix(0.3328 -0.943 0.943 0.3328 19.3436 71.2211)" width="2.001" height="6.363"/>
		<rect x="49.5" y="13.816" transform="matrix(0.3328 -0.943 0.943 0.3328 16.1627 60.0218)" width="2.001" height="9.544"/>
		<rect x="46" y="12" width="17" height="2"/>
		<rect x="61" y="61" width="2" height="2"/>
		<rect x="1" y="61" width="2" height="2"/>
	</g>
</g>
</svg>
