<?xml version="1.0" encoding="iso-8859-1"?>
<!-- Generator: Adobe Illustrator 22.1.0, SVG Export Plug-In . SVG Version: 6.00 Build 0)  -->
<svg xmlns="http://www.w3.org/2000/svg" xmlns:xlink="http://www.w3.org/1999/xlink" version="1.1" id="Layer_1_1_" x="0px" y="0px" viewBox="0 0 64 64" style="enable-background:new 0 0 64 64;" xml:space="preserve" width="512" height="512">
<g>
	<g>
		<path style="fill:#69D6F4;" d="M57.83,56c-2.59,0-2.59-2-5.18-2c-2.4,0-2.57,1.73-4.66,1.97C47.83,55.99,47.66,56,47.48,56    c-2.58,0-2.58-2-5.16-2c-2.59,0-2.59,2-5.17,2c-2.58,0-2.58-2-5.17-2c-2.58,0-2.58,2-5.16,2c-2.59,0-2.59-2-5.17-2s-2.58,2-5.16,2    c-0.17,0-0.33-0.01-0.48-0.03C13.9,55.74,13.74,54,11.32,54c-2.58,0-2.58,2-5.16,2S3.58,54,1,54v9h62v-9    C60.41,54,60.41,56,57.83,56z"/>
		<rect x="30" y="4" style="fill:#CCD1D9;" width="4" height="8"/>
		<polygon style="fill:#FFEAA7;" points="38,12 38,22 34,22 34,16 30,16 30,22 26,22 26,12 30,12 34,12   "/>
		<path style="fill:#FCD770;" d="M40,23v15h-4v-4v-4v-4h-4h-4v4v4v4h-4V23c0-0.55,0.45-1,1-1h1h4h4h4h1C39.55,22,40,22.45,40,23z"/>
		<path style="fill:#CCD1D9;" d="M46,42h-4H22h-4c0-1.1,0.45-2.1,1.17-2.83C19.9,38.45,20.9,38,22,38h2h4h4h4h4h2    C44.21,38,46,39.79,46,42z"/>
		<rect x="22" y="42" style="fill:#838F9B;" width="20" height="4"/>
		<path style="fill:#CCD1D9;" d="M46.48,48.41L46.8,50H41h-2H17.2l0.32-1.59c0.28-1.4,1.51-2.41,2.94-2.41H22h20h1.54    C44.97,46,46.2,47.01,46.48,48.41z"/>
		<path style="fill:#969FAA;" d="M16.01,55.97L17.2,50H39h2h5.8l1.19,5.97C47.83,55.99,47.66,56,47.48,56c-2.58,0-2.58-2-5.16-2    c-2.59,0-2.59,2-5.17,2c-2.58,0-2.58-2-5.17-2c-2.58,0-2.58,2-5.16,2c-2.59,0-2.59-2-5.17-2s-2.58,2-5.16,2    C16.32,56,16.16,55.99,16.01,55.97z"/>
		<rect x="30" y="16" style="fill:#E6E9ED;" width="4" height="6"/>
		<rect x="32" y="26" style="fill:#69D6F4;" width="4" height="4"/>
		<rect x="28" y="30" style="fill:#69D6F4;" width="4" height="4"/>
		<rect x="32" y="34" style="fill:#69D6F4;" width="4" height="4"/>
		<rect x="32" y="30" style="fill:#69D6F4;" width="4" height="4"/>
		<rect x="28" y="26" style="fill:#69D6F4;" width="4" height="4"/>
		<rect x="28" y="34" style="fill:#69D6F4;" width="4" height="4"/>
	</g>
	<g>
		<path d="M57.827,61c-0.952,0-1.381-0.332-1.976-0.791C55.155,59.67,54.288,59,52.653,59s-2.501,0.671-3.197,1.209    C48.863,60.668,48.435,61,47.484,61c-0.949,0-1.378-0.332-1.971-0.791C44.817,59.671,43.952,59,42.318,59s-2.5,0.671-3.196,1.209    C38.529,60.668,38.101,61,37.15,61c-0.949,0-1.378-0.332-1.971-0.791C34.483,59.671,33.618,59,31.984,59s-2.5,0.671-3.196,1.209    C28.195,60.668,27.767,61,26.817,61s-1.378-0.332-1.971-0.791C24.15,59.671,23.285,59,21.651,59s-2.5,0.671-3.195,1.21    c-0.593,0.458-1.021,0.79-1.97,0.79c-0.948,0-1.375-0.331-1.968-0.79C13.823,59.671,12.958,59,11.325,59    c-1.634,0-2.5,0.671-3.195,1.21C7.537,60.668,7.109,61,6.16,61c-0.948,0-1.376-0.331-1.968-0.79C3.497,59.671,2.632,59,1,59v2    c0.948,0,1.376,0.331,1.968,0.79C3.663,62.329,4.528,63,6.16,63c1.633,0,2.499-0.671,3.194-1.209    C9.947,61.332,10.376,61,11.325,61c0.948,0,1.376,0.332,1.969,0.791C13.989,62.329,14.854,63,16.486,63    c1.633,0,2.499-0.671,3.194-1.209C20.273,61.332,20.702,61,21.651,61s1.378,0.332,1.971,0.791C24.318,62.329,25.184,63,26.817,63    c1.633,0,2.499-0.671,3.195-1.209C30.605,61.332,31.034,61,31.984,61c0.949,0,1.378,0.332,1.971,0.791    C34.651,62.329,35.517,63,37.15,63s2.5-0.671,3.196-1.209C40.939,61.332,41.368,61,42.318,61c0.949,0,1.378,0.332,1.971,0.791    C44.985,62.329,45.851,63,47.484,63s2.5-0.67,3.196-1.209C51.273,61.332,51.702,61,52.653,61c0.952,0,1.381,0.332,1.976,0.791    C55.325,62.33,56.192,63,57.827,63s2.501-0.67,3.197-1.209C61.619,61.332,62.048,61,63,61v-2c-1.635,0-2.502,0.67-3.198,1.209    C59.207,60.668,58.778,61,57.827,61z"/>
		<path d="M57.827,55c-0.952,0-1.381-0.332-1.976-0.791C55.155,53.67,54.288,53,52.653,53s-2.501,0.671-3.197,1.209    c-0.243,0.188-0.463,0.347-0.699,0.478l-1.294-6.471C47.091,46.353,45.441,45,43.541,45H43v-2h4v-1c0-2.757-2.243-5-5-5h-1V23    c0-1.103-0.897-2-2-2V11h-4V5h4v2h2V1h-2v2H25V1h-2v6h2V5h4v6h-4v10c-1.103,0-2,0.897-2,2v14h-1c-2.757,0-5,2.243-5,5v1h4v2    h-0.541c-1.9,0-3.55,1.353-3.922,3.216l-1.297,6.486c-0.244-0.133-0.47-0.297-0.721-0.491C13.823,53.671,12.958,53,11.325,53    c-1.634,0-2.5,0.671-3.195,1.21C7.537,54.668,7.109,55,6.16,55c-0.948,0-1.376-0.331-1.968-0.79C3.497,53.671,2.632,53,1,53v2    c0.948,0,1.376,0.331,1.968,0.79C3.663,56.329,4.528,57,6.16,57c1.633,0,2.499-0.671,3.194-1.209    C9.947,55.332,10.376,55,11.325,55c0.948,0,1.376,0.332,1.969,0.791C13.989,56.329,14.854,57,16.486,57    c1.633,0,2.499-0.671,3.194-1.209C20.273,55.332,20.702,55,21.651,55s1.378,0.332,1.971,0.791C24.318,56.329,25.184,57,26.817,57    c1.633,0,2.499-0.671,3.195-1.209C30.605,55.332,31.034,55,31.984,55c0.949,0,1.378,0.332,1.971,0.791    C34.651,56.329,35.517,57,37.15,57s2.5-0.671,3.196-1.209C40.939,55.332,41.368,55,42.318,55c0.949,0,1.378,0.332,1.971,0.791    C44.985,56.329,45.851,57,47.484,57s2.5-0.67,3.196-1.209C51.273,55.332,51.702,55,52.653,55c0.952,0,1.381,0.332,1.976,0.791    C55.325,56.33,56.192,57,57.827,57s2.501-0.67,3.197-1.209C61.619,55.332,62.048,55,63,55v-2c-1.635,0-2.502,0.67-3.198,1.209    C59.207,54.668,58.778,55,57.827,55z M31,5h2v6h-2V5z M27,13h10v8h-2v-6h-6v6h-2V13z M33,21h-2v-4h2V21z M25,23h14v14h-2V25H27v12    h-2V23z M35,33h-2v-2h2V33z M35,29h-2v-2h2V29z M31,29h-2v-2h2V29z M29,31h2v2h-2V31z M29,35h2v2h-2V35z M33,35h2v2h-2V35z M22,39    h20c1.304,0,2.416,0.836,2.829,2H19.171C19.584,39.836,20.696,39,22,39z M23,43h18v2H23V43z M42.318,53    c-1.634,0-2.5,0.671-3.196,1.209C38.529,54.668,38.101,55,37.15,55c-0.949,0-1.378-0.332-1.971-0.791    C34.483,53.671,33.618,53,31.984,53s-2.5,0.671-3.196,1.209C28.195,54.668,27.767,55,26.817,55s-1.378-0.332-1.971-0.791    C24.15,53.671,23.285,53,21.651,53s-2.5,0.671-3.195,1.21c-0.406,0.314-0.744,0.559-1.216,0.688L18.02,51H39v-2H18.42l0.078-0.392    C18.685,47.677,19.509,47,20.459,47h23.082c0.95,0,1.774,0.677,1.961,1.608L45.58,49H41v2h4.98l0.782,3.909    c-0.49-0.126-0.833-0.378-1.248-0.7C44.817,53.671,43.952,53,42.318,53z"/>
		<rect x="18.065" y="10.642" transform="matrix(0.3827 -0.9239 0.9239 0.3827 0.0891 25.418)" width="2" height="4"/>
		<rect x="16" y="17" width="4" height="2"/>
		<rect x="17.066" y="22.358" transform="matrix(0.9238 -0.3828 0.3828 0.9238 -7.4893 9.0777)" width="4" height="2"/>
		<rect x="43.935" y="21.358" transform="matrix(0.3827 -0.9239 0.9239 0.3827 6.1583 55.9322)" width="2" height="4"/>
		<rect x="44" y="17" width="4" height="2"/>
		<rect x="42.935" y="11.642" transform="matrix(0.9238 -0.3828 0.3828 0.9238 -1.4168 18.1645)" width="4" height="2"/>
		<path d="M6.808,41.192C4.353,38.737,3,35.473,3,32c0-3.472,1.353-6.737,3.808-9.192l-1.414-1.414C2.561,24.227,1,27.994,1,32    c0,4.007,1.561,7.773,4.394,10.606L6.808,41.192z"/>
		<path d="M8.222,39.778l1.414-1.414C7.937,36.664,7,34.404,7,32c0-2.404,0.937-4.664,2.636-6.364l-1.414-1.414    C6.145,26.3,5,29.062,5,32C5,34.938,6.145,37.701,8.222,39.778z"/>
		<path d="M11.051,36.949l1.414-1.414C11.521,34.591,11,33.336,11,32c0-1.335,0.521-2.591,1.465-3.536l-1.414-1.414    C9.729,28.373,9,30.13,9,32C9,33.87,9.729,35.628,11.051,36.949z"/>
		<path d="M57.192,41.192l1.414,1.414C61.439,39.773,63,36.007,63,32c0-4.006-1.561-7.773-4.394-10.606l-1.414,1.414    C59.647,25.263,61,28.528,61,32C61,35.473,59.647,38.737,57.192,41.192z"/>
		<path d="M54.364,38.364l1.414,1.414C57.855,37.701,59,34.938,59,32c0-2.938-1.145-5.7-3.222-7.778l-1.414,1.414    C56.063,27.336,57,29.596,57,32C57,34.404,56.063,36.664,54.364,38.364z"/>
		<path d="M52.949,36.949C54.271,35.628,55,33.87,55,32c0-1.87-0.729-3.627-2.051-4.95l-1.414,1.414C52.479,29.409,53,30.665,53,32    c0,1.336-0.521,2.591-1.465,3.535L52.949,36.949z"/>
	</g>
</g>
</svg>
