<?xml version="1.0" encoding="iso-8859-1"?>
<!-- Generator: Adobe Illustrator 22.1.0, SVG Export Plug-In . SVG Version: 6.00 Build 0)  -->
<svg xmlns="http://www.w3.org/2000/svg" xmlns:xlink="http://www.w3.org/1999/xlink" version="1.1" id="Layer_1_1_" x="0px" y="0px" viewBox="0 0 64 64" style="enable-background:new 0 0 64 64;" xml:space="preserve" width="512" height="512">
<g>
	<g>
		<path style="fill:#69D6F4;" d="M57.83,56c-2.59,0-2.59-2-5.18-2c-2.58,0-2.58,2-5.17,2c-2.58,0-2.58-2-5.16-2    c-2.59,0-2.59,2-5.17,2c-2.58,0-2.58-2-5.17-2c-0.9,0-1.49,0.24-1.98,0.56C29.08,55.15,28.5,56,26.82,56    c-2.47,0-2.58-1.81-4.82-1.98C21.89,54,21.77,54,21.65,54c-2.58,0-2.58,2-5.16,2s-2.58-2-5.17-2c-2.58,0-2.58,2-5.16,2    S3.58,54,1,54v9h62v-9C60.41,54,60.41,56,57.83,56z"/>
		<path style="fill:#E6E9ED;" d="M45,3.83v0.34C45,5.18,44.18,6,43.17,6H27V5l15.83-2.97C42.94,2.01,43.06,2,43.17,2    C44.18,2,45,2.82,45,3.83z"/>
		<path style="fill:#E6E9ED;" d="M23,5v1H6.83C5.82,6,5,5.18,5,4.17V3.83C5,2.82,5.82,2,6.83,2c0.11,0,0.23,0.01,0.34,0.03L23,5z"/>
		<path style="fill:#969FAA;" d="M27,6v3h-4V6V5c0-1.1,0.9-2,2-2c0.55,0,1.05,0.22,1.41,0.59C26.78,3.95,27,4.45,27,5V6z"/>
		<polygon style="fill:#AAB2BD;" points="29,9 29,13 21,13 21,9 23,9 27,9   "/>
		<path style="fill:#CCD1D9;" d="M54,23c0,1.1,0.45,2.1,1.17,2.83L55,26h-7H38l-8,2v-7c0-0.55-0.45-1-1-1h-6c-0.55,0-1,0.45-1,1v7    h-4H2v-1.32C2,23.54,4.54,21,7.68,21H10h6v-3c0-0.55-0.45-1-1-1h-3.5l0.53-1.4c0.58-1.57,2.07-2.6,3.74-2.6H21h8h2.86    c1.34,0,2.59,0.67,3.33,1.78l3.62,5.44C39.55,21.33,40.8,22,42.14,22H49h5l0.12,0.03C54.04,22.34,54,22.67,54,23z"/>
		<path style="fill:#969FAA;" d="M58,11v8c-1.87,0-3.45,1.29-3.88,3.03L54,22h-5l6-11H58z"/>
		<polygon style="fill:#969FAA;" points="49.67,30 48,26 55,26 56,38 53,38   "/>
		<path style="fill:#AAB2BD;" d="M58,19c2.21,0,4,1.79,4,4s-1.79,4-4,4c-1.1,0-2.1-0.45-2.83-1.17C54.45,25.1,54,24.1,54,23    c0-0.33,0.04-0.66,0.12-0.97C54.55,20.29,56.13,19,58,19z"/>
		<path style="fill:#FCD770;" d="M39.56,30c-0.37,0-0.74,0.05-1.1,0.15L37,30.57l-4.46,1.28c-0.36,0.1-0.73,0.15-1.1,0.15H30v-4l8-2    h10l1.67,4H39.56z"/>
		<path style="fill:#FCD770;" d="M22,28v4h-7H4c-1.1,0-2-0.9-2-2v-2h16H22z"/>
		<path style="fill:#E6E9ED;" d="M30,28v4h-8v-4v-7c0-0.55,0.45-1,1-1h6c0.55,0,1,0.45,1,1V28z"/>
		<path style="fill:#69D6F4;" d="M16,18v3h-6l1.5-4H15C15.55,17,16,17.45,16,18z"/>
	</g>
	<g>
		<path d="M57.827,61c-0.952,0-1.381-0.332-1.975-0.791C55.155,59.67,54.289,59,52.654,59c-1.634,0-2.5,0.67-3.197,1.209    C48.863,60.668,48.435,61,47.484,61c-0.949,0-1.377-0.332-1.97-0.791C44.818,59.671,43.952,59,42.319,59    c-1.634,0-2.5,0.671-3.196,1.209C38.53,60.668,38.101,61,37.151,61c-0.95,0-1.378-0.332-1.971-0.791    C34.483,59.671,33.618,59,31.984,59c-1.633,0-2.5,0.671-3.195,1.209C28.196,60.668,27.767,61,26.817,61s-1.378-0.332-1.971-0.791    C24.151,59.671,23.285,59,21.651,59c-1.633,0-2.499,0.671-3.194,1.209C17.864,60.668,17.436,61,16.487,61    c-0.948,0-1.376-0.332-1.969-0.79C13.823,59.671,12.958,59,11.325,59s-2.499,0.671-3.194,1.209C7.538,60.668,7.109,61,6.16,61    c-0.948,0-1.375-0.331-1.967-0.79C3.498,59.671,2.632,59,1,59v2c0.948,0,1.375,0.331,1.967,0.79C3.663,62.329,4.528,63,6.16,63    c1.633,0,2.499-0.671,3.195-1.209C9.948,61.332,10.375,61,11.325,61c0.948,0,1.376,0.332,1.969,0.79    c0.695,0.539,1.561,1.21,3.193,1.21s2.499-0.671,3.194-1.209C20.274,61.332,20.702,61,21.651,61c0.95,0,1.378,0.332,1.971,0.791    C24.318,62.329,25.184,63,26.817,63c1.634,0,2.5-0.671,3.196-1.209C30.606,61.332,31.034,61,31.984,61s1.378,0.332,1.971,0.791    C34.651,62.329,35.517,63,37.151,63s2.5-0.671,3.196-1.209C40.94,61.332,41.369,61,42.319,61c0.949,0,1.377,0.332,1.97,0.791    C44.985,62.329,45.851,63,47.484,63c1.634,0,2.5-0.67,3.197-1.209C51.274,61.332,51.703,61,52.654,61    c0.952,0,1.381,0.332,1.975,0.791C55.325,62.33,56.192,63,57.827,63c1.635,0,2.502-0.67,3.199-1.209    C61.619,61.332,62.048,61,63,61v-2c-1.635,0-2.501,0.67-3.198,1.209C59.208,60.668,58.779,61,57.827,61z"/>
		<path d="M57.827,55c-0.952,0-1.381-0.332-1.975-0.791C55.155,53.67,54.289,53,52.654,53c-1.634,0-2.5,0.67-3.197,1.209    C48.863,54.668,48.435,55,47.484,55c-0.949,0-1.377-0.332-1.97-0.791C44.818,53.671,43.952,53,42.319,53    c-1.634,0-2.5,0.671-3.196,1.209C38.53,54.668,38.101,55,37.151,55c-0.95,0-1.378-0.332-1.971-0.791    C34.483,53.671,33.618,53,31.984,53c-0.366,0-0.688,0.038-0.984,0.096V39h4.395c2.556,0,5.032-0.75,7.16-2.168l-1.109-1.664    C40.384,35.875,39.219,36.38,38,36.68v-5.354l0.737-0.211C39.004,31.039,39.281,31,39.56,31H49l3.333,8h4.753L56.14,27.633    C56.716,27.865,57.342,28,58,28c2.757,0,5-2.243,5-5c0-2.414-1.721-4.434-4-4.899V10h-4.594l-6,11h-6.266    c-1.006,0-1.938-0.499-2.496-1.336l-3.625-5.438C35.091,12.832,33.536,12,31.859,12H30V8h-2V7h15.17C44.73,7,46,5.73,46,4.17V3.83    c0-1.734-1.628-3.103-3.351-2.781L27.766,3.839C27.311,2.76,26.243,2,25,2s-2.311,0.76-2.766,1.839L7.349,1.048    C7.178,1.017,7.004,1,6.83,1C5.27,1,4,2.27,4,3.83v0.34C4,5.73,5.27,7,6.83,7H22v1h-2v4h-4.228c-2.073,0-3.954,1.304-4.682,3.244    L9.307,20H7.681C3.997,20,1,22.997,1,26.682V30c0,1.654,1.346,3,3,3h10v3.68c-1.219-0.3-2.384-0.805-3.445-1.512l-1.109,1.664    C11.573,38.25,14.049,39,16.605,39H21v14.042c-1.222,0.15-1.947,0.706-2.543,1.167C17.864,54.668,17.436,55,16.487,55    c-0.948,0-1.376-0.332-1.969-0.79C13.823,53.671,12.958,53,11.325,53s-2.499,0.671-3.194,1.209C7.538,54.668,7.109,55,6.16,55    c-0.948,0-1.375-0.331-1.967-0.79C3.498,53.671,2.632,53,1,53v2c0.948,0,1.375,0.331,1.967,0.79C3.663,56.329,4.528,57,6.16,57    c1.633,0,2.499-0.671,3.195-1.209C9.948,55.332,10.375,55,11.325,55c0.948,0,1.376,0.332,1.969,0.79    c0.695,0.539,1.561,1.21,3.193,1.21s2.499-0.671,3.194-1.209C20.274,55.332,20.702,55,21.651,55c0.95,0,1.378,0.332,1.971,0.791    C24.318,56.329,25.184,57,26.817,57c1.634,0,2.5-0.671,3.196-1.209C30.606,55.332,31.034,55,31.984,55s1.378,0.332,1.971,0.791    C34.651,56.329,35.517,57,37.151,57s2.5-0.671,3.196-1.209C40.94,55.332,41.369,55,42.319,55c0.949,0,1.377,0.332,1.97,0.791    C44.985,56.329,45.851,57,47.484,57c1.634,0,2.5-0.67,3.197-1.209C51.274,55.332,51.703,55,52.654,55    c0.952,0,1.381,0.332,1.975,0.791C55.325,56.33,56.192,57,57.827,57c1.635,0,2.502-0.67,3.199-1.209    C61.619,55.332,62.048,55,63,55v-2c-1.635,0-2.501,0.67-3.198,1.209C59.208,54.668,58.779,55,57.827,55z M23,41h6v2h-6V41z M29,31    h-6V21h6V31z M29,33v2h-6v-2H29z M23,37h6v2h-6V37z M23,45h6v2h-6V45z M23,49h6v2h-6V49z M36,36.978    C35.799,36.989,35.597,37,35.395,37H31v-4h0.44c0.465,0,0.928-0.065,1.373-0.192L36,31.897V36.978z M39.56,29    c-0.465,0-0.928,0.065-1.373,0.192l-5.924,1.692C31.996,30.961,31.719,31,31.44,31H31v-2.22L38.123,27h9.21l0.833,2H39.56z M61,23    c0,1.654-1.346,3-3,3s-3-1.346-3-3s1.346-3,3-3S61,21.346,61,23z M55.594,12H57v6.101c-1.607,0.328-2.932,1.431-3.576,2.899    h-2.739L55.594,12z M43.015,3.015C43.516,2.918,44,3.32,44,3.83v0.34C44,4.628,43.627,5,43.17,5H32.426L43.015,3.015z M6.83,5    C6.373,5,6,4.628,6,4.17V3.83C6,3.372,6.373,3,6.83,3c0.052,0,0.104,0.005,0.153,0.014L17.574,5H6.83z M24,5c0-0.552,0.449-1,1-1    s1,0.448,1,1v3h-2V5z M22,10h6v2h-6V10z M12.193,18H15v2h-3.557L12.193,18z M3,30v-1h13v-2H3v-0.318C3,24.101,5.1,22,7.681,22H17    v-4c0-1.103-0.897-2-2-2h-2.057l0.02-0.054C13.4,14.782,14.528,14,15.772,14h16.087c1.006,0,1.938,0.499,2.496,1.336l3.625,5.438    C38.909,22.168,40.464,23,42.141,23H53c0,0.712,0.154,1.386,0.424,2H51v2h3.08l0.833,10h-1.247l-5-12H38l-7,1.724V21    c0-1.103-0.897-2-2-2h-6c-1.103,0-2,0.897-2,2v6h-3v2h3v2H4C3.449,31,3,30.552,3,30z M16.605,37c-0.203,0-0.404-0.011-0.605-0.022    V33h5v4H16.605z M26.817,55c-0.95,0-1.378-0.332-1.971-0.791c-0.472-0.365-1.03-0.787-1.847-1.023V53h6v1.047    c-0.072,0.054-0.143,0.109-0.211,0.162C28.196,54.668,27.767,55,26.817,55z"/>
		<rect x="57" y="22" width="2" height="2"/>
	</g>
</g>
</svg>
