<?xml version="1.0" encoding="iso-8859-1"?>
<!-- Generator: Adobe Illustrator 22.1.0, SVG Export Plug-In . SVG Version: 6.00 Build 0)  -->
<svg xmlns="http://www.w3.org/2000/svg" xmlns:xlink="http://www.w3.org/1999/xlink" version="1.1" id="Layer_1_1_" x="0px" y="0px" viewBox="0 0 64 64" style="enable-background:new 0 0 64 64;" xml:space="preserve" width="512" height="512">
<g>
	<g>
		<path style="fill:#69D6F4;" d="M6,14c-2.21,0-4,1.79-4,4v30h15l2,2h43V18c0-2.21-1.79-4-4-4H6z"/>
		<circle style="fill:#E6E9ED;" cx="32" cy="17" r="15"/>
		<circle style="fill:#B4DD7F;" cx="32" cy="17" r="9"/>
		<circle style="fill:#E6E9ED;" cx="32" cy="17" r="3"/>
		<polygon style="fill:#838F9B;" points="44,56 44,62 20,62 20,56 21,56   "/>
		<path style="fill:#969FAA;" d="M6,56c-2.21,0-4-1.79-4-4v-4h15l2,2h43v2c0,2.21-1.79,4-4,4H44H21h-1H6z"/>
		<path style="fill:#FF826E;" d="M38,12c-1.1,0-2-0.9-2-2c0-0.34,0.08-0.66,0.24-0.94C36.57,8.43,37.24,8,38,8c1.1,0,2,0.9,2,2    c0,0.66-0.32,1.24-0.81,1.6C38.86,11.85,38.44,12,38,12z"/>
		<rect x="46" y="40" style="fill:#FCD770;" width="4" height="6"/>
		<rect x="42" y="40" style="fill:#FCD770;" width="4" height="6"/>
		<rect x="50" y="40" style="fill:#FCD770;" width="4" height="6"/>
		<rect x="54" y="40" style="fill:#FCD770;" width="4" height="6"/>
		<rect x="38" y="40" style="fill:#FCD770;" width="4" height="6"/>
	</g>
	<g>
		<rect x="5" y="51" width="2" height="2"/>
		<rect x="9" y="51" width="2" height="2"/>
		<rect x="13" y="51" width="2" height="2"/>
		<path d="M58,13H47.473C45.69,6.111,39.439,1,32,1S18.31,6.111,16.527,13H6c-2.757,0-5,2.243-5,5v34c0,2.757,2.243,5,5,5h13v4h-4v2    h34v-2h-4v-4h13c2.757,0,5-2.243,5-5V18C63,15.243,60.757,13,58,13z M45.949,16h-4.005c-0.153-1.53-0.651-2.992-1.476-4.301    C40.802,11.215,41,10.631,41,10c0-1.654-1.346-3-3-3c-0.798,0-1.52,0.318-2.058,0.828C35.006,7.426,34.015,7.165,33,7.062V3.051    C39.921,3.543,45.457,9.079,45.949,16z M33,16v-0.722c0.299,0.175,0.547,0.422,0.722,0.722H33z M33.722,18    c-0.347,0.595-0.985,1-1.722,1c-1.103,0-2-0.897-2-2c0-0.737,0.405-1.375,1-1.722V18H33.722z M31,13.142    c-1.72,0.447-3,1.999-3,3.858c0,2.206,1.794,4,4,4c1.858,0,3.411-1.279,3.858-3h4.073c-0.495,3.94-3.859,7-7.931,7    c-4.411,0-8-3.589-8-8c0-4.072,3.06-7.436,7-7.931V13.142z M35.858,16c-0.364-1.399-1.459-2.494-2.858-2.858V9.064    c0.702,0.089,1.387,0.277,2.039,0.545C35.022,9.739,35,9.866,35,10c0,1.654,1.346,3,3,3c0.285,0,0.555-0.053,0.816-0.127    C39.403,13.835,39.78,14.89,39.92,16H35.858z M38,11c-0.551,0-1-0.448-1-1s0.449-1,1-1s1,0.448,1,1S38.551,11,38,11z M31,3.051v4    c-5.046,0.504-9,4.773-9,9.949c0,5.514,4.486,10,10,10c5.177,0,9.446-3.954,9.949-9h4C45.433,25.253,39.382,31,32,31    c-7.72,0-14-6.28-14-14C18,9.618,23.747,3.567,31,3.051z M6,15h10.139C16.056,15.657,16,16.321,16,17    c0,4.349,1.75,8.293,4.575,11.18L17.52,32H17v-3h-2v3h-2v-7h-2v7H9V22H7v10H5v2h13.48l3.585-4.481C24.797,31.692,28.246,33,32,33    s7.203-1.308,9.935-3.481L45.52,34H59v-2h-2V22h-2v10h-2v-7h-2v7h-2v-3h-2v3h-0.52l-3.056-3.82C46.25,25.293,48,21.349,48,17    c0-0.679-0.056-1.343-0.139-2H58c1.654,0,3,1.346,3,3v31H19.414l-2-2H3V18C3,16.346,4.346,15,6,15z M58,55H23v2h20v4H21v-6H6    c-1.654,0-3-1.346-3-3v-3h13.586l2,2H61v1C61,53.654,59.654,55,58,55z"/>
		<path d="M59,39H37v8h22V39z M47,41h2v4h-2V41z M45,45h-2v-4h2V45z M51,41h2v4h-2V41z M39,41h2v4h-2V41z M57,45h-2v-4h2V45z"/>
		<rect x="5" y="36" width="2" height="2"/>
		<rect x="9" y="36" width="19" height="2"/>
		<rect x="5" y="40" width="2" height="2"/>
		<rect x="9" y="40" width="19" height="2"/>
		<rect x="5" y="44" width="2" height="2"/>
		<rect x="9" y="44" width="19" height="2"/>
	</g>
</g>
</svg>
