<?xml version="1.0" encoding="iso-8859-1"?>
<!-- Generator: Adobe Illustrator 22.1.0, SVG Export Plug-In . SVG Version: 6.00 Build 0)  -->
<svg xmlns="http://www.w3.org/2000/svg" xmlns:xlink="http://www.w3.org/1999/xlink" version="1.1" id="Layer_1_1_" x="0px" y="0px" viewBox="0 0 64 64" style="enable-background:new 0 0 64 64;" xml:space="preserve" width="512" height="512">
<g>
	<g>
		<path style="fill:#838F9B;" d="M36,54.5v-8.13c1.34,0.24,2.66,0.6,3.94,1.06L47,50h10l1.42-2.13c0.36-0.54,0.97-0.87,1.63-0.87    c0.54,0,1.03,0.22,1.38,0.57S62,48.41,62,48.95V57H33.5c0.69,0,1.32-0.28,1.77-0.73S36,55.19,36,54.5z"/>
		<path style="fill:#FCD770;" d="M14.5,52c-0.69,0-1.32,0.28-1.77,0.73l-0.19-0.19c0.23-0.24,0.45-0.51,1.36-2.55L14,50    c3.91-2.61,8.51-4,13.21-4h0.91h0.07h3.61c1.41,0,2.82,0.13,4.2,0.37v8.13c0-1.38-1.12-2.5-2.5-2.5H14.5z"/>
		<path style="fill:#FF826E;" d="M18,32h-5v-5.02c0-1.77,1.16-3.33,2.85-3.84L23,21l3,2l3-2l7.15,2.14    c1.69,0.51,2.85,2.07,2.85,3.84V32h-5v4l-7.38,6.38c-0.4,0.4-0.62,0.94-0.62,1.5c0-0.56-0.22-1.1-0.62-1.5L18,36V32z"/>
		<path style="fill:#F0D0B4;" d="M25.38,42.38c0.4,0.4,0.62,0.94,0.62,1.5c0,0.58-0.24,1.12-0.62,1.5C25,45.76,24.46,46,23.88,46    h-0.07c-0.52,0-1.03-0.19-1.42-0.54l-8.73-7.86C13.24,37.22,13,36.68,13,36.11V32h5v4L25.38,42.38z"/>
		<path style="fill:#F0D0B4;" d="M29.61,45.46c-0.39,0.35-0.9,0.54-1.42,0.54h-0.07c-0.58,0-1.12-0.24-1.5-0.62    C26.24,45,26,44.46,26,43.88c0-0.56,0.22-1.1,0.62-1.5L34,36v-4h5v4.11c0,0.57-0.24,1.11-0.66,1.49L29.61,45.46z"/>
		<path style="fill:#F0D0B4;" d="M29,19v2l-3,2l-3-2v-3c0.83,0.63,1.87,1,3,1s2.17-0.37,3-1V19z"/>
		<path style="fill:#F0D0B4;" d="M31,12v2c0,1.63-0.79,3.09-2,4c-0.83,0.63-1.87,1-3,1s-2.17-0.37-3-1c-1.21-0.91-2-2.37-2-4v-2    c0-2.76,2.24-5,5-5c1.38,0,2.63,0.56,3.54,1.46C30.44,9.37,31,10.62,31,12z"/>
		<path style="fill:#F0D0B4;" d="M33.5,52c1.38,0,2.5,1.12,2.5,2.5c0,0.69-0.28,1.32-0.73,1.77S34.19,57,33.5,57h-19    c-1.38,0-2.5-1.12-2.5-2.5c0-0.69,0.28-1.32,0.73-1.77C13.18,52.28,13.81,52,14.5,52H33.5z"/>
		<path style="fill:#F0D0B4;" d="M9,44c2.76,0,5,2.24,5,5c0,0.34-0.03,0.67-0.1,0.99c-0.91,2.04-1.13,2.31-1.36,2.55    C11.63,53.44,10.38,54,9,54H7c-2.76,0-5-2.24-5-5c0-1.38,0.56-2.63,1.46-3.54C4.37,44.56,5.62,44,7,44H9z"/>
	</g>
	<g>
		<path d="M60.046,46c-0.991,0-1.91,0.492-2.458,1.315L56.465,49h-9.289l-6.891-2.506C37.558,45.503,34.705,45,31.804,45h-0.199    l7.401-6.661C39.638,37.771,40,36.959,40,36.109v-9.133c0-2.225-1.432-4.15-3.563-4.789L30,20.256V20h11.58l3.053-5.343    l1.396,5.585l1.94-0.485L45.367,9.343L40.42,18h-9.96c0.954-1.063,1.54-2.462,1.54-4v-2c0-3.309-2.691-6-6-6s-6,2.691-6,6v2    c0,1.771,0.776,3.36,2,4.46V20H10.382l-3.197,6.394L5.721,22H1v2h3.279l2.536,7.606L11.618,22h4.569l-0.623,0.187    C13.432,22.826,12,24.751,12,26.976v9.133c0,0.85,0.362,1.662,0.993,2.229l8.229,7.406c-2.188,0.544-4.299,1.374-6.275,2.5    C14.574,45.292,12.052,43,9,43H7c-3.309,0-6,2.691-6,6s2.691,6,6,6h2c0.708,0,1.384-0.13,2.015-0.355    C11.092,56.506,12.62,58,14.5,58H63v-9.046C63,47.325,61.675,46,60.046,46z M35,47.245v4.106C34.544,51.133,34.039,51,33.5,51    H14.65c0.034-0.095,0.069-0.189,0.098-0.287C18.464,48.288,22.767,47,27.211,47h4.593C32.879,47,33.944,47.095,35,47.245z     M37.669,36.853l-8.733,7.859C28.729,44.897,28.463,45,28.121,45C27.503,45,27,44.497,27,43.879c0-0.295,0.12-0.584,0.275-0.743    L35,36.457V33h3v3.109C38,36.393,37.879,36.663,37.669,36.853z M22,12c0-2.206,1.794-4,4-4s4,1.794,4,4v2c0,2.206-1.794,4-4,4    s-4-1.794-4-4V12z M26,20c0.702,0,1.373-0.128,2-0.35v0.815l-2,1.333l-2-1.333V19.65C24.627,19.872,25.298,20,26,20z     M16.138,24.103l6.699-2.01L26,24.202l3.163-2.109l6.699,2.01C37.141,24.486,38,25.641,38,26.976V31h-3v-4h-2v8.543l-6.998,6.053    L19,35.543V27h-2v4h-3v-4.024C14,25.641,14.859,24.486,16.138,24.103z M14,36.109V33h3v3.457l7.672,6.629    C24.88,43.295,25,43.584,25,43.879C25,44.497,24.497,45,23.814,45c-0.277,0-0.543-0.103-0.75-0.288l-8.733-7.859    C14.121,36.663,14,36.393,14,36.109z M7,53c-2.206,0-4-1.794-4-4s1.794-4,4-4h2c2.206,0,4,1.794,4,4s-1.794,4-4,4H7z M33.5,56h-19    c-0.827,0-1.5-0.673-1.5-1.5s0.673-1.5,1.5-1.5h19c0.827,0,1.5,0.673,1.5,1.5S34.327,56,33.5,56z M61,56H36.662    C36.878,55.545,37,55.036,37,54.5v-6.881c0.877,0.206,1.748,0.444,2.602,0.754L46.824,51h10.711l1.717-2.575    C59.429,48.158,59.726,48,60.046,48C60.572,48,61,48.428,61,48.954V56z"/>
		<polygon points="53.323,21 50.22,28.757 48.47,21.757 46.53,22.243 49.78,35.243 54.677,23 63,23 63,21   "/>
	</g>
</g>
</svg>
