<?xml version="1.0" encoding="iso-8859-1"?>
<!-- Generator: Adobe Illustrator 22.1.0, SVG Export Plug-In . SVG Version: 6.00 Build 0)  -->
<svg xmlns="http://www.w3.org/2000/svg" xmlns:xlink="http://www.w3.org/1999/xlink" version="1.1" id="Layer_1_1_" x="0px" y="0px" viewBox="0 0 64 64" style="enable-background:new 0 0 64 64;" xml:space="preserve" width="512" height="512">
<g>
	<g>
		<path style="fill:#B27946;" d="M50,14.24V15H40v-1.76c0-1.17,0.48-2.23,1.24-3c0.77-0.76,1.83-1.24,3-1.24    c1.13,0,2.21,0.45,3,1.24L48,11C49.23,11.61,50,12.87,50,14.24z"/>
		<path style="fill:#B27946;" d="M24,14.24V15H14v-1.76c0-1.17,0.48-2.23,1.24-3c0.77-0.76,1.83-1.24,3-1.24    c1.13,0,2.21,0.45,3,1.24L22,11C23.23,11.61,24,12.87,24,14.24z"/>
		<rect x="45" y="31" style="fill:#FF826E;" width="7" height="4"/>
		<rect x="38" y="31" style="fill:#FF826E;" width="7" height="4"/>
		<rect x="19" y="31" style="fill:#FF826E;" width="7" height="4"/>
		<rect x="12" y="31" style="fill:#FF826E;" width="7" height="4"/>
		<path style="fill:#F0D0B4;" d="M56,29.34V35h-4v-4v-5l1.73,0.43C55.06,26.77,56,27.97,56,29.34z"/>
		<path style="fill:#F0D0B4;" d="M38,31v4h-4v-5.66c0-1.37,0.94-2.57,2.27-2.91L38,26V31z"/>
		<path style="fill:#F0D0B4;" d="M30,29.34V35h-4v-4v-5l1.73,0.43C29.06,26.77,30,27.97,30,29.34z"/>
		<path style="fill:#F0D0B4;" d="M12,31v4H8v-5.66c0-1.37,0.94-2.57,2.27-2.91L12,26V31z"/>
		<polygon style="fill:#FCD770;" points="52,26 52,31 45,31 45,28 48,25   "/>
		<polygon style="fill:#FCD770;" points="45,28 45,31 38,31 38,26 42,25   "/>
		<polygon style="fill:#FCD770;" points="19,28 19,31 12,31 12,26 16,25   "/>
		<polygon style="fill:#FCD770;" points="26,26 26,31 19,31 19,28 22,25   "/>
		<path style="fill:#F0D0B4;" d="M48,22v3l-3,3l-3-3v-3c0.83,0.63,1.87,1,3,1S47.17,22.63,48,22z"/>
		<path style="fill:#F0D0B4;" d="M50,15v3c0,1.38-0.56,2.63-1.46,3.54C48.37,21.71,48.19,21.86,48,22c-0.83,0.63-1.87,1-3,1    s-2.17-0.37-3-1c-1.21-0.91-2-2.37-2-4v-3H50z"/>
		<path style="fill:#F0D0B4;" d="M24,15v3c0,1.38-0.56,2.63-1.46,3.54C22.37,21.71,22.19,21.86,22,22c-0.83,0.63-1.87,1-3,1    s-2.17-0.37-3-1c-1.21-0.91-2-2.37-2-4v-3H24z"/>
		<path style="fill:#F0D0B4;" d="M22,22v3l-3,3l-3-3v-3c0.83,0.63,1.87,1,3,1S21.17,22.63,22,22z"/>
		<path style="fill:#69D6F4;" d="M57.83,56c-1.19,0-1.83-0.42-2.44-0.89c-0.7-0.53-1.34-1.11-2.74-1.11c-2.58,0-2.58,2-5.17,2    c-2.58,0-2.58-2-5.16-2c-2.59,0-2.59,2-5.17,2c-2.58,0-2.58-2-5.17-2c-2.58,0-2.58,2-5.16,2c-2.59,0-2.59-2-5.17-2s-2.58,2-5.16,2    s-2.58-2-5.17-2c-1.38,0-2.02,0.57-2.71,1.1C8.01,55.57,7.36,56,6.16,56C3.58,56,3.58,54,1,54v9h62v-9C60.41,54,60.41,56,57.83,56    z"/>
		<path style="fill:#CF9E76;" d="M62,36v2c0,0.55-0.45,1-1,1h-1H4H3c-0.55,0-1-0.45-1-1v-2c0-0.55,0.45-1,1-1h5h4h7h7h4h4h4h7h7h4h5    C61.55,35,62,35.45,62,36z"/>
		<polygon style="fill:#CCD1D9;" points="60,39 59.32,43.05 59,43 51,43 5,43 4.68,43.05 4,39   "/>
		<path style="fill:#E6E9ED;" d="M59.32,43.05l-1.21,7.27c-0.32,1.93-1.32,3.6-2.72,4.79c-0.7-0.53-1.34-1.11-2.74-1.11    c-2.58,0-2.58,2-5.17,2c-2.58,0-2.58-2-5.16-2c-2.59,0-2.59,2-5.17,2c-2.58,0-2.58-2-5.17-2c-2.58,0-2.58,2-5.16,2    c-2.59,0-2.59-2-5.17-2s-2.58,2-5.16,2s-2.58-2-5.17-2c-1.38,0-2.02,0.57-2.71,1.1c-1.41-1.18-2.4-2.86-2.72-4.78l-1.21-7.27L5,43    h46h8L59.32,43.05z"/>
		<circle style="fill:#FCD770;" cx="48" cy="49" r="2"/>
		<circle style="fill:#FCD770;" cx="32" cy="49" r="2"/>
		<circle style="fill:#FCD770;" cx="16" cy="49" r="2"/>
	</g>
	<g>
		<path d="M57.827,61c-0.952,0-1.381-0.332-1.975-0.791C55.155,59.67,54.289,59,52.654,59c-1.634,0-2.5,0.67-3.197,1.209    C48.863,60.668,48.435,61,47.484,61c-0.949,0-1.377-0.332-1.97-0.791C44.818,59.67,43.952,59,42.319,59    c-1.634,0-2.5,0.67-3.196,1.209C38.53,60.668,38.101,61,37.151,61c-0.95,0-1.378-0.332-1.971-0.791    C34.483,59.67,33.618,59,31.984,59c-1.633,0-2.5,0.67-3.195,1.209C28.196,60.668,27.767,61,26.817,61s-1.378-0.332-1.971-0.791    C24.151,59.67,23.285,59,21.651,59c-1.633,0-2.499,0.67-3.194,1.209C17.864,60.668,17.436,61,16.487,61    c-0.948,0-1.376-0.332-1.969-0.791C13.823,59.671,12.958,59,11.325,59s-2.499,0.67-3.194,1.209C7.538,60.668,7.109,61,6.16,61    c-0.948,0-1.375-0.332-1.967-0.791C3.498,59.671,2.632,59,1,59v2c0.948,0,1.375,0.332,1.967,0.791C3.663,62.329,4.528,63,6.16,63    c1.633,0,2.499-0.67,3.195-1.209C9.948,61.332,10.375,61,11.325,61c0.948,0,1.376,0.332,1.969,0.791    C13.989,62.329,14.854,63,16.487,63s2.499-0.67,3.194-1.209C20.274,61.332,20.702,61,21.651,61c0.95,0,1.378,0.332,1.971,0.791    C24.318,62.33,25.184,63,26.817,63c1.634,0,2.5-0.67,3.196-1.209C30.606,61.332,31.034,61,31.984,61s1.378,0.332,1.971,0.791    C34.651,62.33,35.517,63,37.151,63s2.5-0.67,3.196-1.209C40.94,61.332,41.369,61,42.319,61c0.949,0,1.377,0.332,1.97,0.791    C44.985,62.33,45.851,63,47.484,63c1.634,0,2.5-0.67,3.197-1.209C51.274,61.332,51.703,61,52.654,61    c0.952,0,1.381,0.332,1.975,0.791C55.325,62.33,56.192,63,57.827,63c1.635,0,2.502-0.67,3.199-1.209    C61.619,61.332,62.048,61,63,61v-2c-1.635,0-2.501,0.67-3.198,1.209C59.208,60.668,58.779,61,57.827,61z"/>
		<path d="M48,46c-1.654,0-3,1.346-3,3s1.346,3,3,3s3-1.346,3-3S49.654,46,48,46z M48,50c-0.551,0-1-0.449-1-1s0.449-1,1-1    s1,0.449,1,1S48.551,50,48,50z"/>
		<path d="M32,46c-1.654,0-3,1.346-3,3s1.346,3,3,3s3-1.346,3-3S33.654,46,32,46z M32,50c-0.551,0-1-0.449-1-1s0.449-1,1-1    s1,0.449,1,1S32.551,50,32,50z"/>
		<path d="M16,46c-1.654,0-3,1.346-3,3s1.346,3,3,3s3-1.346,3-3S17.654,46,16,46z M16,50c-0.551,0-1-0.449-1-1s0.449-1,1-1    s1,0.449,1,1S16.551,50,16,50z"/>
		<path d="M60.847,40H61c1.103,0,2-0.897,2-2v-2c0-1.103-0.897-2-2-2h-4v-4.658c0-1.839-1.246-3.435-3.03-3.88L49,24.219v-1.76    c1.224-1.099,2-2.688,2-4.46v-3.764c0-1.703-0.916-3.24-2.401-4.051L47.95,9.536C46.959,8.545,45.643,8,44.243,8    C41.352,8,39,10.352,39,13.243V18c0,1.771,0.776,3.36,2,4.46v1.76l-4.97,1.243c-1.784,0.445-3.03,2.041-3.03,3.88V34h-2v-4.658    c0-1.839-1.246-3.435-3.03-3.88L23,24.219v-1.76c1.224-1.099,2-2.688,2-4.46v-3.764c0-1.703-0.916-3.24-2.401-4.051L21.95,9.536    C20.959,8.545,19.643,8,18.243,8C15.352,8,13,10.352,13,13.243V18c0,1.771,0.776,3.36,2,4.46v1.76l-4.97,1.243    C8.246,25.907,7,27.503,7,29.342V34H3c-1.103,0-2,0.897-2,2v2c0,1.103,0.897,2,2,2h0.153l1.747,10.48    c0.273,1.636,0.998,3.156,2.072,4.399C6.74,54.949,6.487,55,6.16,55c-0.948,0-1.375-0.332-1.967-0.791C3.498,53.671,2.632,53,1,53    v2c0.948,0,1.375,0.332,1.967,0.791C3.663,56.329,4.528,57,6.16,57c1.633,0,2.499-0.67,3.195-1.209    C9.948,55.332,10.375,55,11.325,55c0.948,0,1.376,0.332,1.969,0.791C13.989,56.329,14.854,57,16.487,57s2.499-0.67,3.194-1.209    C20.274,55.332,20.702,55,21.651,55c0.95,0,1.378,0.332,1.971,0.791C24.318,56.33,25.184,57,26.817,57    c1.634,0,2.5-0.67,3.196-1.209C30.606,55.332,31.034,55,31.984,55s1.378,0.332,1.971,0.791C34.651,56.33,35.517,57,37.151,57    s2.5-0.67,3.196-1.209C40.94,55.332,41.369,55,42.319,55c0.949,0,1.377,0.332,1.97,0.791C44.985,56.33,45.851,57,47.484,57    c1.634,0,2.5-0.67,3.197-1.209C51.274,55.332,51.703,55,52.654,55c0.952,0,1.381,0.332,1.975,0.791    C55.325,56.33,56.192,57,57.827,57c1.635,0,2.502-0.67,3.199-1.209C61.619,55.332,62.048,55,63,55v-2    c-1.635,0-2.501,0.67-3.198,1.209C59.208,54.668,58.779,55,57.827,55c-0.322,0-0.573-0.049-0.802-0.117    c1.076-1.244,1.803-2.765,2.076-4.403L60.847,40z M55,29.342V34h-2v-6.719l0.485,0.121C54.377,27.625,55,28.423,55,29.342z M39,32    h5v2h-5V32z M46,32h5v2h-5V32z M51,26.781V30h-5v-1.586l2.307-2.307L51,26.781z M45,22c-2.206,0-4-1.794-4-4v-2h8v2    C49,20.206,47.206,22,45,22z M44.243,10c0.866,0,1.68,0.337,2.293,0.95l0.872,0.872l0.145,0.073    c0.82,0.41,1.333,1.206,1.414,2.105H41v-0.757C41,11.455,42.455,10,44.243,10z M45,24c0.702,0,1.373-0.128,2-0.35v0.936l-2,2l-2-2    V23.65C43.627,23.872,44.298,24,45,24z M41.693,26.107L44,28.414V30h-5v-3.219L41.693,26.107z M35,29.342    c0-0.919,0.623-1.717,1.515-1.94L37,27.281V34h-2V29.342z M29,29.342V34h-2v-6.719l0.485,0.121C28.377,27.625,29,28.423,29,29.342    z M13,32h5v2h-5V32z M20,32h5v2h-5V32z M25,26.781V30h-5v-1.586l2.307-2.307L25,26.781z M19,22c-2.206,0-4-1.794-4-4v-2h8v2    C23,20.206,21.206,22,19,22z M18.243,10c0.866,0,1.68,0.337,2.293,0.95l0.872,0.872l0.145,0.073    c0.82,0.41,1.333,1.206,1.414,2.105H15v-0.757C15,11.455,16.455,10,18.243,10z M19,24c0.702,0,1.373-0.128,2-0.35v0.936l-2,2l-2-2    V23.65C17.627,23.872,18.298,24,19,24z M15.693,26.107L18,28.414V30h-5v-3.219L15.693,26.107z M9,29.342    c0-0.919,0.623-1.717,1.515-1.94L11,27.281V34H9V29.342z M3,36h58l0.001,2H3V36z M55.289,53.793C54.674,53.377,53.88,53,52.654,53    c-1.634,0-2.5,0.67-3.197,1.209C48.863,54.668,48.435,55,47.484,55c-0.949,0-1.377-0.332-1.97-0.791    C44.818,53.67,43.952,53,42.319,53c-1.634,0-2.5,0.67-3.196,1.209C38.53,54.668,38.101,55,37.151,55    c-0.95,0-1.378-0.332-1.971-0.791C34.483,53.67,33.618,53,31.984,53c-1.633,0-2.5,0.67-3.195,1.209    C28.196,54.668,27.767,55,26.817,55s-1.378-0.332-1.971-0.791C24.151,53.67,23.285,53,21.651,53c-1.633,0-2.499,0.67-3.194,1.209    C17.864,54.668,17.436,55,16.487,55c-0.948,0-1.376-0.332-1.969-0.791C13.823,53.671,12.958,53,11.325,53    c-1.218,0-2.008,0.373-2.621,0.786c-0.948-1.006-1.603-2.261-1.832-3.635L5.847,44H49v-2H5.514l-0.333-2h53.639l-0.333,2H51v2    h7.153l-1.025,6.151C56.898,51.528,56.241,52.786,55.289,53.793z"/>
	</g>
</g>
</svg>
