<?xml version="1.0" encoding="iso-8859-1"?>
<!-- Generator: Adobe Illustrator 22.1.0, SVG Export Plug-In . SVG Version: 6.00 Build 0)  -->
<svg xmlns="http://www.w3.org/2000/svg" xmlns:xlink="http://www.w3.org/1999/xlink" version="1.1" id="Layer_1_1_" x="0px" y="0px" viewBox="0 0 64 64" style="enable-background:new 0 0 64 64;" xml:space="preserve" width="512" height="512">
<g>
	<g>
		<path style="fill:#E6E9ED;" d="M45,19v1h-4h-2c0-5.12-2.03-10.03-5.66-13.66l-0.29-0.29c0.32,0.02,0.64,0.05,0.95,0.1    C40.23,7.11,45,12.5,45,19z"/>
		<path style="fill:#E6E9ED;" d="M30.95,6.05l-0.29,0.29C27.03,9.97,25,14.88,25,20h-2h-4v-1c0-3.59,1.46-6.84,3.81-9.19    c1.9-1.9,4.4-3.22,7.19-3.66C30.31,6.1,30.63,6.07,30.95,6.05z"/>
		<path style="fill:#FF826E;" d="M39,20H25c0-5.12,2.03-10.03,5.66-13.66l0.29-0.29C31.3,6.01,31.65,6,32,6    c0.35,0,0.7,0.01,1.05,0.05l0.29,0.29C36.97,9.97,39,14.88,39,20z"/>
		<path style="fill:#AAB2BD;" d="M33.05,6.05C32.7,6.01,32.35,6,32,6c-0.35,0-0.7,0.01-1.05,0.05C30.63,6.07,30.31,6.1,30,6.15V4    c0-1.1,0.9-2,2-2c0.55,0,1.05,0.22,1.41,0.59C33.78,2.95,34,3.45,34,4v2.15C33.69,6.1,33.37,6.07,33.05,6.05z"/>
		<circle style="fill:#FCD770;" cx="32" cy="14" r="2"/>
		<path style="fill:#969FAA;" d="M41,20v1c0,1.66-1.34,3-3,3H26c-1.66,0-3-1.34-3-3v-1h2h14H41z"/>
		<path style="fill:#FCD770;" d="M45,20v7c0-2.21-1.79-4-4-4v-2v-1H45z"/>
		<path style="fill:#FCD770;" d="M23,21v2c-2.21,0-4,1.79-4,4v-7h4V21z"/>
		<path style="fill:#E6E9ED;" d="M52,50.03V62h-6v-5.76c0-0.79-0.32-1.56-0.88-2.12L44,53l1.12-1.12c0.56-0.56,0.88-1.33,0.88-2.12    V44h0.33l0.71,0.13C49.91,44.63,52,47.12,52,50.03z"/>
		<path style="fill:#E6E9ED;" d="M20,53l-1.12,1.12C18.32,54.68,18,55.45,18,56.24V62h-6V50.03c0-2.91,2.09-5.4,4.96-5.9L18,43.94    v5.82c0,0.79,0.32,1.56,0.88,2.12L20,53z"/>
		<path style="fill:#E6E9ED;" d="M40,46.24v0.66c0,1.48-0.52,2.86-1.41,3.95C37.7,51.93,36.46,52.71,35,53v5h-6v-5    c-1.46-0.29-2.7-1.07-3.59-2.15C24.52,49.76,24,48.38,24,46.9v-0.66c0-1.07,0.17-2.12,0.49-3.12h0.01L27,42.5l1,6.5l4-3l4,3    l1.17-6.46l2.33,0.58h0.01C39.83,44.12,40,45.17,40,46.24z"/>
		<polygon style="fill:#CCD1D9;" points="37.17,42.54 36,49 32,46 35,42   "/>
		<polygon style="fill:#CCD1D9;" points="29,42 32,46 28,49 27,42.5   "/>
		<path style="fill:#FCD770;" d="M46,56.24V62h-9v-4h-2v-5h9l1.12,1.12C45.68,54.68,46,55.45,46,56.24z"/>
		<path style="fill:#FCD770;" d="M46,44v5.76c0,0.79-0.32,1.56-0.88,2.12L44,53h-9c1.46-0.29,2.7-1.07,3.59-2.15    C39.48,49.76,40,48.38,40,46.9v-0.66c0-1.07-0.17-2.12-0.49-3.12C39.02,41.58,38.16,40.16,37,39l-0.31-0.32    c1.68-1.02,3-2.59,3.71-4.46c3.45,1.9,5.6,5.53,5.6,9.49V44z"/>
		<path style="fill:#FCD770;" d="M29,53v5h-2v4h-9v-5.76c0-0.79,0.32-1.56,0.88-2.12L20,53H29z"/>
		<path style="fill:#FCD770;" d="M29,53h-9l-1.12-1.12C18.32,51.32,18,50.55,18,49.76v-5.82v-0.23c0-3.96,2.15-7.59,5.6-9.49    c0.45,1.19,1.16,2.26,2.04,3.14c0.51,0.51,1.09,0.97,1.71,1.34v0.01L27,39c-1.16,1.16-2.02,2.58-2.51,4.12    c-0.32,1-0.49,2.05-0.49,3.12v0.66c0,1.48,0.52,2.86,1.41,3.95C26.3,51.93,27.54,52.71,29,53z"/>
		<polygon style="fill:#FF826E;" points="37,58 37,62 27,62 27,58 29,58 35,58   "/>
		<path style="fill:#F0D0B4;" d="M41,23c2.21,0,4,1.79,4,4s-1.79,4-4,4V23z"/>
		<path style="fill:#F0D0B4;" d="M35,39.48C34.06,39.82,33.05,40,32,40s-2.06-0.18-3-0.52c-0.58-0.2-1.13-0.46-1.65-0.78    c-0.62-0.37-1.2-0.83-1.71-1.34c-0.88-0.88-1.59-1.95-2.04-3.14c-0.39-1-0.6-2.09-0.6-3.22v-8v-2c0,1.66,1.34,3,3,3h12    c1.66,0,3-1.34,3-3v2v8c0,1.13-0.21,2.22-0.6,3.22c-0.71,1.87-2.03,3.44-3.71,4.46C36.16,39.01,35.6,39.28,35,39.48z"/>
		<path style="fill:#F0D0B4;" d="M35,39.48V42l-3,4l-3-4v-2.52c0.94,0.34,1.95,0.52,3,0.52S34.06,39.82,35,39.48z"/>
		<path style="fill:#F0D0B4;" d="M23,23v8c-2.21,0-4-1.79-4-4S20.79,23,23,23z"/>
	</g>
	<g>
		<path d="M32,17c1.654,0,3-1.346,3-3s-1.346-3-3-3s-3,1.346-3,3S30.346,17,32,17z M32,13c0.552,0,1,0.449,1,1s-0.448,1-1,1    s-1-0.449-1-1S31.448,13,32,13z"/>
		<path d="M32,36c2.206,0,4-1.794,4-4h-2c0,1.103-0.897,2-2,2s-2-0.897-2-2h-2C28,34.206,29.794,36,32,36z"/>
		<circle cx="37" cy="27" r="1"/>
		<circle cx="27" cy="27" r="1"/>
		<path d="M47.217,43.14l-0.238-0.042c-0.193-3.827-2.189-7.264-5.378-9.326c0.174-0.602,0.295-1.226,0.353-1.868    C44.256,31.456,46,29.43,46,27v-8c0-6.689-4.718-12.29-11-13.668V4c0-1.654-1.346-3-3-3s-3,1.346-3,3v1.332    C22.718,6.71,18,12.311,18,19v8c0,2.43,1.744,4.456,4.046,4.904c0.058,0.643,0.179,1.266,0.353,1.868    c-3.189,2.062-5.185,5.499-5.378,9.326l-0.238,0.042C13.433,43.732,11,46.631,11,50.034V63h42V50.034    C53,46.631,50.567,43.732,47.217,43.14z M45,43.708v6.049c0,0.534-0.208,1.036-0.586,1.415L43.586,52h-4.703    C40.199,50.68,41,48.865,41,46.901v-0.658c0-2.758-0.997-5.357-2.803-7.409c1.084-0.859,1.987-1.934,2.639-3.164    C43.433,37.498,45,40.458,45,43.708z M29.196,52.02C26.765,51.533,25,49.38,25,46.901v-0.658c0-0.782,0.107-1.546,0.294-2.286    l0.817-0.204l1.172,7.034L32,47.25l4.716,3.537l1.172-7.034l0.817,0.204C38.893,44.696,39,45.46,39,46.243v0.658    c0,2.479-1.765,4.632-4.196,5.119L34,52.18V57h-4v-4.82L29.196,52.02z M24,31v-6.556C24.591,24.788,25.268,25,26,25h12    c0.732,0,1.409-0.212,2-0.556V31c0,4.411-3.589,8-8,8S24,35.411,24,31z M31.384,7.031C31.589,7.021,31.792,7,32,7    c0.208,0,0.411,0.021,0.617,0.031l0.019,0.019c3.221,3.222,5.073,7.436,5.316,11.95H26.049c0.242-4.514,2.094-8.728,5.317-11.95    L31.384,7.031z M42,21h2v2.026c-0.584-0.442-1.257-0.773-2-0.924V21z M40,21c0,1.103-0.897,2-2,2H26c-1.103,0-2-0.897-2-2H40z     M22,22.101c-0.743,0.152-1.416,0.482-2,0.924V21h2V22.101z M32,44.333l-2-2.666v-0.868C30.646,40.93,31.315,41,32,41    s1.354-0.07,2-0.202v0.868L32,44.333z M28.598,43.131L30.6,45.8l-1.884,1.413l-0.658-3.947L28.598,43.131z M35.402,43.131    l0.54,0.135l-0.658,3.947L33.4,45.8L35.402,43.131z M36,41.219v-1.06c0.166-0.073,0.328-0.154,0.489-0.236    c0.503,0.535,0.935,1.118,1.292,1.741L36,41.219z M28,40.159v1.06l-1.781,0.445c0.357-0.623,0.789-1.206,1.292-1.741    C27.672,40.005,27.834,40.086,28,40.159z M36,59v2h-8v-2H36z M36,57v-3h7.586l0.828,0.828C44.792,55.207,45,55.709,45,56.243V61    h-7v-4H36z M42,29.816v-5.631c1.161,0.414,2,1.514,2,2.816S43.161,29.402,42,29.816z M44,19h-4.049    c-0.202-4.174-1.654-8.111-4.186-11.386C40.542,9.198,44,13.699,44,19z M31,4c0-0.551,0.448-1,1-1s1,0.449,1,1v1.051    C32.668,5.027,32.338,5,32,5s-0.668,0.027-1,0.051V4z M28.236,7.614c-2.533,3.275-3.985,7.212-4.187,11.386H20    C20,13.699,23.459,9.197,28.236,7.614z M20,27c0-1.302,0.839-2.402,2-2.816v5.631C20.839,29.402,20,28.302,20,27z M19,43.708    c0-3.25,1.567-6.21,4.164-8.039c0.653,1.23,1.556,2.305,2.639,3.164C23.997,40.885,23,43.485,23,46.243v0.658    c0,1.964,0.801,3.78,2.117,5.099h-4.703l-0.828-0.828C19.208,50.793,19,50.291,19,49.757V43.708z M19.586,54.828L20.414,54H28v3    h-2v4h-7v-4.757C19,55.709,19.208,55.207,19.586,54.828z M13,50.034c0-2.384,1.677-4.413,4-4.889v4.612    c0,1.068,0.416,2.072,1.172,2.829L18.586,53l-0.414,0.414C17.416,54.17,17,55.175,17,56.243V61h-4V50.034z M51,61h-4v-4.757    c0-1.068-0.416-2.072-1.172-2.829L45.414,53l0.414-0.414C46.584,51.83,47,50.825,47,49.757v-4.612c2.323,0.476,4,2.504,4,4.889V61    z"/>
	</g>
</g>
</svg>
