<?xml version="1.0" encoding="iso-8859-1"?>
<!-- Generator: Adobe Illustrator 22.1.0, SVG Export Plug-In . SVG Version: 6.00 Build 0)  -->
<svg xmlns="http://www.w3.org/2000/svg" xmlns:xlink="http://www.w3.org/1999/xlink" version="1.1" id="Layer_1_1_" x="0px" y="0px" viewBox="0 0 64 64" style="enable-background:new 0 0 64 64;" xml:space="preserve" width="512" height="512">
<g>
	<g>
		<path style="fill:#69D6F4;" d="M61.41,50.59C61.78,50.95,62,51.45,62,52c0,1.1-0.9,2-2,2h-9c-0.55,0-1.05,0.22-1.41,0.59    C49.22,54.95,49,55.45,49,56c0,1.1,0.9,2,2,2h5c0.55,0,1.05,0.22,1.41,0.59C57.78,58.95,58,59.45,58,60c0,1.1-0.9,2-2,2H34v-0.14    c6.36-0.84,11.46-5.68,12.71-11.91L47,50h6h7C60.55,50,61.05,50.22,61.41,50.59z"/>
		<path style="fill:#69D6F4;" d="M30,61.86V62h-9H8c-0.55,0-1.05-0.22-1.41-0.59C6.22,61.05,6,60.55,6,60c0-1.1,0.9-2,2-2h5    c0.55,0,1.05-0.22,1.41-0.59C14.78,57.05,15,56.55,15,56c0-1.1-0.9-2-2-2h-3H4c-0.55,0-1.05-0.22-1.41-0.59    C2.22,53.05,2,52.55,2,52c0-1.1,0.9-2,2-2h13l0.29-0.05C18.54,56.18,23.64,61.02,30,61.86z"/>
		<path style="fill:#FFEAA7;" d="M54.45,37c-1.09,4.93-3.76,9.26-7.45,12.44l-0.19-0.03c0.02-0.13,0.04-0.27,0.05-0.41    c0.09-0.65,0.14-1.32,0.14-2s-0.05-1.35-0.14-2c-0.26-1.99-0.91-3.85-1.87-5.5L45,39.49c0.45-0.79,0.84-1.62,1.14-2.49H54.45z"/>
		<path style="fill:#FFEAA7;" d="M47.63,15.14C51,18.25,53.42,22.36,54.44,27h-8.3c-1.5-4.26-4.88-7.64-9.14-9.14v-8.3    C41.05,10.45,44.7,12.42,47.63,15.14z"/>
		<path style="fill:#FFEAA7;" d="M17.14,49c0.02,0.21,0.05,0.42,0.09,0.62c-3.81-3.18-6.57-7.59-7.68-12.62h8.31    c0.3,0.87,0.69,1.7,1.14,2.49l0.01,0.01c-0.96,1.65-1.61,3.51-1.87,5.5C17.05,45.65,17,46.32,17,47S17.05,48.35,17.14,49z"/>
		<path style="fill:#FFEAA7;" d="M27,9.56v8.3c-4.26,1.5-7.64,4.88-9.14,9.14h-8.3c1.02-4.65,3.45-8.76,6.83-11.87    C19.32,12.41,22.96,10.45,27,9.56z"/>
		<path style="fill:#FF826E;" d="M55,32c0,1.72-0.19,3.39-0.55,5h-8.31C46.7,35.44,47,33.76,47,32c0-1.75-0.3-3.43-0.86-5h8.3    C54.81,28.61,55,30.28,55,32z"/>
		<path style="fill:#FF826E;" d="M9.56,27h8.3C17.3,28.57,17,30.25,17,32c0,1.76,0.3,3.44,0.86,5H9.55C9.19,35.39,9,33.72,9,32    C9,30.28,9.19,28.61,9.56,27z"/>
		<path style="fill:#FF826E;" d="M37,9.56v8.3C35.43,17.3,33.75,17,32,17s-3.43,0.3-5,0.86v-8.3C28.61,9.19,30.28,9,32,9    C33.72,9,35.39,9.19,37,9.56z"/>
		<path style="fill:#E6E9ED;" d="M46.86,45H41l-0.21,0.05c-0.76-3.41-3.43-6.08-6.84-6.84L34,38v-5.86    c4.7,0.62,8.71,3.42,10.99,7.36C45.95,41.15,46.6,43.01,46.86,45z"/>
		<path style="fill:#E6E9ED;" d="M41,49h5.86c-0.01,0.14-0.03,0.28-0.05,0.41c-0.03,0.18-0.07,0.36-0.1,0.54    C45.46,56.18,40.36,61.02,34,61.86V56l-0.05-0.21c3.41-0.76,6.08-3.43,6.84-6.84L41,49z"/>
		<path style="fill:#E6E9ED;" d="M17.29,49.95c-0.02-0.11-0.04-0.22-0.06-0.33c-0.04-0.2-0.07-0.41-0.09-0.62H23l0.21-0.05    c0.76,3.41,3.43,6.08,6.84,6.84L30,56v5.86C23.64,61.02,18.54,56.18,17.29,49.95z"/>
		<path style="fill:#E6E9ED;" d="M30,38l0.05,0.21c-3.41,0.76-6.08,3.43-6.84,6.84L23,45h-5.86c0.26-1.99,0.91-3.85,1.87-5.5    c2.28-3.94,6.29-6.74,10.99-7.36V38z"/>
		<path style="fill:#FF826E;" d="M46.86,45c0.09,0.65,0.14,1.32,0.14,2s-0.05,1.35-0.14,2H41l-0.21-0.05C40.93,48.32,41,47.67,41,47    s-0.07-1.32-0.21-1.95L41,45H46.86z"/>
		<path style="fill:#FF826E;" d="M34,56v5.86C33.35,61.95,32.68,62,32,62s-1.35-0.05-2-0.14V56l0.05-0.21    C30.68,55.93,31.33,56,32,56c0.67,0,1.32-0.07,1.95-0.21L34,56z"/>
		<path style="fill:#FF826E;" d="M34,38l-0.05,0.21C33.32,38.07,32.67,38,32,38c-0.67,0-1.32,0.07-1.95,0.21L30,38v-5.86    c0.65-0.09,1.32-0.14,2-0.14s1.35,0.05,2,0.14V38z"/>
		<path style="fill:#FF826E;" d="M23,47c0,0.67,0.07,1.32,0.21,1.95L23,49h-5.86C17.05,48.35,17,47.68,17,47s0.05-1.35,0.14-2H23    l0.21,0.05C23.07,45.68,23,46.33,23,47z"/>
	</g>
	<g>
		<path d="M60,49h-7v2h7c0.551,0,1,0.449,1,1s-0.449,1-1,1h-9c-1.654,0-3,1.346-3,3s1.346,3,3,3h5c0.551,0,1,0.449,1,1s-0.449,1-1,1    H39.729c3.794-2.103,6.633-5.706,7.745-10H51v-2h-2.07C53.439,44.508,56,38.409,56,32c0-6.857-2.896-13.047-7.523-17.425    l-1.619-3.777C44.308,4.846,38.476,1,32,1c-2.64,0-5.267,0.655-7.596,1.896l0.94,1.766C27.385,3.574,29.687,3,32,3    c5.674,0,10.785,3.37,13.02,8.585l0.159,0.372C41.393,9.459,36.865,8,32,8s-9.393,1.459-13.179,3.957l0.159-0.372    c0.986-2.301,2.569-4.305,4.579-5.796l-1.191-1.606c-2.294,1.702-4.101,3.989-5.226,6.614l-1.619,3.777    C10.896,18.952,8,25.143,8,32c0,6.452,2.544,12.513,7.058,17H4c-1.654,0-3,1.346-3,3s1.346,3,3,3h4v-2H4c-0.551,0-1-0.449-1-1    s0.449-1,1-1h12.527c1.112,4.294,3.951,7.897,7.745,10H21v2h35c1.654,0,3-1.346,3-3s-1.346-3-3-3h-5c-0.551,0-1-0.449-1-1    s0.449-1,1-1h9c1.654,0,3-1.346,3-3S61.654,49,60,49z M31,60.949v-4C31.329,56.982,31.662,57,32,57c0.337,0,0.67-0.021,1-0.054    v4.003C32.668,60.973,32.338,61,32,61S31.332,60.973,31,60.949z M35,60.668v-4.133c1.163-0.366,2.257-0.941,3.238-1.726    l-1.249-1.562C35.555,54.394,33.83,55,32,55c-4.411,0-8-3.589-8-8c0-1.83,0.606-3.555,1.753-4.989l-1.562-1.249    c-0.785,0.982-1.36,2.076-1.726,3.238h-4.133c1.166-5.314,5.354-9.502,10.668-10.668v4.133c-1.163,0.366-2.257,0.941-3.238,1.726    l1.249,1.562C28.445,39.606,30.17,39,32,39c4.411,0,8,3.589,8,8c0,1.83-0.606,3.555-1.753,4.989l1.562,1.249    c0.785-0.982,1.36-2.076,1.726-3.238h4.133C44.502,55.314,40.314,59.502,35,60.668z M22.051,48h-4C18.027,47.668,18,47.338,18,47    s0.027-0.668,0.051-1h4.003C22.021,46.33,22,46.663,22,47C22,47.338,22.018,47.671,22.051,48z M10,32c0-1.366,0.132-2.702,0.371-4    h6.155C16.195,29.281,16,30.617,16,32c0,1.355,0.176,2.699,0.511,4h-6.143C10.129,34.694,10,33.357,10,32z M18,32    c0-7.72,6.28-14,14-14s14,6.28,14,14c0,1.907-0.393,3.787-1.138,5.523C41.945,33.576,37.274,31,32,31s-9.945,2.576-12.862,6.523    C18.393,35.787,18,33.907,18,32z M47.473,28h6.155C53.868,29.298,54,30.634,54,32c0,1.354-0.132,2.691-0.374,4h-6.137    C47.824,34.699,48,33.355,48,32C48,30.617,47.805,29.281,47.473,28z M32,33c0.338,0,0.668,0.027,1,0.051v4    C32.671,37.018,32.338,37,32,37c-0.337,0-0.67,0.021-1,0.054v-4.003C31.332,33.027,31.662,33,32,33z M35,33.332    c5.314,1.166,9.502,5.354,10.668,10.668h-4.129c-0.979-3.105-3.434-5.56-6.539-6.539V33.332z M41.949,46h4    C45.973,46.332,46,46.662,46,47s-0.027,0.668-0.051,1h-4.003C41.979,47.67,42,47.337,42,47C42,46.662,41.982,46.329,41.949,46z     M46.125,39.503c0.26-0.49,0.499-0.99,0.706-1.503h6.332c-0.96,3.387-2.724,6.512-5.169,9.101C47.995,47.067,48,47.034,48,47    C48,44.292,47.318,41.741,46.125,39.503z M53.161,26h-6.339c-1.626-4.001-4.821-7.196-8.822-8.822v-6.339    C45.314,12.915,51.085,18.686,53.161,26z M36,10.371v6.155C34.719,16.195,33.383,16,32,16s-2.719,0.195-4,0.527v-6.155    C29.298,10.132,30.634,10,32,10S34.702,10.132,36,10.371z M26,10.839v6.339c-4.001,1.626-7.196,4.821-8.822,8.822h-6.34    C12.915,18.686,18.686,12.915,26,10.839z M10.829,38h6.34c0.207,0.513,0.446,1.013,0.706,1.503C16.682,41.741,16,44.292,16,47    c0,0.033,0.005,0.064,0.005,0.097C13.553,44.507,11.785,41.394,10.829,38z M18.332,50h4.129c0.979,3.105,3.434,5.56,6.539,6.539    v4.129C23.686,59.502,19.498,55.314,18.332,50z"/>
		<path d="M7,60c0-0.551,0.449-1,1-1h5c1.654,0,3-1.346,3-3s-1.346-3-3-3h-3v2h3c0.551,0,1,0.449,1,1s-0.449,1-1,1H8    c-1.654,0-3,1.346-3,3s1.346,3,3,3h11v-2H8C7.449,61,7,60.551,7,60z"/>
	</g>
</g>
</svg>
