<?xml version="1.0" encoding="iso-8859-1"?>
<!-- Generator: Adobe Illustrator 22.1.0, SVG Export Plug-In . SVG Version: 6.00 Build 0)  -->
<svg xmlns="http://www.w3.org/2000/svg" xmlns:xlink="http://www.w3.org/1999/xlink" version="1.1" id="Layer_1_1_" x="0px" y="0px" viewBox="0 0 64 64" style="enable-background:new 0 0 64 64;" xml:space="preserve" width="512" height="512">
<g>
	<g>
		<path style="fill:#FCD770;" d="M16,20.72c0,0.77-0.09,1.54-0.28,2.28H13c-0.6,0-1.15-0.37-1.37-0.93l-1.26-3.14    C10.15,18.37,9.6,18,9,18s-1.15,0.37-1.37,0.93l-1.26,3.14C6.15,22.63,5.6,23,5,23H2.28C2.09,22.26,2,21.49,2,20.72    c0-1.78,0.48-3.53,1.4-5.05l1.54-2.56c0.04-0.07,0.08-0.15,0.12-0.22l1.05-2.1C6.65,9.69,7.77,9,9,9s2.35,0.69,2.89,1.79l1.05,2.1    c0.04,0.07,0.08,0.15,0.12,0.22l1.54,2.56C15.52,17.19,16,18.94,16,20.72z"/>
		<path style="fill:#838F9B;" d="M13,23h2.72c-0.3,1.31-0.88,2.54-1.69,3.62L13,28H5l-1.03-1.38C3.16,25.54,2.58,24.31,2.28,23H5    c0.6,0,1.15-0.37,1.37-0.93l1.26-3.14C7.85,18.37,8.4,18,9,18s1.15,0.37,1.37,0.93l1.26,3.14C11.85,22.63,12.4,23,13,23z"/>
		<path style="fill:#838F9B;" d="M61,56l-1.01-0.6c-2.59-1.56-4.63-3.9-5.83-6.68c-0.5-1.19-0.85-2.44-1.02-3.72h6.17    C59.63,48.7,60.19,52.37,61,56z"/>
		<path style="fill:#838F9B;" d="M59,37.78c0,0.74,0.01,1.48,0.03,2.22H59h-6v-8h6V37.78z"/>
		<rect x="53" y="18" style="fill:#838F9B;" width="6" height="9"/>
		<path style="fill:#838F9B;" d="M58.53,12.42l-6.13,1.75c-0.83-1.89-2.47-3.33-4.48-3.9L48.57,8l0.57-2L50,3l0.03-0.06    c1.84,0.7,3.5,1.79,4.87,3.16C56.62,7.82,57.89,9.99,58.53,12.42z"/>
		<path style="fill:#838F9B;" d="M44,10l0.07,0.27c-1.16,0.33-2.19,0.95-3.02,1.78c-0.63,0.63-1.14,1.38-1.5,2.21L39,14l-7.38-2.11    c1.45-4.74,5.35-8.41,10.23-9.53L42,3L44,10z"/>
		<polygon style="fill:#838F9B;" points="39,18 39,27 36,27 34,27 31,27 31,18   "/>
		<rect x="31" y="32" style="fill:#838F9B;" width="8" height="11"/>
		<path style="fill:#838F9B;" d="M31,48l7.3,1.83c-1.69,5.74-6.34,10.21-12.18,11.67L26,61l-0.75-3l-0.5-2l-0.57-2.26    c1.61-0.41,3.05-1.24,4.18-2.38c0.98-0.97,1.73-2.18,2.17-3.52L31,48z"/>
		<path style="fill:#838F9B;" d="M19.98,53.77L18.17,61l-0.12,0.54c-3.11-0.74-5.88-2.33-8.07-4.52C8,55.04,6.51,52.58,5.7,49.83    L8,49.25l2-0.5L13,48l0.47-0.16C14.44,50.79,16.91,53.07,19.98,53.77z"/>
		<rect x="5" y="33" style="fill:#838F9B;" width="8" height="10"/>
		<path style="fill:#FFEAA7;" d="M59.31,45h-6.17C53.05,44.35,53,43.7,53,43.04V40h6h0.03C59.07,41.67,59.17,43.34,59.31,45z"/>
		<rect x="53" y="27" style="fill:#FFEAA7;" width="6" height="5"/>
		<path style="fill:#FFEAA7;" d="M59,16v2h-6v-1c0-1.01-0.21-1.97-0.6-2.83l6.13-1.75h0.01C58.84,13.56,59,14.76,59,16z"/>
		<path style="fill:#FFEAA7;" d="M44,10l-2-7l-0.15-0.64C42.86,2.12,43.92,2,45,2c1.77,0,3.47,0.33,5.03,0.94L50,3l-0.86,3l-0.57,2    l-0.65,2.27C47.31,10.09,46.67,10,46,10s-1.32,0.09-1.93,0.27L44,10z"/>
		<path style="fill:#FFEAA7;" d="M39,17v1h-8v-2c0-1.43,0.22-2.81,0.62-4.11L39,14l0.55,0.26C39.2,15.1,39,16.03,39,17z"/>
		<polygon style="fill:#FFEAA7;" points="39,27 39,32 31,32 31,27 34,27 36,27   "/>
		<path style="fill:#FFEAA7;" d="M39,43v2c0,1.68-0.24,3.3-0.7,4.83L31,48l-0.47-0.16C30.84,46.95,31,45.99,31,45v-2H39z"/>
		<path style="fill:#FFEAA7;" d="M26,61l0.12,0.5C24.8,61.83,23.42,62,22,62c-1.36,0-2.68-0.16-3.95-0.46L18.17,61l1.81-7.23    C20.63,53.92,21.31,54,22,54c0.75,0,1.48-0.09,2.18-0.26L24.75,56l0.5,2L26,61z"/>
		<path style="fill:#FFEAA7;" d="M13,45c0,0.99,0.16,1.95,0.47,2.84L13,48l-3,0.75l-2,0.5l-2.3,0.58C5.24,48.3,5,46.68,5,45v-2h8V45    z"/>
		<rect x="5" y="28" style="fill:#FFEAA7;" width="8" height="5"/>
	</g>
	<path d="M61.977,55.783C60.665,49.881,60,43.824,60,37.78V16c0-8.271-6.729-15-15-15S30,7.729,30,16v29c0,4.411-3.589,8-8,8   s-8-3.589-8-8V28.334l0.834-1.112C16.23,25.359,17,23.052,17,20.723c0-1.962-0.534-3.889-1.544-5.572l-1.531-2.552   c-0.03-0.052-0.06-0.104-0.086-0.157l-1.05-2.1C12.221,9.205,11.197,8.414,10,8.126V4.414l1.707-1.707l-1.414-1.414L9,2.586   L7.707,1.293L6.293,2.707L8,4.414v3.712c-1.197,0.288-2.221,1.078-2.789,2.215l-1.05,2.1c-0.026,0.054-0.056,0.105-0.082,0.15   L2.544,15.15C1.534,16.834,1,18.761,1,20.723c0,2.329,0.77,4.637,2.166,6.5L4,28.334V45c0,9.925,8.075,18,18,18s18-8.075,18-18V17   c0-3.309,2.691-6,6-6s6,2.691,6,6v26.043c0,2.099,0.419,4.14,1.246,6.068c1.283,2.996,3.439,5.467,6.234,7.143l3.001,1.802   L61.977,55.783z M58,16v1h-4c0-0.749-0.111-1.471-0.304-2.159l4.084-1.167C57.917,14.43,58,15.205,58,16z M58.029,39H54v-6h4v4.78   C58,38.187,58.023,38.593,58.029,39z M58,31h-4v-3h4V31z M58,26h-4v-7h4V26z M54,43.043V41h4.077c0.038,1.001,0.102,2,0.175,3   h-4.205C54.026,43.682,54,43.364,54,43.043z M38,17h-6v-1c0-0.986,0.12-1.942,0.329-2.866l5.975,1.707   C38.111,15.529,38,16.251,38,17z M38,28v3h-6v-3h2v-2h-2v-7h6v7h-2v2H38z M37.573,48.613l-5.815-1.454   C31.913,46.463,32,45.742,32,45v-1h6v1C38,46.244,37.843,47.45,37.573,48.613z M32,42v-9h6v9H32z M4.259,16.18l1.539-2.565   c0.054-0.091,0.104-0.184,0.152-0.278l1.05-2.1C7.381,10.474,8.147,10,9,10s1.619,0.474,2,1.236l1.05,2.1   c0.048,0.095,0.099,0.188,0.156,0.285l1.535,2.559C14.564,17.552,15,19.123,15,20.723c0,0.428-0.036,0.855-0.099,1.277H13   c-0.193,0-0.371-0.12-0.442-0.301L11.3,18.559C10.922,17.611,10.02,17,9,17s-1.922,0.611-2.3,1.557l-1.258,3.145   C5.371,21.88,5.193,22,5,22H3.099C3.036,21.577,3,21.151,3,20.723C3,19.123,3.436,17.552,4.259,16.18z M3.639,24H5   c1.02,0,1.922-0.611,2.3-1.557l1.258-3.145C8.7,18.941,9.3,18.939,9.442,19.301l1.258,3.141C11.078,23.389,11.98,24,13,24h1.361   c-0.287,0.718-0.661,1.401-1.127,2.021L12.5,27h-7l-0.734-0.978C4.3,25.402,3.926,24.718,3.639,24z M6,29h6v3H6V29z M6,34h6v8H6V34   z M7.005,50.529l1.237-0.309L7.758,48.28l-1.331,0.333C6.157,47.45,6,46.244,6,45v-1h6v1c0,0.742,0.087,1.463,0.241,2.159   L9.758,47.78l0.484,1.939l2.629-0.657c1.128,2.524,3.27,4.494,5.908,5.395l-1.46,5.84C12.544,58.834,8.729,55.186,7.005,50.529z    M26.842,60.247l-0.622-2.489l-1.939,0.484l0.62,2.481C23.958,60.897,22.992,61,22,61c-0.933,0-1.843-0.097-2.733-0.251l1.46-5.839   C21.145,54.963,21.568,55,22,55c0.49,0,0.969-0.047,1.441-0.116l0.34,1.358l1.939-0.484l-0.34-1.358   c2.564-0.925,4.644-2.864,5.749-5.337l5.866,1.467C35.291,55.133,31.542,58.751,26.842,60.247z M39.091,12.986l-6.17-1.763   c1.44-3.626,4.456-6.461,8.207-7.634l1.73,6.055C41.272,10.325,39.954,11.507,39.091,12.986z M49.142,9.645l0.391-1.37   l-1.924-0.549l-0.393,1.377C46.818,9.041,46.414,9,46,9s-0.818,0.041-1.216,0.103l-1.699-5.945C43.712,3.064,44.348,3,45,3   c1.321,0,2.595,0.201,3.797,0.569l-0.616,2.157l1.924,0.549l0.559-1.957c3.074,1.497,5.469,4.163,6.604,7.423l-4.359,1.246   C52.046,11.507,50.728,10.325,49.142,9.645z M55.084,48.324C54.76,47.569,54.519,46.791,54.34,46h4.062   c0.258,2.65,0.637,5.289,1.141,7.902C57.578,52.484,56.048,50.574,55.084,48.324z"/>
</g>
</svg>
