<?xml version="1.0" encoding="iso-8859-1"?>
<!-- Generator: Adobe Illustrator 22.1.0, SVG Export Plug-In . SVG Version: 6.00 Build 0)  -->
<svg xmlns="http://www.w3.org/2000/svg" xmlns:xlink="http://www.w3.org/1999/xlink" version="1.1" id="Layer_1_1_" x="0px" y="0px" viewBox="0 0 64 64" style="enable-background:new 0 0 64 64;" xml:space="preserve" width="512" height="512">
<g>
	<g>
		<path style="fill:#FF826E;" d="M60,2H44c-1.1,0-2,0.9-2,2v12c0,1.1,0.9,2,2,2h13l5,5V4C62,2.9,61.1,2,60,2z"/>
		<path style="fill:#F0D0B4;" d="M24,22v2c0,1.63-0.79,3.09-2,4c-0.83,0.63-1.87,1-3,1s-2.17-0.37-3-1c-1.21-0.91-2-2.37-2-4v-2    c0-2.76,2.24-5,5-5c1.38,0,2.63,0.56,3.54,1.46C23.44,19.37,24,20.62,24,22z"/>
		<path style="fill:#F0D0B4;" d="M10,42v-6l-6.63-5.8C2.5,29.44,2,28.34,2,27.18V15c0-0.55,0.22-1.05,0.59-1.41    C2.95,13.22,3.45,13,4,13c1.1,0,2,0.9,2,2v10.59c0,0.26,0.11,0.52,0.29,0.7l3.54,3.54C10.58,30.58,11.6,31,12.66,31H15    c0.55,0,1-0.45,1-1v-2c0.83,0.63,1.87,1,3,1s2.17-0.37,3-1v2c0,0.55,0.45,1,1,1h2.34c1.06,0,2.08-0.42,2.83-1.17l3.54-3.54    c0.18-0.18,0.29-0.44,0.29-0.7V15c0-1.1,0.9-2,2-2c0.55,0,1.05,0.22,1.41,0.59C35.78,13.95,36,14.45,36,15v12.18    c0,1.16-0.5,2.26-1.37,3.02L28,36v7.83c-0.33,0.1-0.71,0.17-1.18,0.17c-2.59,0-2.59-2-5.17-2s-2.58,2-5.16,2s-2.58-2-5.17-2    c-0.5,0-0.9,0.07-1.24,0.19L10,42z"/>
		<path style="fill:#69D6F4;" d="M57.83,44c-1.78,0-2.34-0.95-3.35-1.54h-0.01l-17.2,1.53L37.15,44c-2.58,0-2.58-2-5.17-2    c-2.11,0-2.5,1.34-3.98,1.83c-0.33,0.1-0.71,0.17-1.18,0.17c-2.59,0-2.59-2-5.17-2s-2.58,2-5.16,2s-2.58-2-5.17-2    c-0.5,0-0.9,0.07-1.24,0.19C8.64,42.7,8.24,44,6.16,44C3.58,44,3.58,42,1,42v6v6v9h62v-9v-6v-6C60.41,42,60.41,44,57.83,44z"/>
		<path style="fill:#AAB2BD;" d="M58.03,32c-2.09,0-4.15,0.27-6.15,0.8c-2,0.54-3.93,1.32-5.74,2.36c-2.72,1.55-5.08,3.6-6.98,6.02    c-0.69,0.89-1.33,1.83-1.89,2.81c-0.96,1.66-1.73,3.45-2.27,5.33c-0.01,0.02-0.01,0.04-0.02,0.06C34.55,50.9,34.22,52.44,34,54    h-2.02c2.59,0,2.59,2,5.17,2c2.58,0,2.58-2,5.17-2c2.58,0,2.58,2,5.16,2c2.59,0,2.59-2,5.17-2c0.53,0,0.95,0.08,1.31,0.22    L54.05,54c-0.26-1.55-0.39-3.13-0.39-4.71c0-0.39,0.01-0.77,0.02-1.16c0.08-1.92,0.8-5.67,0.8-5.67c0.43-1.78,1.02-3.51,1.78-5.18    l2.4-5.28H58.03z"/>
	</g>
	<g>
		<path d="M57.827,61c-0.952,0-1.381-0.332-1.975-0.791C55.155,59.67,54.289,59,52.654,59c-1.634,0-2.5,0.67-3.197,1.209    C48.863,60.668,48.435,61,47.484,61c-0.949,0-1.377-0.332-1.97-0.791C44.818,59.67,43.952,59,42.319,59    c-1.634,0-2.5,0.67-3.196,1.209C38.53,60.668,38.101,61,37.151,61c-0.95,0-1.378-0.332-1.971-0.791    C34.483,59.67,33.618,59,31.984,59c-1.633,0-2.5,0.67-3.195,1.209C28.196,60.668,27.767,61,26.817,61s-1.378-0.332-1.971-0.791    C24.151,59.67,23.285,59,21.651,59c-1.633,0-2.499,0.67-3.194,1.209C17.864,60.668,17.436,61,16.487,61    c-0.948,0-1.376-0.332-1.969-0.791C13.823,59.671,12.958,59,11.325,59s-2.499,0.67-3.194,1.209C7.538,60.668,7.109,61,6.16,61    c-0.948,0-1.375-0.332-1.967-0.791C3.498,59.671,2.632,59,1,59v2c0.948,0,1.375,0.332,1.967,0.791C3.663,62.329,4.528,63,6.16,63    c1.633,0,2.499-0.67,3.195-1.209C9.948,61.332,10.375,61,11.325,61c0.948,0,1.376,0.332,1.969,0.791    C13.989,62.329,14.854,63,16.487,63s2.499-0.67,3.194-1.209C20.274,61.332,20.702,61,21.651,61c0.95,0,1.378,0.332,1.971,0.791    C24.318,62.33,25.184,63,26.817,63c1.634,0,2.5-0.67,3.196-1.209C30.606,61.332,31.034,61,31.984,61s1.378,0.332,1.971,0.791    C34.651,62.33,35.517,63,37.151,63s2.5-0.67,3.196-1.209C40.94,61.332,41.369,61,42.319,61c0.949,0,1.377,0.332,1.97,0.791    C44.985,62.33,45.851,63,47.484,63c1.634,0,2.5-0.67,3.197-1.209C51.274,61.332,51.703,61,52.654,61    c0.952,0,1.381,0.332,1.975,0.791C55.325,62.33,56.192,63,57.827,63c1.635,0,2.502-0.67,3.199-1.209    C61.619,61.332,62.048,61,63,61v-2c-1.635,0-2.501,0.67-3.198,1.209C59.208,60.668,58.779,61,57.827,61z"/>
		<path d="M57.827,43c-0.952,0-1.381-0.332-1.975-0.791c-0.073-0.057-0.156-0.118-0.235-0.177c0.397-1.478,0.915-2.928,1.558-4.343    L60.215,31h-2.188c-4.338,0-8.622,1.138-12.388,3.29c-3.712,2.121-6.742,5.108-8.912,8.67c-0.659-0.088-1.056-0.369-1.548-0.751    C34.483,41.67,33.618,41,31.984,41c-1.473,0-2.321,0.545-2.984,1.047v-5.594l6.292-5.506C36.377,29.998,37,28.626,37,27.185V15    c0-1.654-1.346-3-3-3s-3,1.346-3,3v10.586l-3.536,3.536C26.906,29.68,26.133,30,25.343,30H23v-1.54c1.224-1.099,2-2.688,2-4.46v-2    c0-3.309-2.691-6-6-6s-6,2.691-6,6v2c0,1.771,0.776,3.36,2,4.46V30h-2.343c-0.79,0-1.562-0.32-2.121-0.878L7,25.586V15    c0-1.654-1.346-3-3-3s-3,1.346-3,3v12.185c0,1.441,0.623,2.813,1.708,3.763L9,36.454V41.6c-0.333,0.194-0.613,0.411-0.87,0.609    C7.538,42.668,7.109,43,6.16,43c-0.948,0-1.375-0.332-1.967-0.791C3.498,41.671,2.632,41,1,41v2c0.948,0,1.375,0.332,1.967,0.791    C3.663,44.329,4.528,45,6.16,45c1.633,0,2.499-0.67,3.195-1.209C9.948,43.332,10.375,43,11.325,43    c0.948,0,1.376,0.332,1.969,0.791C13.989,44.329,14.854,45,16.487,45s2.499-0.67,3.194-1.209C20.274,43.332,20.702,43,21.651,43    c0.95,0,1.378,0.332,1.971,0.791C24.318,44.33,25.184,45,26.817,45c1.634,0,2.5-0.67,3.196-1.209    C30.606,43.332,31.034,43,31.984,43s1.378,0.332,1.971,0.791c0.454,0.352,0.986,0.756,1.751,0.997    c-0.469,0.94-0.864,1.923-1.215,2.927C33.895,47.331,33.13,47,31.984,47c-1.633,0-2.5,0.67-3.195,1.209    C28.196,48.668,27.767,49,26.817,49s-1.378-0.332-1.971-0.791C24.151,47.67,23.285,47,21.651,47c-1.633,0-2.499,0.67-3.194,1.209    C17.864,48.668,17.436,49,16.487,49c-0.948,0-1.376-0.332-1.969-0.791C13.823,47.671,12.958,47,11.325,47s-2.499,0.67-3.194,1.209    C7.538,48.668,7.109,49,6.16,49c-0.948,0-1.375-0.332-1.967-0.791C3.498,47.671,2.632,47,1,47v2c0.948,0,1.375,0.332,1.967,0.791    C3.663,50.329,4.528,51,6.16,51c1.633,0,2.499-0.67,3.195-1.209C9.948,49.332,10.375,49,11.325,49    c0.948,0,1.376,0.332,1.969,0.791C13.989,50.329,14.854,51,16.487,51s2.499-0.67,3.194-1.209C20.274,49.332,20.702,49,21.651,49    c0.95,0,1.378,0.332,1.971,0.791C24.318,50.33,25.184,51,26.817,51c1.634,0,2.5-0.67,3.196-1.209    C30.606,49.332,31.034,49,31.984,49c0.901,0,1.335,0.302,1.883,0.724c-0.299,1.122-0.541,2.261-0.728,3.407    C32.8,53.05,32.421,53,31.984,53c-1.633,0-2.5,0.67-3.195,1.209C28.196,54.668,27.767,55,26.817,55s-1.378-0.332-1.971-0.791    C24.151,53.67,23.285,53,21.651,53c-1.633,0-2.499,0.67-3.194,1.209C17.864,54.668,17.436,55,16.487,55    c-0.948,0-1.376-0.332-1.969-0.791C13.823,53.671,12.958,53,11.325,53s-2.499,0.67-3.194,1.209C7.538,54.668,7.109,55,6.16,55    c-0.948,0-1.375-0.332-1.967-0.791C3.498,53.671,2.632,53,1,53v2c0.948,0,1.375,0.332,1.967,0.791C3.663,56.329,4.528,57,6.16,57    c1.633,0,2.499-0.67,3.195-1.209C9.948,55.332,10.375,55,11.325,55c0.948,0,1.376,0.332,1.969,0.791    C13.989,56.329,14.854,57,16.487,57s2.499-0.67,3.194-1.209C20.274,55.332,20.702,55,21.651,55c0.95,0,1.378,0.332,1.971,0.791    C24.318,56.33,25.184,57,26.817,57c1.634,0,2.5-0.67,3.196-1.209C30.606,55.332,31.034,55,31.984,55s1.378,0.332,1.971,0.791    C34.651,56.33,35.517,57,37.151,57s2.5-0.67,3.196-1.209C40.94,55.332,41.369,55,42.319,55c0.949,0,1.377,0.332,1.97,0.791    C44.985,56.33,45.851,57,47.484,57c1.634,0,2.5-0.67,3.197-1.209C51.274,55.332,51.703,55,52.654,55    c0.952,0,1.381,0.332,1.975,0.791C55.325,56.33,56.192,57,57.827,57c1.635,0,2.502-0.67,3.199-1.209    C61.619,55.332,62.048,55,63,55v-2c-1.635,0-2.501,0.67-3.198,1.209C59.208,54.668,58.779,55,57.827,55    c-0.952,0-1.381-0.332-1.975-0.791c-0.25-0.193-0.524-0.403-0.846-0.593c-0.195-1.25-0.297-2.518-0.322-3.782    C55.372,50.365,56.234,51,57.827,51c1.635,0,2.502-0.67,3.199-1.209C61.619,49.332,62.048,49,63,49v-2    c-1.635,0-2.501,0.67-3.198,1.209C59.208,48.668,58.779,49,57.827,49c-0.952,0-1.381-0.332-1.975-0.791    c-0.31-0.239-0.677-0.508-1.126-0.735c0.071-1.114,0.211-2.216,0.413-3.305C55.761,44.6,56.564,45,57.827,45    c1.635,0,2.502-0.67,3.199-1.209C61.619,43.332,62.048,43,63,43v-2c-1.635,0-2.501,0.67-3.198,1.209    C59.208,42.668,58.779,43,57.827,43z M15,22c0-2.206,1.794-4,4-4s4,1.794,4,4v2c0,2.206-1.794,4-4,4s-4-1.794-4-4V22z     M24.847,42.209C24.151,41.67,23.285,41,21.651,41c-1.633,0-2.499,0.67-3.194,1.209C17.864,42.668,17.436,43,16.487,43    c-0.948,0-1.376-0.332-1.969-0.791C13.823,41.671,12.958,41,11.325,41c-0.115,0-0.217,0.01-0.325,0.017v-5.47l-6.975-6.104    C3.374,28.873,3,28.05,3,27.185V15c0-0.551,0.449-1,1-1s1,0.449,1,1v10.586C5,26.12,5.208,26.622,5.586,27l3.536,3.536    C10.066,31.48,11.321,32,12.657,32H15c1.103,0,2-0.897,2-2v-0.35c0.627,0.223,1.298,0.35,2,0.35s1.373-0.128,2-0.35V30    c0,1.103,0.897,2,2,2h2.343c1.335,0,2.591-0.52,3.535-1.464L32.414,27C32.792,26.622,33,26.12,33,25.586V15c0-0.551,0.449-1,1-1    s1,0.449,1,1v12.185c0,0.865-0.374,1.688-1.025,2.258L27,35.546v7.436C26.936,42.986,26.887,43,26.817,43    C25.868,43,25.439,42.668,24.847,42.209z M52.654,53c-1.634,0-2.5,0.67-3.197,1.209C48.863,54.668,48.435,55,47.484,55    c-0.949,0-1.377-0.332-1.97-0.791C44.818,53.67,43.952,53,42.319,53c-1.634,0-2.5,0.67-3.196,1.209    C38.53,54.668,38.101,55,37.151,55c-0.95,0-1.378-0.332-1.971-0.791c-0.057-0.044-0.118-0.09-0.178-0.136    c0.213-1.485,0.528-2.971,0.94-4.415c1.657-5.799,5.453-10.64,10.689-13.632c3.196-1.826,6.797-2.858,10.469-3.007l-1.747,3.842    c-1.786,3.929-2.692,8.111-2.692,12.427c0,1.242,0.103,2.488,0.257,3.725C52.83,53.009,52.748,53,52.654,53z"/>
		<path d="M37.866,50.208c-0.148,0.52-0.283,1.042-0.404,1.567l1.949,0.449c0.113-0.492,0.239-0.981,0.378-1.467    c1.317-4.61,4.298-8.518,8.392-11.002l-1.037-1.71C42.617,40.792,39.322,45.111,37.866,50.208z"/>
		<path d="M49.243,36.929l0.838,1.816c0.741-0.342,1.51-0.638,2.285-0.88l-0.596-1.909C50.914,36.224,50.063,36.551,49.243,36.929z"/>
		<path d="M60,1H44c-1.654,0-3,1.346-3,3v12c0,1.654,1.346,3,3,3h12.586L63,25.414V4C63,2.346,61.654,1,60,1z M61,20.586L57.414,17    H44c-0.551,0-1-0.449-1-1V4c0-0.551,0.449-1,1-1h16c0.551,0,1,0.449,1,1V20.586z"/>
		<rect x="51" y="5" width="2" height="6"/>
		<rect x="51" y="13" width="2" height="2"/>
	</g>
</g>
</svg>
