<?xml version="1.0" encoding="iso-8859-1"?>
<!-- Generator: Adobe Illustrator 22.1.0, SVG Export Plug-In . SVG Version: 6.00 Build 0)  -->
<svg xmlns="http://www.w3.org/2000/svg" xmlns:xlink="http://www.w3.org/1999/xlink" version="1.1" id="Layer_1_1_" x="0px" y="0px" viewBox="0 0 64 64" style="enable-background:new 0 0 64 64;" xml:space="preserve" width="512" height="512">
<g>
	<g>
		<path style="fill:#B4DD7F;" d="M46,3v2c0,0.55-0.45,1-1,1h-1H22h-1c-0.55,0-1-0.45-1-1V3c0-0.55,0.45-1,1-1h24    C45.55,2,46,2.45,46,3z"/>
		<polygon style="fill:#E6E9ED;" points="44,6 44,16 40,16 40,10 36,10 36,16 17,16 22,6   "/>
		<rect x="36" y="10" style="fill:#FFEAA7;" width="4" height="6"/>
		<path style="fill:#B4DD7F;" d="M54,17v2c0,0.55-0.45,1-1,1h-1H11H9H4H3c-0.55,0-1-0.45-1-1v-2c0-0.55,0.45-1,1-1h14h19h4h4h9    C53.55,16,54,16.45,54,17z"/>
		<path style="fill:#AAB2BD;" d="M38.19,35.96l-0.33,1.23L37.15,37c-2.58,0-2.58-2-5.17-2c-2.58,0-2.58,2-5.16,2    c-2.59,0-2.59-2-5.17-2s-2.58,2-5.16,2s-2.58-2-5.17-2c-0.91,0-1.5,0.25-1.99,0.57c-1.02-0.52-1.8-1.44-2.09-2.6L4,20h5h2h41    l-1.11,4.43C49.98,24.15,49.01,24,48,24c-1.45,0-2.82,0.31-4.06,0.87C40.44,26.42,38,29.93,38,34    C38,34.67,38.07,35.32,38.19,35.96z"/>
		<circle style="fill:#FCD770;" cx="29" cy="27" r="2"/>
		<circle style="fill:#FCD770;" cx="21" cy="27" r="2"/>
		<circle style="fill:#FCD770;" cx="13" cy="27" r="2"/>
		<path style="fill:#69D6F4;" d="M53.15,37.19l-5.15,4l-5.164-4H37.86L37.15,37c-2.58,0-2.58-2-5.17-2c-2.58,0-2.58,2-5.16,2    c-2.59,0-2.59-2-5.17-2s-2.58,2-5.16,2s-2.58-2-5.17-2c-0.91,0-1.5,0.25-1.99,0.57C8.42,36.16,7.83,37,6.16,37    C3.58,37,3.58,35,1,35v5v5v5v5v8h62v-8v-3v-2V37h-7L53.15,37.19z"/>
		<path style="fill:#E6E9ED;" d="M45,43c0,0.19,0.02,0.37,0.05,0.55h-0.02c-1.68-0.52-3.17-1.47-4.33-2.72l1.26-5.65    c0.03-0.12,0.04-0.24,0.04-0.37V34.7h0.04c0.24,2.1,1.57,3.86,3.41,4.73C45.16,39.88,45,40.42,45,41V43z"/>
		<path style="fill:#E6E9ED;" d="M51,43v-2c0-0.58-0.16-1.12-0.45-1.57c1.91-0.9,3.27-2.78,3.43-4.98h0.04    C54.01,34.53,54,34.61,54,34.7v0.11c0,0.13,0.01,0.25,0.04,0.37l1.26,5.66c-1.16,1.24-2.64,2.18-4.3,2.7l-0.05-0.01    C50.98,43.36,51,43.18,51,43z"/>
		<path style="fill:#E6E9ED;" d="M54,34c0-2.2-1.19-4.13-2.96-5.17L52,25l0.06-0.13C55.56,26.42,58,29.93,58,34    c0,0.67-0.07,1.32-0.19,1.96l-0.47-1.71C57.14,33.51,56.47,33,55.7,33c-0.85,0-1.56,0.63-1.68,1.45h-0.04    C53.99,34.3,54,34.15,54,34z"/>
		<path style="fill:#E6E9ED;" d="M40.3,33c-0.77,0-1.44,0.51-1.64,1.25l-0.47,1.71C38.07,35.32,38,34.67,38,34    c0-4.07,2.44-7.58,5.94-9.13L44,25l0.96,3.83C43.19,29.87,42,31.8,42,34c0,0.24,0.01,0.47,0.04,0.7H42C42,33.76,41.24,33,40.3,33z    "/>
		<path style="fill:#F0D0B4;" d="M50,45.23C49.47,45.71,48.77,46,48,46s-1.47-0.29-2-0.77c-0.49-0.43-0.83-1.02-0.95-1.68    C45.02,43.37,45,43.19,45,43v-2c0-0.58,0.16-1.12,0.45-1.57C45.97,38.57,46.92,38,48,38c0.83,0,1.58,0.34,2.12,0.88    c0.16,0.16,0.31,0.35,0.43,0.55C50.84,39.88,51,40.42,51,41v2c0,0.18-0.02,0.36-0.05,0.53C50.84,44.2,50.49,44.8,50,45.23z"/>
		<path style="fill:#F0D0B4;" d="M37.86,37.19l0.33-1.23l0.47-1.71c0.2-0.74,0.87-1.25,1.64-1.25c0.94,0,1.7,0.76,1.7,1.7v0.11    c0,0.13-0.01,0.25-0.04,0.37l-1.26,5.65L40,44l3.59,3.59c0.26,0.26,0.62,0.41,1,0.41c0.78,0,1.41-0.63,1.41-1.41v-1.36    c0.53,0.48,1.23,0.77,2,0.77s1.47-0.29,2-0.77v1.36c0,0.78,0.63,1.41,1.41,1.41c0.38,0,0.74-0.15,1-0.41L56,44l-0.7-3.16    l-1.26-5.66C54.01,35.06,54,34.94,54,34.81V34.7c0-0.09,0.01-0.17,0.02-0.25C54.14,33.63,54.85,33,55.7,33    c0.77,0,1.44,0.51,1.64,1.25l0.47,1.71l2.06,7.57c0.09,0.31,0.13,0.63,0.13,0.96c0,0.97-0.38,1.89-1.07,2.58l-3.81,3.81L54,52v3    l-0.08,0.2c-0.35-0.12-0.76-0.2-1.27-0.2c-2.58,0-2.58,2-5.17,2c-2.58,0-2.58-2-5.16-2c-0.11,0-0.22,0-0.32,0.01V55v-3l-1.52-1.52    l-3.41-3.41c-0.03-0.03-0.05-0.05-0.07-0.08c-0.65-0.68-1-1.57-1-2.5c0-0.33,0.04-0.65,0.13-0.96l0.43-1.57L37.86,37.19z"/>
		<path style="fill:#FF826E;" d="M52.06,24.87L52,25l-0.96,3.83C50.15,28.3,49.11,28,48,28s-2.15,0.3-3.04,0.83L44,25l-0.06-0.13    C45.18,24.31,46.55,24,48,24c1.01,0,1.98,0.15,2.89,0.43C51.29,24.55,51.69,24.69,52.06,24.87z"/>
	</g>
	<g>
		<path d="M57.827,61c-0.952,0-1.381-0.332-1.975-0.791C55.155,59.67,54.289,59,52.654,59c-1.634,0-2.5,0.67-3.197,1.209    C48.863,60.668,48.435,61,47.484,61c-0.949,0-1.377-0.332-1.97-0.791C44.818,59.671,43.952,59,42.319,59    c-1.634,0-2.5,0.671-3.196,1.209C38.53,60.668,38.101,61,37.151,61c-0.95,0-1.378-0.332-1.971-0.791    C34.483,59.671,33.618,59,31.984,59c-1.633,0-2.5,0.671-3.195,1.209C28.196,60.668,27.767,61,26.817,61s-1.378-0.332-1.971-0.791    C24.151,59.671,23.285,59,21.651,59c-1.633,0-2.499,0.671-3.194,1.209C17.864,60.668,17.436,61,16.487,61    c-0.948,0-1.376-0.332-1.969-0.79C13.823,59.671,12.958,59,11.325,59s-2.499,0.671-3.194,1.209C7.538,60.668,7.109,61,6.16,61    c-0.948,0-1.375-0.331-1.967-0.79C3.498,59.671,2.632,59,1,59v2c0.948,0,1.375,0.331,1.967,0.79C3.663,62.329,4.528,63,6.16,63    c1.633,0,2.499-0.671,3.195-1.209C9.948,61.332,10.375,61,11.325,61c0.948,0,1.376,0.332,1.969,0.79    c0.695,0.539,1.561,1.21,3.193,1.21s2.499-0.671,3.194-1.209C20.274,61.332,20.702,61,21.651,61c0.95,0,1.378,0.332,1.971,0.791    C24.318,62.329,25.184,63,26.817,63c1.634,0,2.5-0.671,3.196-1.209C30.606,61.332,31.034,61,31.984,61s1.378,0.332,1.971,0.791    C34.651,62.329,35.517,63,37.151,63s2.5-0.671,3.196-1.209C40.94,61.332,41.369,61,42.319,61c0.949,0,1.377,0.332,1.97,0.791    C44.985,62.329,45.851,63,47.484,63c1.634,0,2.5-0.67,3.197-1.209C51.274,61.332,51.703,61,52.654,61    c0.952,0,1.381,0.332,1.975,0.791C55.325,62.33,56.192,63,57.827,63c1.635,0,2.502-0.67,3.199-1.209    C61.619,61.332,62.048,61,63,61v-2c-1.635,0-2.501,0.67-3.198,1.209C59.208,60.668,58.779,61,57.827,61z"/>
		<rect x="23" y="10" width="2" height="2"/>
		<rect x="27" y="10" width="2" height="2"/>
		<rect x="31" y="10" width="2" height="2"/>
		<path d="M13,24c-1.654,0-3,1.346-3,3s1.346,3,3,3s3-1.346,3-3S14.654,24,13,24z M13,28c-0.551,0-1-0.448-1-1s0.449-1,1-1    s1,0.448,1,1S13.551,28,13,28z"/>
		<path d="M21,24c-1.654,0-3,1.346-3,3s1.346,3,3,3s3-1.346,3-3S22.654,24,21,24z M21,28c-0.551,0-1-0.448-1-1s0.449-1,1-1    s1,0.448,1,1S21.551,28,21,28z"/>
		<path d="M29,24c-1.654,0-3,1.346-3,3s1.346,3,3,3s3-1.346,3-3S30.654,24,29,24z M29,28c-0.551,0-1-0.448-1-1s0.449-1,1-1    s1,0.448,1,1S29.551,28,29,28z"/>
		<path d="M63,36h-4.145l-0.029-0.106C58.934,35.27,59,34.636,59,34c0-4.622-2.87-8.581-6.918-10.206L52.781,21H53    c1.103,0,2-0.897,2-2v-2c0-1.103-0.897-2-2-2h-8V7c1.103,0,2-0.897,2-2V3c0-1.103-0.897-2-2-2H21c-1.103,0-2,0.897-2,2v2    c0,0.903,0.605,1.659,1.428,1.907L16.382,15H3c-1.103,0-2,0.897-2,2v2c0,1.103,0.897,2,2,2h0.219l3.053,12.212    c0.227,0.908,0.724,1.703,1.384,2.344C7.257,35.824,6.844,36,6.16,36c-0.948,0-1.375-0.331-1.967-0.79C3.498,34.671,2.632,34,1,34    v2c0.948,0,1.375,0.331,1.967,0.79C3.663,37.329,4.528,38,6.16,38c1.633,0,2.499-0.671,3.195-1.209    C9.948,36.332,10.375,36,11.325,36c0.948,0,1.376,0.332,1.969,0.79c0.695,0.539,1.561,1.21,3.193,1.21s2.499-0.671,3.194-1.209    C20.274,36.332,20.702,36,21.651,36c0.95,0,1.378,0.332,1.971,0.791C24.318,37.329,25.184,38,26.817,38    c1.634,0,2.5-0.671,3.196-1.209C30.606,36.332,31.034,36,31.984,36s1.378,0.332,1.971,0.791c0.614,0.475,1.363,1.051,2.652,1.181    l-0.739,2.709c-0.232-0.131-0.449-0.286-0.689-0.472C34.483,39.671,33.618,39,31.984,39c-1.633,0-2.5,0.671-3.195,1.209    C28.196,40.668,27.767,41,26.817,41s-1.378-0.332-1.971-0.791C24.151,39.671,23.285,39,21.651,39    c-1.633,0-2.499,0.671-3.194,1.209C17.864,40.668,17.436,41,16.487,41c-0.948,0-1.376-0.332-1.969-0.79    C13.823,39.671,12.958,39,11.325,39s-2.499,0.671-3.194,1.209C7.538,40.668,7.109,41,6.16,41c-0.948,0-1.375-0.331-1.967-0.79    C3.498,39.671,2.632,39,1,39v2c0.948,0,1.375,0.331,1.967,0.79C3.663,42.329,4.528,43,6.16,43c1.633,0,2.499-0.671,3.195-1.209    C9.948,41.332,10.375,41,11.325,41c0.948,0,1.376,0.332,1.969,0.79c0.695,0.539,1.561,1.21,3.193,1.21s2.499-0.671,3.194-1.209    C20.274,41.332,20.702,41,21.651,41c0.95,0,1.378,0.332,1.971,0.791C24.318,42.329,25.184,43,26.817,43    c1.634,0,2.5-0.671,3.196-1.209C30.606,41.332,31.034,41,31.984,41s1.378,0.332,1.971,0.791c0.376,0.291,0.807,0.617,1.377,0.859    l-0.168,0.616C35.055,43.664,35,44.075,35,44.488c0,0.213,0.034,0.422,0.063,0.632C34.386,44.6,33.53,44,31.984,44    c-1.633,0-2.5,0.671-3.195,1.209C28.196,45.668,27.767,46,26.817,46s-1.378-0.332-1.971-0.791C24.151,44.671,23.285,44,21.651,44    c-1.633,0-2.499,0.671-3.194,1.209C17.864,45.668,17.436,46,16.487,46c-0.948,0-1.376-0.332-1.969-0.79    C13.823,44.671,12.958,44,11.325,44s-2.499,0.671-3.194,1.209C7.538,45.668,7.109,46,6.16,46c-0.948,0-1.375-0.331-1.967-0.79    C3.498,44.671,2.632,44,1,44v2c0.948,0,1.375,0.331,1.967,0.79C3.663,47.329,4.528,48,6.16,48c1.633,0,2.499-0.671,3.195-1.209    C9.948,46.332,10.375,46,11.325,46c0.948,0,1.376,0.332,1.969,0.79c0.695,0.539,1.561,1.21,3.193,1.21s2.499-0.671,3.194-1.209    C20.274,46.332,20.702,46,21.651,46c0.95,0,1.378,0.332,1.971,0.791C24.318,47.329,25.184,48,26.817,48    c1.634,0,2.5-0.671,3.196-1.209C30.606,46.332,31.034,46,31.984,46s1.378,0.332,1.971,0.791c0.606,0.468,1.341,1.036,2.598,1.176    l2.382,2.382C38.432,50.73,37.996,51,37.151,51c-0.95,0-1.378-0.332-1.971-0.791C34.483,49.671,33.618,49,31.984,49    c-1.633,0-2.5,0.671-3.195,1.209C28.196,50.668,27.767,51,26.817,51s-1.378-0.332-1.971-0.791C24.151,49.671,23.285,49,21.651,49    c-1.633,0-2.499,0.671-3.194,1.209C17.864,50.668,17.436,51,16.487,51c-0.948,0-1.376-0.332-1.969-0.79    C13.823,49.671,12.958,49,11.325,49s-2.499,0.671-3.194,1.209C7.538,50.668,7.109,51,6.16,51c-0.948,0-1.375-0.331-1.967-0.79    C3.498,49.671,2.632,49,1,49v2c0.948,0,1.375,0.331,1.967,0.79C3.663,52.329,4.528,53,6.16,53c1.633,0,2.499-0.671,3.195-1.209    C9.948,51.332,10.375,51,11.325,51c0.948,0,1.376,0.332,1.969,0.79c0.695,0.539,1.561,1.21,3.193,1.21s2.499-0.671,3.194-1.209    C20.274,51.332,20.702,51,21.651,51c0.95,0,1.378,0.332,1.971,0.791C24.318,52.329,25.184,53,26.817,53    c1.634,0,2.5-0.671,3.196-1.209C30.606,51.332,31.034,51,31.984,51s1.378,0.332,1.971,0.791C34.651,52.329,35.517,53,37.151,53    s2.5-0.671,3.196-1.209c0.006-0.004,0.012-0.008,0.017-0.012L41,52.414v1.763c-0.833,0.234-1.399,0.662-1.877,1.032    C38.53,55.668,38.101,56,37.151,56c-0.95,0-1.378-0.332-1.971-0.791C34.483,54.671,33.618,54,31.984,54    c-1.633,0-2.5,0.671-3.195,1.209C28.196,55.668,27.767,56,26.817,56s-1.378-0.332-1.971-0.791C24.151,54.671,23.285,54,21.651,54    c-1.633,0-2.499,0.671-3.194,1.209C17.864,55.668,17.436,56,16.487,56c-0.948,0-1.376-0.332-1.969-0.79    C13.823,54.671,12.958,54,11.325,54s-2.499,0.671-3.194,1.209C7.538,55.668,7.109,56,6.16,56c-0.948,0-1.375-0.331-1.967-0.79    C3.498,54.671,2.632,54,1,54v2c0.948,0,1.375,0.331,1.967,0.79C3.663,57.329,4.528,58,6.16,58c1.633,0,2.499-0.671,3.195-1.209    C9.948,56.332,10.375,56,11.325,56c0.948,0,1.376,0.332,1.969,0.79c0.695,0.539,1.561,1.21,3.193,1.21s2.499-0.671,3.194-1.209    C20.274,56.332,20.702,56,21.651,56c0.95,0,1.378,0.332,1.971,0.791C24.318,57.329,25.184,58,26.817,58    c1.634,0,2.5-0.671,3.196-1.209C30.606,56.332,31.034,56,31.984,56s1.378,0.332,1.971,0.791C34.651,57.329,35.517,58,37.151,58    s2.5-0.671,3.196-1.209C40.94,56.332,41.369,56,42.319,56c0.949,0,1.377,0.332,1.97,0.791C44.985,57.329,45.851,58,47.484,58    c1.634,0,2.5-0.67,3.197-1.209C51.274,56.332,51.703,56,52.654,56c0.952,0,1.381,0.332,1.975,0.791    C55.325,57.33,56.192,58,57.827,58c1.635,0,2.502-0.67,3.199-1.209C61.619,56.332,62.048,56,63,56v-2    c-1.635,0-2.501,0.67-3.198,1.209C59.208,55.668,58.779,56,57.827,56c-0.952,0-1.381-0.332-1.975-0.791    C55.6,55.014,55.325,54.803,55,54.612v-2.198l0.201-0.201C55.814,52.626,56.606,53,57.827,53c1.635,0,2.502-0.67,3.199-1.209    C61.619,51.332,62.048,51,63,51v-2c-1.635,0-2.501,0.67-3.198,1.209C59.208,50.668,58.779,51,57.827,51    c-0.5,0-0.853-0.095-1.164-0.248l2.975-2.975C60.503,46.911,61,45.713,61,44.488c0-0.413-0.055-0.824-0.164-1.223L59.4,38H63V36z     M56.827,32.256C56.48,32.096,56.1,32,55.701,32c-0.335,0-0.653,0.069-0.949,0.181c-0.414-1.533-1.333-2.855-2.571-3.782    l0.516-2.062C54.798,27.63,56.334,29.755,56.827,32.256z M54.905,43.681l-3.197,3.197C51.467,47.119,51,46.923,51,46.586v-0.968    c0.331-0.379,0.589-0.816,0.759-1.299c1.054-0.384,2.041-0.925,2.93-1.609L54.905,43.681z M39.173,32.256    c0.493-2.501,2.029-4.626,4.131-5.919l0.516,2.062c-1.238,0.926-2.157,2.249-2.571,3.782C40.952,32.069,40.634,32,40.299,32    C39.9,32,39.52,32.096,39.173,32.256z M50.852,25.471l-0.487,1.949C49.624,27.153,48.831,27,48,27s-1.624,0.153-2.364,0.42    l-0.487-1.949C46.046,25.17,47.003,25,48,25S49.954,25.17,50.852,25.471z M50.792,38.144C50.071,37.439,49.087,37,48,37    c-1.086,0-2.07,0.438-2.792,1.144C43.848,37.223,43,35.67,43,34c0-2.757,2.243-5,5-5s5,2.243,5,5    C53,35.67,52.152,37.223,50.792,38.144z M41.802,40.5l0.537-2.418c0.5,0.695,1.115,1.307,1.844,1.784    C44.076,40.227,44,40.603,44,41v1.05C43.195,41.649,42.458,41.124,41.802,40.5z M41.311,42.708    c0.889,0.684,1.876,1.225,2.929,1.61c0.17,0.484,0.428,0.921,0.759,1.3v0.968c0,0.339-0.469,0.53-0.707,0.293l-3.198-3.198    L41.311,42.708z M46,43v-2c0-1.103,0.897-2,2-2s2,0.897,2,2v2c0,1.103-0.897,2-2,2S46,44.103,46,43z M54.198,40.5    c-0.655,0.624-1.393,1.148-2.198,1.55V41c0-0.397-0.076-0.773-0.184-1.135c0.729-0.476,1.344-1.088,1.845-1.783L54.198,40.5z     M21,3h24l0.001,2H21V3z M22.618,7H43v8h-2V9h-6v6H18.618L22.618,7z M39,15h-2v-4h2V15z M35.18,35.209    C34.483,34.671,33.618,34,31.984,34c-1.633,0-2.5,0.671-3.195,1.209C28.196,35.668,27.767,36,26.817,36s-1.378-0.332-1.971-0.791    C24.151,34.671,23.285,34,21.651,34c-1.633,0-2.499,0.671-3.194,1.209C17.864,35.668,17.436,36,16.487,36    c-0.948,0-1.376-0.332-1.969-0.79C13.823,34.671,12.958,34,11.325,34c-0.821,0-1.448,0.17-1.957,0.407    c-0.568-0.411-0.984-0.997-1.155-1.68L5.281,21H9v-2H3v-2h50v2H11v2h39.719l-0.554,2.216C49.465,23.076,48.741,23,48,23    c-6.065,0-11,4.935-11,11c0,0.637,0.066,1.271,0.174,1.894l-0.029,0.105C36.2,35.998,35.771,35.667,35.18,35.209z M58.224,46.361    L53,51.586v2.432C52.886,54.011,52.776,54,52.654,54c-1.634,0-2.5,0.67-3.197,1.209C48.863,55.668,48.435,56,47.484,56    c-0.949,0-1.377-0.332-1.97-0.791c-0.591-0.457-1.31-1.006-2.514-1.162v-2.461l-5.225-5.226C37.283,45.868,37,45.187,37,44.488    c0-0.235,0.031-0.47,0.093-0.697l2.53-9.275C39.706,34.212,39.984,34,40.299,34C40.686,34,41,34.314,41,34.701v0.112    c0,0.051-0.006,0.103-0.017,0.152l-2.079,9.354l3.975,3.975C43.336,48.749,43.942,49,44.586,49c1.241,0,2.254-0.945,2.387-2.15    C47.303,46.938,47.643,47,48,47s0.697-0.062,1.027-0.15C49.16,48.055,50.173,49,51.414,49c0.635,0,1.257-0.258,1.707-0.707    l3.974-3.974l-2.079-9.354C55.006,34.916,55,34.864,55,34.813v-0.112C55,34.314,55.314,34,55.701,34    c0.315,0,0.593,0.212,0.676,0.516l2.53,9.275C58.969,44.019,59,44.253,59,44.488C59,45.187,58.717,45.868,58.224,46.361z"/>
	</g>
</g>
</svg>
