<?xml version="1.0" encoding="iso-8859-1"?>
<!-- Generator: Adobe Illustrator 22.1.0, SVG Export Plug-In . SVG Version: 6.00 Build 0)  -->
<svg xmlns="http://www.w3.org/2000/svg" xmlns:xlink="http://www.w3.org/1999/xlink" version="1.1" id="Layer_1_1_" x="0px" y="0px" viewBox="0 0 64 64" style="enable-background:new 0 0 64 64;" xml:space="preserve" width="512" height="512">
<g>
	<g>
		<path style="fill:#838F9B;" d="M50,62h-8c0-1.1,0.45-2.1,1.17-2.83c0.27-0.27,0.59-0.5,0.93-0.69C44.66,58.18,45.31,58,46,58    c1.1,0,2.1,0.45,2.83,1.17C49.55,59.9,50,60.9,50,62z"/>
		<path style="fill:#838F9B;" d="M22,62h-8c0-1.1,0.45-2.1,1.17-2.83c0.27-0.27,0.59-0.5,0.93-0.69C16.66,58.18,17.31,58,18,58    c1.1,0,2.1,0.45,2.83,1.17C21.55,59.9,22,60.9,22,62z"/>
		<path style="fill:#CCD1D9;" d="M48,27v31h-2c-0.69,0-1.34,0.18-1.9,0.48L44,58V42v-6v-9h3c0.33,0,0.66-0.04,0.97-0.12L48,27z"/>
		<path style="fill:#CCD1D9;" d="M20.03,57.98l0.8,1.19C20.1,58.45,19.1,58,18,58c-0.69,0-1.34,0.18-1.9,0.48L16,58V27l0.03-0.12    C16.34,26.96,16.67,27,17,27h3v9v6v16L20.03,57.98z"/>
		<polygon style="fill:#FCD770;" points="40,36 36,36 32,36 28,36 24,36 20,36 20,42 24,42 28,42 32,42 36,42 40,42 44,42 44,36       "/>
		<path style="fill:#E6E9ED;" d="M13,23h12c0,2.21-1.79,4-4,4h-1h-3c-0.33,0-0.66-0.04-0.97-0.12c-0.71-0.18-1.35-0.55-1.86-1.05    C13.45,25.1,13,24.1,13,23z"/>
		<path style="fill:#FF826E;" d="M25,23h14c0,2.21-1.79,4-4,4h-6C26.79,27,25,25.21,25,23z"/>
		<path style="fill:#D3A06C;" d="M39,23h12c0,1.87-1.29,3.45-3.03,3.88C47.66,26.96,47.33,27,47,27h-3h-1C40.79,27,39,25.21,39,23z"/>
		<polygon style="fill:#FF826E;" points="51,21 51,23 39,23 32,10   "/>
		<rect x="32" y="2" style="fill:#FF826E;" width="7" height="4"/>
		<polygon style="fill:#E6E9ED;" points="32,10 39,23 25,23   "/>
		<polygon style="fill:#FF826E;" points="32,10 25,23 13,23 13,21   "/>
	</g>
	<path d="M49,27.576c1.763-0.774,3-2.531,3-4.576v-2.577l-19-11V7h7V1h-9v8.424l-19,11V23c0,2.045,1.237,3.802,3,4.576V58h0.031   C13.806,58.912,13,60.359,13,62v1h10v-1c0-1.468-0.648-2.777-1.658-3.693L32,51.202l10.658,7.106C41.648,59.223,41,60.532,41,62v1   h10v-1c0-1.641-0.806-3.088-2.031-4H49V27.576z M33,3h5v2h-5V3z M47,26h-4c-1.302,0-2.402-0.839-2.816-2h9.631   C49.402,25.161,48.302,26,47,26z M43,41h-2v-4h2V41z M39,41h-2v-4h2V41z M35,41h-2v-4h2V41z M31,41h-2v-4h2V41z M27,41h-2v-4h2V41z    M23,41h-2v-4h2V41z M40.697,43L32,48.798L23.303,43H40.697z M43,35H21v-7c1.641,0,3.088-0.806,4-2.031   C25.912,27.194,27.359,28,29,28h6c1.641,0,3.088-0.806,4-2.031C39.912,27.194,41.359,28,43,28V35z M26.674,22L32,12.109L37.326,22   H26.674z M37.816,24c-0.414,1.161-1.514,2-2.816,2h-6c-1.302,0-2.402-0.839-2.816-2H37.816z M50,22H39.597l-5.043-9.366L50,21.577   V22z M29.446,12.634L24.403,22H14v-0.423L29.446,12.634z M14.184,24h9.631c-0.414,1.161-1.514,2-2.816,2h-4   C15.698,26,14.598,25.161,14.184,24z M17,28h2v29.101C18.677,57.035,18.342,57,18,57s-0.677,0.035-1,0.101V28z M15.171,61   c0.413-1.164,1.525-2,2.829-2s2.416,0.836,2.829,2H15.171z M21,56.132V43.868L30.197,50L21,56.132z M43,43.868v12.263L33.803,50   L43,43.868z M43.171,61c0.413-1.164,1.525-2,2.829-2s2.416,0.836,2.829,2H43.171z M46,57c-0.342,0-0.677,0.035-1,0.101V28h2v29.101   C46.677,57.035,46.342,57,46,57z"/>
</g>
</svg>
