<?xml version="1.0" encoding="iso-8859-1"?>
<!-- Generator: Adobe Illustrator 22.1.0, SVG Export Plug-In . SVG Version: 6.00 Build 0)  -->
<svg xmlns="http://www.w3.org/2000/svg" xmlns:xlink="http://www.w3.org/1999/xlink" version="1.1" id="Layer_1_1_" x="0px" y="0px" viewBox="0 0 64 64" style="enable-background:new 0 0 64 64;" xml:space="preserve" width="512" height="512">
<g>
	<g>
		<path style="fill:#69D6F4;" d="M57.83,50c-2.59,0-2.59-2-5.18-2c-2.58,0-2.58,2-5.17,2c-2.58,0-2.58-2-5.16-2    c-2.59,0-2.59,2-5.17,2c-2.58,0-2.58-2-5.17-2c-2.58,0-2.58,2-5.16,2c-1.46,0-2.09-0.63-2.83-1.19h-0.17L4.16,48.97l-1.74,11.3    L1,60v3h62v-9v-6C60.41,48,60.41,50,57.83,50z"/>
		<path style="fill:#CCD1D9;" d="M25.614,62.368c-1.562-0.456-1.926-1.843-4.075-1.843c-2.58,0-2.58,2-5.16,2s-2.58-2-5.17-2    c-2.58,0-2.58,2-5.16,2c-1.798,0-2.352-0.975-3.393-1.555l5.508-34.914c0.154-0.971,0.992-1.686,1.975-1.686h7.744    c0.983,0,1.821,0.715,1.975,1.686L25.614,62.368z"/>
		<circle style="fill:#FCD770;" cx="52" cy="12" r="10"/>
		<path style="fill:#838F9B;" d="M24.41,28.59C24.05,28.22,23.55,28,23,28h-2.39H7.39l0.35-2.3c0.07-0.46,0.3-0.87,0.62-1.16    L5.44,18c-0.27-0.61-0.87-1-1.53-1H3.68C2.75,17,2,17.75,2,18.68c0,0.21,0.04,0.42,0.12,0.62L6.81,31l0.11,0.02l-0.14,0.95L7,32    h14.23H23c1.1,0,2-0.9,2-2C25,29.45,24.78,28.95,24.41,28.59z"/>
		<polygon style="fill:#FF826E;" points="24,13 17,13 14,3   "/>
		<polygon style="fill:#FF826E;" points="14,3 11,13 4,13   "/>
		<polygon style="fill:#E6E9ED;" points="14,3 17,13 14,13 11,13   "/>
	</g>
	<g>
		<path d="M57.827,55c-0.952,0-1.381-0.332-1.975-0.791C55.155,53.67,54.289,53,52.654,53c-1.634,0-2.5,0.67-3.197,1.209    C48.863,54.668,48.435,55,47.484,55c-0.949,0-1.377-0.332-1.97-0.79c-0.188-0.146-0.376-0.291-0.577-0.426l-1.117,1.658    c0.164,0.11,0.316,0.229,0.47,0.349C44.985,56.329,45.851,57,47.484,57c1.634,0,2.5-0.67,3.197-1.209    C51.274,55.332,51.703,55,52.654,55c0.952,0,1.381,0.332,1.975,0.791C55.325,56.33,56.192,57,57.827,57    c1.635,0,2.502-0.67,3.199-1.209C61.619,55.332,62.048,55,63,55v-2c-1.635,0-2.501,0.67-3.198,1.209    C59.208,54.668,58.779,55,57.827,55z"/>
		<path d="M57.827,49c-0.952,0-1.381-0.332-1.975-0.791C55.155,47.67,54.289,47,52.654,47c-1.634,0-2.5,0.67-3.197,1.209    C48.863,48.668,48.435,49,47.484,49c-0.949,0-1.377-0.332-1.97-0.791C44.818,47.671,43.952,47,42.319,47    c-1.634,0-2.5,0.671-3.196,1.209C38.53,48.668,38.101,49,37.151,49c-0.95,0-1.378-0.332-1.971-0.791    C34.483,47.671,33.618,47,31.984,47c-1.633,0-2.5,0.671-3.195,1.209C28.196,48.668,27.767,49,26.817,49    c-0.949,0-1.377-0.331-1.97-0.79l-0.126-0.097L22.396,33H23c1.654,0,3-1.346,3-3s-1.346-3-3-3h-1.527l-0.224-1.455    C21.023,24.07,19.776,23,18.284,23H15v-9h11.414L14,1.586L1.586,14H13v9H9.716c-0.311,0-0.608,0.056-0.891,0.144l-2.469-5.555    C5.926,16.623,4.967,16,3.911,16H3.677C2.201,16,1,17.201,1,18.677c0,0.341,0.064,0.676,0.192,0.995l4.67,11.652L1.599,59.033    C1.411,59.012,1.213,59,1,59v2c0.948,0,1.375,0.331,1.967,0.79C3.663,62.329,4.528,63,6.16,63c1.633,0,2.499-0.671,3.195-1.209    C9.948,61.332,10.375,61,11.325,61c0.948,0,1.376,0.332,1.969,0.79c0.695,0.539,1.561,1.21,3.193,1.21s2.499-0.671,3.194-1.209    C20.274,61.332,20.702,61,21.651,61c0.95,0,1.378,0.332,1.971,0.791C24.318,62.329,25.184,63,26.817,63    c1.634,0,2.5-0.671,3.196-1.209C30.606,61.332,31.034,61,31.984,61s1.378,0.332,1.971,0.791C34.651,62.329,35.517,63,37.151,63    s2.5-0.671,3.196-1.209C40.94,61.332,41.369,61,42.319,61c0.949,0,1.377,0.332,1.97,0.791C44.985,62.329,45.851,63,47.484,63    c1.634,0,2.5-0.67,3.197-1.209C51.274,61.332,51.703,61,52.654,61c0.952,0,1.381,0.332,1.975,0.791    C55.325,62.33,56.192,63,57.827,63c1.635,0,2.502-0.67,3.199-1.209C61.619,61.332,62.048,61,63,61v-2    c-1.635,0-2.501,0.67-3.198,1.209C59.208,60.668,58.779,61,57.827,61c-0.952,0-1.381-0.332-1.975-0.791    C55.155,59.67,54.289,59,52.654,59c-1.634,0-2.5,0.67-3.197,1.209C48.863,60.668,48.435,61,47.484,61    c-0.949,0-1.377-0.332-1.97-0.791C44.818,59.671,43.952,59,42.319,59c-1.634,0-2.5,0.671-3.196,1.209    C38.53,60.668,38.101,61,37.151,61c-0.95,0-1.378-0.332-1.971-0.791C34.483,59.671,33.618,59,31.984,59    c-1.633,0-2.5,0.671-3.195,1.209C28.196,60.668,27.767,61,26.817,61c-0.044,0-0.074-0.009-0.115-0.011l-0.622-4.044    C26.316,56.978,26.559,57,26.817,57c1.634,0,2.5-0.671,3.196-1.209C30.606,55.332,31.034,55,31.984,55s1.378,0.332,1.971,0.791    C34.651,56.329,35.517,57,37.151,57s2.5-0.671,3.196-1.209C40.94,55.332,41.369,55,42.319,55v-2c-1.634,0-2.5,0.671-3.196,1.209    C38.53,54.668,38.101,55,37.151,55c-0.95,0-1.378-0.332-1.971-0.791C34.483,53.671,33.618,53,31.984,53    c-1.633,0-2.5,0.671-3.195,1.209C28.196,54.668,27.767,55,26.817,55c-0.487,0-0.816-0.089-1.067-0.2l-0.631-4.102    C25.58,50.877,26.127,51,26.817,51c1.634,0,2.5-0.671,3.196-1.209C30.606,49.332,31.034,49,31.984,49s1.378,0.332,1.971,0.791    C34.651,50.329,35.517,51,37.151,51s2.5-0.671,3.196-1.209C40.94,49.332,41.369,49,42.319,49c0.949,0,1.377,0.332,1.97,0.791    C44.985,50.329,45.851,51,47.484,51c1.634,0,2.5-0.67,3.197-1.209C51.274,49.332,51.703,49,52.654,49    c0.952,0,1.381,0.332,1.975,0.791C55.325,50.33,56.192,51,57.827,51c1.635,0,2.502-0.67,3.199-1.209    C61.619,49.332,62.048,49,63,49v-2c-1.635,0-2.501,0.67-3.198,1.209C59.208,48.668,58.779,49,57.827,49z M12.344,12L14,6.48    L15.656,12H12.344z M17.744,12l-1.646-5.488L21.586,12H17.744z M11.902,6.512L10.256,12H6.414L11.902,6.512z M6.704,39h14.592    l0.615,4H6.089L6.704,39z M22.219,45l1.385,9H4.396l1.385-9H22.219z M20.988,37H7.012l0.615-4h12.745L20.988,37z M23,29    c0.551,0,1,0.448,1,1s-0.449,1-1,1h-0.912l-0.308-2H23z M18.284,25c0.497,0,0.913,0.356,0.988,0.849L19.45,27H11v2h8.757l0.308,2    H7.935l0.793-5.152C8.803,25.356,9.219,25,9.716,25H18.284z M3.049,18.93C3.017,18.848,3,18.763,3,18.677    C3,18.304,3.304,18,3.677,18h0.234c0.267,0,0.509,0.157,0.618,0.401l2.662,5.99c-0.217,0.342-0.375,0.728-0.44,1.153l-0.292,1.895    L3.049,18.93z M21.651,59c-1.633,0-2.499,0.671-3.194,1.209C17.864,60.668,17.436,61,16.487,61c-0.948,0-1.376-0.332-1.969-0.79    C13.823,59.671,12.958,59,11.325,59s-2.499,0.671-3.194,1.209C7.538,60.668,7.109,61,6.16,61c-0.948,0-1.375-0.331-1.967-0.79    c-0.205-0.159-0.428-0.327-0.677-0.488L4.089,56h19.823l0.61,3.963C23.874,59.486,23.042,59,21.651,59z"/>
		<path d="M52,23c6.065,0,11-4.935,11-11S58.065,1,52,1S41,5.935,41,12S45.935,23,52,23z M52,3c4.962,0,9,4.037,9,9s-4.038,9-9,9    s-9-4.037-9-9S47.038,3,52,3z"/>
		<path d="M57,12h2c0-1.988-0.851-3.89-2.333-5.217l-1.334,1.49C56.393,9.222,57,10.58,57,12z"/>
		<path d="M54.334,5.399C53.586,5.135,52.801,5,52,5v2c0.573,0,1.134,0.096,1.666,0.284L54.334,5.399z"/>
		<rect x="57" y="40" width="2" height="2"/>
		<rect x="55" y="42" width="2" height="2"/>
		<rect x="57" y="44" width="2" height="2"/>
		<rect x="59" y="42" width="2" height="2"/>
		<rect x="48" y="34" width="2" height="2"/>
		<rect x="46" y="36" width="2" height="2"/>
		<rect x="48" y="38" width="2" height="2"/>
		<rect x="50" y="36" width="2" height="2"/>
		<rect x="30" y="39" width="2" height="2"/>
		<rect x="28" y="41" width="2" height="2"/>
		<rect x="30" y="43" width="2" height="2"/>
		<rect x="32" y="41" width="2" height="2"/>
	</g>
</g>
</svg>
