<?xml version="1.0" encoding="iso-8859-1"?>
<!-- Generator: Adobe Illustrator 22.1.0, SVG Export Plug-In . SVG Version: 6.00 Build 0)  -->
<svg xmlns="http://www.w3.org/2000/svg" xmlns:xlink="http://www.w3.org/1999/xlink" version="1.1" id="Layer_1_1_" x="0px" y="0px" viewBox="0 0 64 64" style="enable-background:new 0 0 64 64;" xml:space="preserve" width="512" height="512">
<g>
	<g>
		<path style="fill:#E6E9ED;" d="M31.98,54c-2.58,0-2.58,2-5.16,2c-2.59,0-2.59-2-5.17-2s-2.58,2-5.16,2s-2.58-2-5.17-2    c-2.58,0-2.58,2-5.16,2C6.11,56,6.05,56,6,55.99l-0.67-1.33C3.14,50.28,2,45.45,2,40.55c0-2.48,0.29-4.95,0.86-7.35    c0.56-2.4,1.41-4.73,2.52-6.95c1.11-2.23,2.8-4.04,4.83-5.29C12.24,19.7,14.62,19,17.1,19c2.74,0,5.21,1.11,7,2.9    c1.79,1.79,2.9,4.26,2.9,7c0,1.52-0.35,3-1,4.33L24.9,35c-0.25,0.31-0.51,0.61-0.8,0.9L23,37h-5.14L18,35.66    c2.33-0.83,4-3.05,4-5.66c0-1.66-0.67-3.16-1.76-4.24C19.16,24.67,17.66,24,16,24s-3.16,0.67-4.24,1.76    C10.67,26.84,10,28.34,10,30v0.1c0,0.64,0.03,1.27,0.08,1.9l0.28,2c0.78,4.25,2.83,8.19,5.93,11.29c1.79,1.79,3.89,3.25,6.19,4.32    L32,54C31.99,54,31.99,54,31.98,54z"/>
		<path style="fill:#69D6F4;" d="M57.83,56c-2.59,0-2.59-2-5.18-2c-2.58,0-2.58,2-5.17,2c-2.58,0-2.58-2-5.16-2    c-2.59,0-2.59,2-5.17,2c-2.57,0-2.58-1.99-5.15-2c-0.01,0-0.01,0-0.02,0c-2.58,0-2.58,2-5.16,2c-2.59,0-2.59-2-5.17-2    s-2.58,2-5.16,2s-2.58-2-5.17-2c-2.58,0-2.58,2-5.16,2C6.11,56,6.05,56,6,55.99C3.58,55.92,3.53,54,1,54v9h62v-9    C60.41,54,60.41,56,57.83,56z"/>
		<path style="fill:#69D6F4;" d="M53.41,45.59C53.78,45.95,54,46.45,54,47s-0.22,1.05-0.59,1.41C53.05,48.78,52.55,49,52,49    c-1.32,0-2.64,0.21-3.9,0.63L47,50l0.22-1.08C47.67,46.64,49.67,45,52,45C52.55,45,53.05,45.22,53.41,45.59z"/>
		<path style="fill:#69D6F4;" d="M31.63,45.9L32,47l-1.08-0.22C28.64,46.33,27,44.33,27,42c0-0.55,0.22-1.05,0.59-1.41    C27.95,40.22,28.45,40,29,40s1.05,0.22,1.41,0.59C30.78,40.95,31,41.45,31,42C31,43.32,31.21,44.64,31.63,45.9z"/>
		<path style="fill:#E6E9ED;" d="M55.75,8.02C55.83,8,55.92,8,56,8c3.31,0,6,2.69,6,6s-2.69,6-6,6H46l-0.17-0.07L47,17h-8    l-0.66,3.07L38,20h-8c-3.31,0-6-2.69-6-6s2.69-6,6-6c0.09,0,0.17,0,0.25,0.01V8c0.89-3.45,4.02-6,7.75-6c1.89,0,3.63,0.66,5,1.75    C44.37,2.66,46.11,2,48,2c3.73,0,6.86,2.55,7.75,6V8.02z"/>
		<polygon style="fill:#FCD770;" points="48,27 45.14,33 44.19,35 38,48 37,48 41,31 36,31 38.34,20.07 39,17 47,17 45.83,19.93     43,27   "/>
	</g>
	<g>
		<path d="M57.827,61c-0.952,0-1.381-0.332-1.976-0.791C55.155,59.67,54.288,59,52.653,59s-2.501,0.67-3.197,1.209    C48.863,60.668,48.435,61,47.484,61c-0.949,0-1.378-0.332-1.971-0.791C44.817,59.67,43.952,59,42.318,59s-2.5,0.67-3.196,1.209    C38.529,60.668,38.101,61,37.15,61c-0.949,0-1.378-0.332-1.971-0.791C34.483,59.67,33.618,59,31.984,59s-2.5,0.67-3.196,1.209    C28.195,60.668,27.767,61,26.817,61s-1.378-0.332-1.971-0.791C24.15,59.67,23.285,59,21.651,59s-2.5,0.67-3.195,1.209    C17.863,60.668,17.436,61,16.486,61c-0.948,0-1.375-0.332-1.968-0.79C13.823,59.671,12.958,59,11.325,59    c-1.634,0-2.5,0.67-3.195,1.209C7.537,60.668,7.109,61,6.16,61c-0.948,0-1.376-0.332-1.968-0.791C3.497,59.671,2.632,59,1,59v2    c0.948,0,1.376,0.332,1.968,0.791C3.663,62.329,4.528,63,6.16,63c1.633,0,2.499-0.67,3.194-1.209    C9.947,61.332,10.376,61,11.325,61c0.948,0,1.376,0.332,1.969,0.791C13.989,62.33,14.854,63,16.486,63    c1.633,0,2.499-0.67,3.194-1.209C20.273,61.332,20.702,61,21.651,61s1.378,0.332,1.971,0.791C24.318,62.33,25.184,63,26.817,63    c1.633,0,2.499-0.67,3.195-1.209C30.605,61.332,31.034,61,31.984,61c0.949,0,1.378,0.332,1.971,0.791    C34.651,62.33,35.517,63,37.15,63s2.5-0.67,3.196-1.209C40.939,61.332,41.368,61,42.318,61c0.949,0,1.378,0.332,1.971,0.791    C44.985,62.33,45.851,63,47.484,63s2.5-0.67,3.196-1.209C51.273,61.332,51.702,61,52.653,61c0.952,0,1.381,0.332,1.976,0.791    C55.325,62.33,56.192,63,57.827,63s2.501-0.67,3.197-1.209C61.619,61.332,62.048,61,63,61v-2c-1.635,0-2.502,0.67-3.198,1.209    C59.207,60.668,58.778,61,57.827,61z"/>
		<path d="M57.827,55c-0.952,0-1.381-0.332-1.976-0.791C55.155,53.67,54.288,53,52.653,53s-2.501,0.67-3.197,1.209    C48.863,54.668,48.435,55,47.484,55c-0.949,0-1.378-0.332-1.971-0.791C44.817,53.67,43.952,53,42.318,53s-2.5,0.67-3.196,1.209    C38.529,54.668,38.101,55,37.15,55c-0.949,0-1.378-0.332-1.971-0.791c-0.656-0.508-1.471-1.126-2.93-1.196l-9.352-4.316    c-2.201-1.016-4.186-2.4-5.899-4.114c-2.945-2.946-4.902-6.668-5.658-10.766l-1.967,0.363c0.83,4.497,2.978,8.583,6.211,11.816    c1.881,1.881,4.06,3.4,6.476,4.516l7.219,3.332c-0.175,0.122-0.338,0.246-0.49,0.364C28.195,54.668,27.767,55,26.817,55    s-1.378-0.332-1.971-0.791C24.15,53.67,23.285,53,21.651,53s-2.5,0.67-3.195,1.209C17.863,54.668,17.436,55,16.486,55    c-0.948,0-1.375-0.332-1.968-0.79c-0.65-0.504-1.457-1.116-2.893-1.194l-0.4-0.801c-0.876-1.752-1.586-3.597-2.109-5.482    l-1.928,0.535c0.559,2.009,1.314,3.974,2.248,5.841l0.112,0.224c-0.591,0.243-1.034,0.578-1.419,0.876    c-0.489,0.379-0.882,0.659-1.532,0.749l-0.372-0.744C4.115,49.994,3,45.27,3,40.552c0-4.786,1.131-9.578,3.271-13.859    C8.336,22.564,12.485,20,17.101,20C22.008,20,26,23.992,26,28.899c0,1.343-0.311,2.691-0.898,3.897l1.797,0.876    C27.619,32.195,28,30.544,28,28.899C28,22.89,23.11,18,17.101,18c-5.378,0-10.213,2.988-12.618,7.798    C2.204,30.355,1,35.458,1,40.552c0,4.621,1.016,9.243,2.924,13.453C3.27,53.515,2.429,53,1,53v2c0.948,0,1.376,0.332,1.968,0.791    C3.663,56.329,4.528,57,6.16,57c1.633,0,2.499-0.67,3.194-1.209C9.947,55.332,10.376,55,11.325,55    c0.948,0,1.376,0.332,1.969,0.791C13.989,56.33,14.854,57,16.486,57c1.633,0,2.499-0.67,3.194-1.209    C20.273,55.332,20.702,55,21.651,55s1.378,0.332,1.971,0.791C24.318,56.33,25.184,57,26.817,57c1.633,0,2.499-0.67,3.195-1.209    C30.605,55.332,31.034,55,31.984,55c0.949,0,1.378,0.332,1.971,0.791C34.651,56.33,35.517,57,37.15,57s2.5-0.67,3.196-1.209    C40.939,55.332,41.368,55,42.318,55c0.949,0,1.378,0.332,1.971,0.791C44.985,56.33,45.851,57,47.484,57s2.5-0.67,3.196-1.209    C51.273,55.332,51.702,55,52.653,55c0.952,0,1.381,0.332,1.976,0.791C55.325,56.33,56.192,57,57.827,57s2.501-0.67,3.197-1.209    C61.619,55.332,62.048,55,63,55v-2c-1.635,0-2.502,0.67-3.198,1.209C59.207,54.668,58.778,55,57.827,55z"/>
		<path d="M16,23c-3.859,0-7,3.14-7,7v0.103c0,0.659,0.029,1.327,0.088,1.985l1.992-0.177c-0.053-0.6-0.08-1.208-0.08-1.809V30    c0-2.757,2.243-5,5-5s5,2.243,5,5c0,2.116-1.34,4.011-3.333,4.716l0.666,1.886C21.125,35.615,23,32.962,23,30    C23,26.14,19.859,23,16,23z"/>
		<path d="M24.807,36.607c0.312-0.31,0.606-0.644,0.878-0.992l-1.576-1.23c-0.221,0.283-0.462,0.555-0.715,0.808l-1.101,1.101    l1.414,1.414L24.807,36.607z"/>
		<path d="M6.688,45.205l1.957-0.409C8.217,42.747,8,40.646,8,38.552H6C6,40.783,6.231,43.021,6.688,45.205z"/>
		<path d="M30,21h7.12l-2.357,11h4.975l-4,17h2.895l6.462-13.57l-1.807-0.859l-4.151,8.718L42.263,30h-5.025l2.571-12h5.715l-4,10    h4.893l-2.177,4.57l1.807,0.86L49.584,26h-5.107l2-5H56c3.859,0,7-3.14,7-7c0-3.692-2.875-6.718-6.503-6.975    C55.247,3.442,51.854,1,48,1c-1.789,0-3.545,0.539-5.021,1.531C41.523,1.561,39.8,1,38,1c-3.854,0-7.246,2.442-8.497,6.025    C25.876,7.282,23,10.308,23,14C23,17.86,26.141,21,30,21z M30,9c2.757,0,5,2.243,5,5h2c0-3.312-2.315-6.087-5.409-6.811    C32.69,4.677,35.185,3,38,3c2.491,0,4.815,1.341,6.064,3.5l1.73-1.001c-0.341-0.59-0.756-1.121-1.211-1.609    C45.62,3.307,46.782,3,48,3c2.816,0,5.311,1.678,6.409,4.189c-1.387,0.325-2.66,1.064-3.626,2.144l1.49,1.334    C53.222,9.607,54.58,9,56,9c2.757,0,5,2.243,5,5s-2.243,5-5,5h-8.723l1.2-3H38.191l-0.643,3H30c-2.757,0-5-2.243-5-5    S27.243,9,30,9z"/>
		<path d="M51.284,12.334l-1.885-0.668C49.135,12.414,49,13.199,49,14h2C51,13.427,51.096,12.866,51.284,12.334z"/>
		<path d="M46.235,48.726l-0.555,2.768l2.738-0.913C49.575,50.195,50.78,50,52,50c1.654,0,3-1.346,3-3s-1.346-3-3-3    C49.207,44,46.783,45.988,46.235,48.726z M53,47c0,0.551-0.448,1-1,1c-1.229,0-2.447,0.169-3.626,0.503    C48.938,47.021,50.374,46,52,46C52.552,46,53,46.449,53,47z"/>
		<path d="M26,42c0,2.792,1.987,5.217,4.726,5.765l2.768,0.553l-0.912-2.737C32.195,44.424,32,43.219,32,42c0-1.654-1.346-3-3-3    S26,40.346,26,42z M30,42c0,1.229,0.169,2.447,0.503,3.627C29.021,45.063,28,43.626,28,42c0-0.551,0.448-1,1-1S30,41.449,30,42z"/>
		<rect x="61" y="45" width="2" height="2"/>
		<rect x="55" y="39" width="2" height="2"/>
		<rect x="30" y="35" width="2" height="2"/>
		<rect x="20" y="43" width="2" height="2"/>
	</g>
</g>
</svg>
