<?xml version="1.0" encoding="iso-8859-1"?>
<!-- Generator: Adobe Illustrator 22.1.0, SVG Export Plug-In . SVG Version: 6.00 Build 0)  -->
<svg xmlns="http://www.w3.org/2000/svg" xmlns:xlink="http://www.w3.org/1999/xlink" version="1.1" id="Layer_1_1_" x="0px" y="0px" viewBox="0 0 64 64" style="enable-background:new 0 0 64 64;" xml:space="preserve" width="512" height="512">
<g>
	<g>
		<path style="fill:#FFEAA7;" d="M54,11v47h-4v-9v-6v-5V15v-3c0-3.31-2.69-6-6-6h-4h-2H20c-3.31,0-6,2.69-6,6v3v23v5v6v9h-4V11    c0-4.97,4.03-9,9-9h26C49.97,2,54,6.03,54,11z"/>
		<polygon style="fill:#CCD1D9;" points="58,58 58,62 46,62 46,58 50,58 54,58   "/>
		<polygon style="fill:#CCD1D9;" points="18,58 18,62 6,62 6,58 10,58 14,58   "/>
		<path style="fill:#69D6F4;" d="M50,43v6H14v-6c3,0,3,2,6,2s3-2,6-2c2.99,0,2.99,2,5.99,2s3-2,6-2s3,2,6.01,2C47,45,47,43,50,43z"/>
		<path style="fill:#E6E9ED;" d="M50,15v23c-3,0-3,2-6,2c-1.49,0-2.25-0.5-3-1l-0.79-1.98c-0.8-1.99-1.21-4.13-1.21-6.28    c0-1.81,0.29-3.62,0.87-5.34L41,22h-0.98c-3.28,0-6.5,0.92-9.28,2.66c-2.46,1.54-4.49,3.66-5.93,6.17    C23.62,32.91,23,35.26,23,37.65V39c-0.75,0.5-1.5,1-3,1c-3,0-3-2-6-2V15H50z"/>
		<path style="fill:#69D6F4;" d="M50,38v5c-3,0-3,2-6,2c-3.01,0-3.01-2-6.01-2s-3,2-6,2s-3-2-5.99-2c-3,0-3,2-6,2s-3-2-6-2v-5    c3,0,3,2,6,2c1.5,0,2.25-0.5,3-1s1.5-1,3-1c2.99,0,2.99,2,5.99,2s3-2,6-2c1.51,0,2.26,0.5,3.01,1s1.51,1,3,1C47,40,47,38,50,38z"/>
		<path style="fill:#838F9B;" d="M41,22l-1.13,3.4C39.29,27.12,39,28.93,39,30.74c0,2.15,0.41,4.29,1.21,6.28L41,39    c-0.75-0.5-1.5-1-3.01-1c-3,0-3,2-6,2s-3-2-5.99-2c-1.5,0-2.25,0.5-3,1v-1.35c0-2.39,0.62-4.74,1.81-6.82    c1.44-2.51,3.47-4.63,5.93-6.17c2.78-1.74,6-2.66,9.28-2.66H41z"/>
	</g>
	<g>
		<path d="M55,57V11c0-5.514-4.486-10-10-10H19C13.486,1,9,5.486,9,11v46H5v6h14v-6h-4v-7h34v7h-4v6h14v-6H55z M17,61H7v-2h10V61z     M15,16h34v21.08c-1.186,0.185-1.935,0.674-2.557,1.088C45.745,38.633,45.194,39,43.995,39c-1.042,0-1.595-0.278-2.181-0.656    l-0.677-1.691C40.383,34.766,40,32.777,40,30.744c0-1.713,0.274-3.406,0.816-5.031L42.388,21h-2.363    c-3.475,0-6.869,0.974-9.815,2.815c-2.586,1.616-4.752,3.87-6.265,6.517C22.672,32.559,22,35.09,22,37.653v0.799    C21.475,38.773,20.934,39,19.997,39c-1.196,0-1.747-0.367-2.444-0.832c-0.621-0.414-1.369-0.903-2.553-1.088V16z M39.181,37.107    C38.828,37.04,38.435,37,37.991,37c-1.804,0-2.775,0.647-3.556,1.168C33.738,38.633,33.188,39,31.99,39    c-1.195,0-1.745-0.367-2.442-0.832C28.769,37.647,27.797,37,25.995,37c-0.808,0-1.442,0.133-1.974,0.324    c0.055-2.102,0.614-4.171,1.659-6c1.35-2.361,3.281-4.372,5.589-5.813c2.511-1.57,5.387-2.433,8.342-2.506l-0.691,2.075    C38.31,26.91,38,28.815,38,30.744C38,32.931,38.405,35.068,39.181,37.107z M15,39.114c0.572,0.143,0.977,0.407,1.443,0.718    C17.224,40.353,18.194,41,19.997,41s2.773-0.647,3.554-1.168C24.248,39.367,24.799,39,25.995,39s1.746,0.367,2.443,0.832    C29.218,40.353,30.188,41,31.99,41c1.803,0,2.774-0.647,3.555-1.168C36.242,39.367,36.793,39,37.991,39s1.75,0.367,2.447,0.832    C41.22,40.353,42.191,41,43.995,41s2.776-0.647,3.558-1.168c0.467-0.311,0.873-0.576,1.447-0.719v2.967    c-1.186,0.185-1.935,0.674-2.557,1.088C45.745,43.633,45.194,44,43.995,44c-1.198,0-1.75-0.367-2.447-0.832    C40.767,42.647,39.795,42,37.991,42s-2.775,0.647-3.556,1.168C33.738,43.633,33.188,44,31.99,44c-1.195,0-1.745-0.367-2.442-0.832    C28.769,42.647,27.797,42,25.995,42c-1.803,0-2.773,0.647-3.554,1.168C21.744,43.633,21.193,44,19.997,44    s-1.747-0.367-2.444-0.832c-0.621-0.414-1.369-0.903-2.553-1.088V39.114z M15,48v-3.886c0.572,0.143,0.977,0.407,1.443,0.718    C17.224,45.353,18.194,46,19.997,46s2.773-0.647,3.554-1.168C24.248,44.367,24.799,44,25.995,44s1.746,0.367,2.443,0.832    C29.218,45.353,30.188,46,31.99,46c1.803,0,2.774-0.647,3.555-1.168C36.242,44.367,36.793,44,37.991,44s1.75,0.367,2.447,0.832    C41.22,45.353,42.191,46,43.995,46s2.776-0.647,3.558-1.168c0.467-0.311,0.873-0.576,1.447-0.719V48H15z M44,5h-4v2h4    c2.757,0,5,2.243,5,5v2H15v-2c0-2.757,2.243-5,5-5h18V5H20c-3.859,0-7,3.14-7,7v45h-2V11c0-4.411,3.589-8,8-8h26    c4.411,0,8,3.589,8,8v46h-2V12C51,8.14,47.859,5,44,5z M57,61H47v-2h10V61z"/>
		<path d="M27.417,32.316c-0.434,0.759-0.773,1.57-1.012,2.412l1.926,0.543c0.192-0.686,0.47-1.346,0.822-1.963    c0.833-1.457,1.983-2.765,3.329-3.781l-1.205-1.596C29.718,29.11,28.383,30.626,27.417,32.316z"/>
		<path d="M32.856,26.893l0.988,1.739c0.597-0.339,1.227-0.631,1.87-0.868l-0.689-1.877C34.278,26.162,33.549,26.5,32.856,26.893z"/>
		<rect x="17" y="18" width="8" height="2"/>
		<rect x="17" y="22" width="8" height="2"/>
	</g>
</g>
</svg>
